export default {
    "header": {
      "keySignatures": [],
      "meta": [],
      "name": "10-Drum Rack 3\u0000",
      "ppq": 96,
      "tempos": [],
      "timeSignatures": [
        {
          "ticks": 0,
          "timeSignature": [
            4,
            4
          ],
          "measures": 0
        },
        {
          "ticks": 0,
          "timeSignature": [
            4,
            4
          ],
          "measures": 0
        }
      ]
    },
    "tracks": [
      {
        "channel": 0,
        "controlChanges": {},
        "pitchBends": [],
        "instrument": {
          "family": "piano",
          "name": "acoustic grand piano",
          "number": 0
        },
        "name": "10-Drum Rack 3\u0000",
        "notes": [
          {
            "duration": 0.16666666666666607,
            "durationTicks": 32,
            "midi": 36,
            "name": "C2",
            "ticks": 2763,
            "time": 14.390625,
            "velocity": 1
          },
          {
            "duration": 0.19270833333333393,
            "durationTicks": 37,
            "midi": 36,
            "name": "C2",
            "ticks": 2840,
            "time": 14.791666666666666,
            "velocity": 1
          },
          {
            "duration": 0.15104166666666607,
            "durationTicks": 29,
            "midi": 36,
            "name": "C2",
            "ticks": 2919,
            "time": 15.203125,
            "velocity": 1
          },
          {
            "duration": 0.18229166666666607,
            "durationTicks": 35,
            "midi": 36,
            "name": "C2",
            "ticks": 2989,
            "time": 15.567708333333334,
            "velocity": 1
          },
          {
            "duration": 0.16666666666666607,
            "durationTicks": 32,
            "midi": 36,
            "name": "C2",
            "ticks": 3067,
            "time": 15.973958333333334,
            "velocity": 1
          },
          {
            "duration": 0.1666666666666643,
            "durationTicks": 32,
            "midi": 36,
            "name": "C2",
            "ticks": 3140,
            "time": 16.354166666666668,
            "velocity": 1
          },
          {
            "duration": 0.109375,
            "durationTicks": 21,
            "midi": 36,
            "name": "C2",
            "ticks": 3218,
            "time": 16.760416666666668,
            "velocity": 1
          },
          {
            "duration": 0.1197916666666643,
            "durationTicks": 23,
            "midi": 38,
            "name": "D2",
            "ticks": 3254,
            "time": 16.947916666666668,
            "velocity": 1
          },
          {
            "duration": 0.125,
            "durationTicks": 24,
            "midi": 37,
            "name": "C#2",
            "ticks": 3379,
            "time": 17.598958333333332,
            "velocity": 1
          },
          {
            "duration": 0.0729166666666643,
            "durationTicks": 14,
            "midi": 39,
            "name": "D#2",
            "ticks": 3458,
            "time": 18.010416666666668,
            "velocity": 1
          },
          {
            "duration": 0.09375,
            "durationTicks": 18,
            "midi": 37,
            "name": "C#2",
            "ticks": 3502,
            "time": 18.239583333333332,
            "velocity": 1
          },
          {
            "duration": 0.13020833333333215,
            "durationTicks": 25,
            "midi": 37,
            "name": "C#2",
            "ticks": 3579,
            "time": 18.640625,
            "velocity": 1
          },
          {
            "duration": 0.171875,
            "durationTicks": 33,
            "midi": 39,
            "name": "D#2",
            "ticks": 3618,
            "time": 18.84375,
            "velocity": 1
          },
          {
            "duration": 0.04166666666666785,
            "durationTicks": 8,
            "midi": 37,
            "name": "C#2",
            "ticks": 3709,
            "time": 19.317708333333332,
            "velocity": 1
          },
          {
            "duration": 0.14583333333333215,
            "durationTicks": 28,
            "midi": 39,
            "name": "D#2",
            "ticks": 3776,
            "time": 19.666666666666668,
            "velocity": 1
          },
          {
            "duration": 0.08854166666666785,
            "durationTicks": 17,
            "midi": 37,
            "name": "C#2",
            "ticks": 3817,
            "time": 19.880208333333332,
            "velocity": 1
          },
          {
            "duration": 0.08854166666666785,
            "durationTicks": 17,
            "midi": 37,
            "name": "C#2",
            "ticks": 3859,
            "time": 20.098958333333332,
            "velocity": 1
          },
          {
            "duration": 0.109375,
            "durationTicks": 21,
            "midi": 37,
            "name": "C#2",
            "ticks": 3897,
            "time": 20.296875,
            "velocity": 1
          },
          {
            "duration": 0.1302083333333357,
            "durationTicks": 25,
            "midi": 39,
            "name": "D#2",
            "ticks": 3934,
            "time": 20.489583333333332,
            "velocity": 1
          },
          {
            "duration": 0.11458333333333215,
            "durationTicks": 22,
            "midi": 37,
            "name": "C#2",
            "ticks": 3966,
            "time": 20.65625,
            "velocity": 1
          },
          {
            "duration": 0.109375,
            "durationTicks": 21,
            "midi": 37,
            "name": "C#2",
            "ticks": 4011,
            "time": 20.890625,
            "velocity": 1
          },
          {
            "duration": 0.1510416666666643,
            "durationTicks": 29,
            "midi": 39,
            "name": "D#2",
            "ticks": 4097,
            "time": 21.338541666666668,
            "velocity": 1
          },
          {
            "duration": 0.13541666666666785,
            "durationTicks": 26,
            "midi": 39,
            "name": "D#2",
            "ticks": 4264,
            "time": 22.208333333333332,
            "velocity": 1
          },
          {
            "duration": 0.08854166666666785,
            "durationTicks": 17,
            "midi": 37,
            "name": "C#2",
            "ticks": 4302,
            "time": 22.40625,
            "velocity": 1
          },
          {
            "duration": 0.09375,
            "durationTicks": 18,
            "midi": 37,
            "name": "C#2",
            "ticks": 4336,
            "time": 22.583333333333332,
            "velocity": 1
          },
          {
            "duration": 0.0989583333333357,
            "durationTicks": 19,
            "midi": 39,
            "name": "D#2",
            "ticks": 4393,
            "time": 22.880208333333332,
            "velocity": 1
          },
          {
            "duration": 0.0677083333333357,
            "durationTicks": 13,
            "midi": 37,
            "name": "C#2",
            "ticks": 4501,
            "time": 23.442708333333332,
            "velocity": 1
          },
          {
            "duration": 0.109375,
            "durationTicks": 21,
            "midi": 39,
            "name": "D#2",
            "ticks": 4540,
            "time": 23.645833333333332,
            "velocity": 1
          },
          {
            "duration": 0.08333333333333215,
            "durationTicks": 16,
            "midi": 37,
            "name": "C#2",
            "ticks": 4577,
            "time": 23.838541666666668,
            "velocity": 1
          },
          {
            "duration": 0.046875,
            "durationTicks": 9,
            "midi": 37,
            "name": "C#2",
            "ticks": 4625,
            "time": 24.088541666666668,
            "velocity": 1
          },
          {
            "duration": 0.1614583333333357,
            "durationTicks": 31,
            "midi": 39,
            "name": "D#2",
            "ticks": 4702,
            "time": 24.489583333333332,
            "velocity": 1
          },
          {
            "duration": 0.10416666666666785,
            "durationTicks": 20,
            "midi": 37,
            "name": "C#2",
            "ticks": 4741,
            "time": 24.692708333333332,
            "velocity": 1
          },
          {
            "duration": 0.10416666666666785,
            "durationTicks": 20,
            "midi": 37,
            "name": "C#2",
            "ticks": 4831,
            "time": 25.161458333333332,
            "velocity": 1
          },
          {
            "duration": 0.11979166666666785,
            "durationTicks": 23,
            "midi": 39,
            "name": "D#2",
            "ticks": 4863,
            "time": 25.328125,
            "velocity": 1
          },
          {
            "duration": 0.020833333333335702,
            "durationTicks": 4,
            "midi": 37,
            "name": "C#2",
            "ticks": 4948,
            "time": 25.770833333333332,
            "velocity": 1
          },
          {
            "duration": 0.06770833333333215,
            "durationTicks": 13,
            "midi": 39,
            "name": "D#2",
            "ticks": 5013,
            "time": 26.109375,
            "velocity": 1
          },
          {
            "duration": 0.0677083333333357,
            "durationTicks": 13,
            "midi": 37,
            "name": "C#2",
            "ticks": 5098,
            "time": 26.552083333333332,
            "velocity": 1
          },
          {
            "duration": 0.08333333333333215,
            "durationTicks": 16,
            "midi": 37,
            "name": "C#2",
            "ticks": 5136,
            "time": 26.75,
            "velocity": 1
          },
          {
            "duration": 0.09375,
            "durationTicks": 18,
            "midi": 39,
            "name": "D#2",
            "ticks": 5173,
            "time": 26.942708333333332,
            "velocity": 1
          },
          {
            "duration": 0.09375,
            "durationTicks": 18,
            "midi": 37,
            "name": "C#2",
            "ticks": 5205,
            "time": 27.109375,
            "velocity": 1
          },
          {
            "duration": 0.09375,
            "durationTicks": 18,
            "midi": 37,
            "name": "C#2",
            "ticks": 5247,
            "time": 27.328125,
            "velocity": 1
          },
          {
            "duration": 0.09895833333333215,
            "durationTicks": 19,
            "midi": 39,
            "name": "D#2",
            "ticks": 5316,
            "time": 27.6875,
            "velocity": 1
          },
          {
            "duration": 0.08854166666666785,
            "durationTicks": 17,
            "midi": 37,
            "name": "C#2",
            "ticks": 5359,
            "time": 27.911458333333332,
            "velocity": 1
          },
          {
            "duration": 0.0833333333333357,
            "durationTicks": 16,
            "midi": 37,
            "name": "C#2",
            "ticks": 5446,
            "time": 28.364583333333332,
            "velocity": 1
          },
          {
            "duration": 0.09895833333333215,
            "durationTicks": 19,
            "midi": 39,
            "name": "D#2",
            "ticks": 5480,
            "time": 28.541666666666668,
            "velocity": 1
          },
          {
            "duration": 0.07291666666666785,
            "durationTicks": 14,
            "midi": 37,
            "name": "C#2",
            "ticks": 5515,
            "time": 28.723958333333332,
            "velocity": 1
          },
          {
            "duration": 0.09375,
            "durationTicks": 18,
            "midi": 37,
            "name": "C#2",
            "ticks": 5552,
            "time": 28.916666666666668,
            "velocity": 1
          },
          {
            "duration": 0.08333333333333215,
            "durationTicks": 16,
            "midi": 39,
            "name": "D#2",
            "ticks": 5619,
            "time": 29.265625,
            "velocity": 1
          },
          {
            "duration": 0.08854166666666785,
            "durationTicks": 17,
            "midi": 37,
            "name": "C#2",
            "ticks": 5662,
            "time": 29.489583333333332,
            "velocity": 1
          },
          {
            "duration": 0.08854166666666785,
            "durationTicks": 17,
            "midi": 37,
            "name": "C#2",
            "ticks": 5701,
            "time": 29.692708333333332,
            "velocity": 1
          },
          {
            "duration": 0.078125,
            "durationTicks": 15,
            "midi": 37,
            "name": "C#2",
            "ticks": 5741,
            "time": 29.901041666666668,
            "velocity": 1
          },
          {
            "duration": 0.1041666666666643,
            "durationTicks": 20,
            "midi": 39,
            "name": "D#2",
            "ticks": 5780,
            "time": 30.104166666666668,
            "velocity": 1
          },
          {
            "duration": 0.08333333333333215,
            "durationTicks": 16,
            "midi": 37,
            "name": "C#2",
            "ticks": 5813,
            "time": 30.276041666666668,
            "velocity": 1
          },
          {
            "duration": 0.06770833333333215,
            "durationTicks": 13,
            "midi": 40,
            "name": "E2",
            "ticks": 5856,
            "time": 30.5,
            "velocity": 1
          },
          {
            "duration": 0.109375,
            "durationTicks": 21,
            "midi": 42,
            "name": "F#2",
            "ticks": 5938,
            "time": 30.927083333333332,
            "velocity": 1
          },
          {
            "duration": 0.04166666666666785,
            "durationTicks": 8,
            "midi": 40,
            "name": "E2",
            "ticks": 5979,
            "time": 31.140625,
            "velocity": 1
          },
          {
            "duration": 0.09375,
            "durationTicks": 18,
            "midi": 40,
            "name": "E2",
            "ticks": 6055,
            "time": 31.536458333333332,
            "velocity": 1
          },
          {
            "duration": 0.109375,
            "durationTicks": 21,
            "midi": 42,
            "name": "F#2",
            "ticks": 6092,
            "time": 31.729166666666668,
            "velocity": 1
          },
          {
            "duration": 0.0989583333333357,
            "durationTicks": 19,
            "midi": 40,
            "name": "E2",
            "ticks": 6173,
            "time": 32.151041666666664,
            "velocity": 1
          },
          {
            "duration": 0.1041666666666714,
            "durationTicks": 20,
            "midi": 42,
            "name": "F#2",
            "ticks": 6242,
            "time": 32.510416666666664,
            "velocity": 1
          },
          {
            "duration": 0.0833333333333286,
            "durationTicks": 16,
            "midi": 40,
            "name": "E2",
            "ticks": 6283,
            "time": 32.723958333333336,
            "velocity": 1
          },
          {
            "duration": 0.078125,
            "durationTicks": 15,
            "midi": 40,
            "name": "E2",
            "ticks": 6321,
            "time": 32.921875,
            "velocity": 1
          },
          {
            "duration": 0.0833333333333357,
            "durationTicks": 16,
            "midi": 40,
            "name": "E2",
            "ticks": 6360,
            "time": 33.125,
            "velocity": 1
          },
          {
            "duration": 0.0572916666666643,
            "durationTicks": 11,
            "midi": 42,
            "name": "F#2",
            "ticks": 6400,
            "time": 33.333333333333336,
            "velocity": 1
          },
          {
            "duration": 0.0833333333333357,
            "durationTicks": 16,
            "midi": 40,
            "name": "E2",
            "ticks": 6428,
            "time": 33.479166666666664,
            "velocity": 1
          },
          {
            "duration": 0.0625,
            "durationTicks": 12,
            "midi": 40,
            "name": "E2",
            "ticks": 6468,
            "time": 33.6875,
            "velocity": 1
          },
          {
            "duration": 0.1041666666666643,
            "durationTicks": 20,
            "midi": 42,
            "name": "F#2",
            "ticks": 6541,
            "time": 34.067708333333336,
            "velocity": 1
          },
          {
            "duration": 0.09375,
            "durationTicks": 18,
            "midi": 42,
            "name": "F#2",
            "ticks": 6697,
            "time": 34.880208333333336,
            "velocity": 1
          },
          {
            "duration": 0.026041666666664298,
            "durationTicks": 5,
            "midi": 40,
            "name": "E2",
            "ticks": 6732,
            "time": 35.0625,
            "velocity": 1
          },
          {
            "duration": 0.09375,
            "durationTicks": 18,
            "midi": 40,
            "name": "E2",
            "ticks": 6924,
            "time": 36.0625,
            "velocity": 1
          },
          {
            "duration": 0.0833333333333357,
            "durationTicks": 16,
            "midi": 40,
            "name": "E2",
            "ticks": 7085,
            "time": 36.901041666666664,
            "velocity": 1
          },
          {
            "duration": 0.0989583333333357,
            "durationTicks": 19,
            "midi": 40,
            "name": "E2",
            "ticks": 7239,
            "time": 37.703125,
            "velocity": 1
          },
          {
            "duration": 0.0833333333333357,
            "durationTicks": 16,
            "midi": 46,
            "name": "A#2",
            "ticks": 7392,
            "time": 38.5,
            "velocity": 1
          },
          {
            "duration": 0.0677083333333286,
            "durationTicks": 13,
            "midi": 48,
            "name": "C3",
            "ticks": 7630,
            "time": 39.739583333333336,
            "velocity": 1
          },
          {
            "duration": 0.0885416666666714,
            "durationTicks": 17,
            "midi": 46,
            "name": "A#2",
            "ticks": 7706,
            "time": 40.135416666666664,
            "velocity": 1
          },
          {
            "duration": 0.0833333333333357,
            "durationTicks": 16,
            "midi": 48,
            "name": "C3",
            "ticks": 7781,
            "time": 40.526041666666664,
            "velocity": 1
          },
          {
            "duration": 0.09375,
            "durationTicks": 18,
            "midi": 46,
            "name": "A#2",
            "ticks": 7848,
            "time": 40.875,
            "velocity": 1
          },
          {
            "duration": 0.0677083333333357,
            "durationTicks": 13,
            "midi": 50,
            "name": "D3",
            "ticks": 7890,
            "time": 41.09375,
            "velocity": 1
          },
          {
            "duration": 0.0677083333333286,
            "durationTicks": 13,
            "midi": 46,
            "name": "A#2",
            "ticks": 8011,
            "time": 41.723958333333336,
            "velocity": 1
          },
          {
            "duration": 0.0677083333333286,
            "durationTicks": 13,
            "midi": 48,
            "name": "C3",
            "ticks": 8092,
            "time": 42.145833333333336,
            "velocity": 1
          },
          {
            "duration": 0.09375,
            "durationTicks": 18,
            "midi": 46,
            "name": "A#2",
            "ticks": 8169,
            "time": 42.546875,
            "velocity": 1
          },
          {
            "duration": 0.09375,
            "durationTicks": 18,
            "midi": 48,
            "name": "C3",
            "ticks": 8244,
            "time": 42.9375,
            "velocity": 1
          },
          {
            "duration": 0.0729166666666643,
            "durationTicks": 14,
            "midi": 46,
            "name": "A#2",
            "ticks": 8323,
            "time": 43.348958333333336,
            "velocity": 1
          },
          {
            "duration": 0.0677083333333357,
            "durationTicks": 13,
            "midi": 48,
            "name": "C3",
            "ticks": 8400,
            "time": 43.75,
            "velocity": 1
          },
          {
            "duration": 0.0677083333333286,
            "durationTicks": 13,
            "midi": 46,
            "name": "A#2",
            "ticks": 8473,
            "time": 44.130208333333336,
            "velocity": 1
          },
          {
            "duration": 0.109375,
            "durationTicks": 21,
            "midi": 50,
            "name": "D3",
            "ticks": 8530,
            "time": 44.427083333333336,
            "velocity": 1
          },
          {
            "duration": 0.09375,
            "durationTicks": 18,
            "midi": 46,
            "name": "A#2",
            "ticks": 8634,
            "time": 44.96875,
            "velocity": 1
          },
          {
            "duration": 0.0989583333333357,
            "durationTicks": 19,
            "midi": 48,
            "name": "C3",
            "ticks": 8708,
            "time": 45.354166666666664,
            "velocity": 1
          },
          {
            "duration": 0.0833333333333357,
            "durationTicks": 16,
            "midi": 46,
            "name": "A#2",
            "ticks": 8786,
            "time": 45.760416666666664,
            "velocity": 1
          },
          {
            "duration": 0.0729166666666643,
            "durationTicks": 14,
            "midi": 48,
            "name": "C3",
            "ticks": 8866,
            "time": 46.177083333333336,
            "velocity": 1
          },
          {
            "duration": 0.109375,
            "durationTicks": 21,
            "midi": 46,
            "name": "A#2",
            "ticks": 8932,
            "time": 46.520833333333336,
            "velocity": 1
          },
          {
            "duration": 0.0677083333333357,
            "durationTicks": 13,
            "midi": 48,
            "name": "C3",
            "ticks": 9006,
            "time": 46.90625,
            "velocity": 1
          },
          {
            "duration": 0.078125,
            "durationTicks": 15,
            "midi": 46,
            "name": "A#2",
            "ticks": 9072,
            "time": 47.25,
            "velocity": 1
          },
          {
            "duration": 0.0729166666666714,
            "durationTicks": 14,
            "midi": 50,
            "name": "D3",
            "ticks": 9104,
            "time": 47.416666666666664,
            "velocity": 1
          },
          {
            "duration": 0.0729166666666714,
            "durationTicks": 14,
            "midi": 46,
            "name": "A#2",
            "ticks": 9218,
            "time": 48.010416666666664,
            "velocity": 1
          },
          {
            "duration": 0.0625,
            "durationTicks": 12,
            "midi": 48,
            "name": "C3",
            "ticks": 9309,
            "time": 48.484375,
            "velocity": 1
          },
          {
            "duration": 0.078125,
            "durationTicks": 15,
            "midi": 46,
            "name": "A#2",
            "ticks": 9385,
            "time": 48.880208333333336,
            "velocity": 1
          },
          {
            "duration": 0.0625,
            "durationTicks": 12,
            "midi": 48,
            "name": "C3",
            "ticks": 9469,
            "time": 49.317708333333336,
            "velocity": 1
          },
          {
            "duration": 0.0885416666666643,
            "durationTicks": 17,
            "midi": 46,
            "name": "A#2",
            "ticks": 9541,
            "time": 49.692708333333336,
            "velocity": 1
          },
          {
            "duration": 0.0677083333333357,
            "durationTicks": 13,
            "midi": 48,
            "name": "C3",
            "ticks": 9620,
            "time": 50.104166666666664,
            "velocity": 1
          },
          {
            "duration": 0.078125,
            "durationTicks": 15,
            "midi": 46,
            "name": "A#2",
            "ticks": 9694,
            "time": 50.489583333333336,
            "velocity": 1
          },
          {
            "duration": 0.0677083333333357,
            "durationTicks": 13,
            "midi": 52,
            "name": "E3",
            "ticks": 9726,
            "time": 50.65625,
            "velocity": 1
          },
          {
            "duration": 0.0729166666666643,
            "durationTicks": 14,
            "midi": 48,
            "name": "C3",
            "ticks": 9910,
            "time": 51.614583333333336,
            "velocity": 1
          },
          {
            "duration": 0.0729166666666643,
            "durationTicks": 14,
            "midi": 46,
            "name": "A#2",
            "ticks": 9994,
            "time": 52.052083333333336,
            "velocity": 1
          },
          {
            "duration": 0.0625,
            "durationTicks": 12,
            "midi": 48,
            "name": "C3",
            "ticks": 10072,
            "time": 52.458333333333336,
            "velocity": 1
          },
          {
            "duration": 0.0885416666666714,
            "durationTicks": 17,
            "midi": 46,
            "name": "A#2",
            "ticks": 10145,
            "time": 52.838541666666664,
            "velocity": 1
          },
          {
            "duration": 0.0520833333333357,
            "durationTicks": 10,
            "midi": 48,
            "name": "C3",
            "ticks": 10221,
            "time": 53.234375,
            "velocity": 1
          },
          {
            "duration": 0.078125,
            "durationTicks": 15,
            "midi": 46,
            "name": "A#2",
            "ticks": 10295,
            "time": 53.619791666666664,
            "velocity": 1
          },
          {
            "duration": 0.0729166666666714,
            "durationTicks": 14,
            "midi": 50,
            "name": "D3",
            "ticks": 10337,
            "time": 53.838541666666664,
            "velocity": 1
          },
          {
            "duration": 0.03125,
            "durationTicks": 6,
            "midi": 40,
            "name": "E2",
            "ticks": 10485,
            "time": 54.609375,
            "velocity": 1
          },
          {
            "duration": 0.0572916666666643,
            "durationTicks": 11,
            "midi": 46,
            "name": "A#2",
            "ticks": 10486,
            "time": 54.614583333333336,
            "velocity": 1
          },
          {
            "duration": 0.0729166666666714,
            "durationTicks": 14,
            "midi": 48,
            "name": "C3",
            "ticks": 10544,
            "time": 54.916666666666664,
            "velocity": 1
          },
          {
            "duration": 0.078125,
            "durationTicks": 15,
            "midi": 46,
            "name": "A#2",
            "ticks": 10623,
            "time": 55.328125,
            "velocity": 1
          },
          {
            "duration": 0.0677083333333286,
            "durationTicks": 13,
            "midi": 48,
            "name": "C3",
            "ticks": 10696,
            "time": 55.708333333333336,
            "velocity": 1
          },
          {
            "duration": 0.0833333333333357,
            "durationTicks": 16,
            "midi": 46,
            "name": "A#2",
            "ticks": 10770,
            "time": 56.09375,
            "velocity": 1
          },
          {
            "duration": 0.0677083333333286,
            "durationTicks": 13,
            "midi": 48,
            "name": "C3",
            "ticks": 10852,
            "time": 56.520833333333336,
            "velocity": 1
          },
          {
            "duration": 0.078125,
            "durationTicks": 15,
            "midi": 46,
            "name": "A#2",
            "ticks": 10921,
            "time": 56.880208333333336,
            "velocity": 1
          },
          {
            "duration": 0.0677083333333357,
            "durationTicks": 13,
            "midi": 52,
            "name": "E3",
            "ticks": 10959,
            "time": 57.078125,
            "velocity": 1
          },
          {
            "duration": 0.0729166666666714,
            "durationTicks": 14,
            "midi": 48,
            "name": "C3",
            "ticks": 11144,
            "time": 58.041666666666664,
            "velocity": 1
          },
          {
            "duration": 0.0833333333333357,
            "durationTicks": 16,
            "midi": 46,
            "name": "A#2",
            "ticks": 11217,
            "time": 58.421875,
            "velocity": 1
          },
          {
            "duration": 0.0833333333333357,
            "durationTicks": 16,
            "midi": 48,
            "name": "C3",
            "ticks": 11289,
            "time": 58.796875,
            "velocity": 1
          },
          {
            "duration": 0.0833333333333357,
            "durationTicks": 16,
            "midi": 46,
            "name": "A#2",
            "ticks": 11372,
            "time": 59.229166666666664,
            "velocity": 1
          },
          {
            "duration": 0.0833333333333357,
            "durationTicks": 16,
            "midi": 48,
            "name": "C3",
            "ticks": 11445,
            "time": 59.609375,
            "velocity": 1
          },
          {
            "duration": 0.078125,
            "durationTicks": 15,
            "midi": 46,
            "name": "A#2",
            "ticks": 11522,
            "time": 60.010416666666664,
            "velocity": 1
          },
          {
            "duration": 0.0625,
            "durationTicks": 12,
            "midi": 50,
            "name": "D3",
            "ticks": 11562,
            "time": 60.21875,
            "velocity": 1
          },
          {
            "duration": 0.0885416666666714,
            "durationTicks": 17,
            "midi": 46,
            "name": "A#2",
            "ticks": 11693,
            "time": 60.901041666666664,
            "velocity": 1
          },
          {
            "duration": 0.0625,
            "durationTicks": 12,
            "midi": 48,
            "name": "C3",
            "ticks": 11769,
            "time": 61.296875,
            "velocity": 1
          },
          {
            "duration": 0.0833333333333357,
            "durationTicks": 16,
            "midi": 46,
            "name": "A#2",
            "ticks": 11846,
            "time": 61.697916666666664,
            "velocity": 1
          },
          {
            "duration": 0.0833333333333286,
            "durationTicks": 16,
            "midi": 48,
            "name": "C3",
            "ticks": 11917,
            "time": 62.067708333333336,
            "velocity": 1
          },
          {
            "duration": 0.0989583333333286,
            "durationTicks": 19,
            "midi": 46,
            "name": "A#2",
            "ticks": 11992,
            "time": 62.458333333333336,
            "velocity": 1
          },
          {
            "duration": 0.046875,
            "durationTicks": 9,
            "midi": 48,
            "name": "C3",
            "ticks": 12071,
            "time": 62.869791666666664,
            "velocity": 1
          },
          {
            "duration": 0.109375,
            "durationTicks": 21,
            "midi": 46,
            "name": "A#2",
            "ticks": 12141,
            "time": 63.234375,
            "velocity": 1
          },
          {
            "duration": 0.0833333333333357,
            "durationTicks": 16,
            "midi": 48,
            "name": "C3",
            "ticks": 12224,
            "time": 63.666666666666664,
            "velocity": 1
          },
          {
            "duration": 0.06770833333334281,
            "durationTicks": 13,
            "midi": 40,
            "name": "E2",
            "ticks": 12352,
            "time": 64.33333333333333,
            "velocity": 1
          },
          {
            "duration": 0.0729166666666714,
            "durationTicks": 14,
            "midi": 42,
            "name": "F#2",
            "ticks": 12376,
            "time": 64.45833333333333,
            "velocity": 1
          },
          {
            "duration": 0.026041666666671404,
            "durationTicks": 5,
            "midi": 37,
            "name": "C#2",
            "ticks": 12412,
            "time": 64.64583333333333,
            "velocity": 1
          },
          {
            "duration": 0.078125,
            "durationTicks": 15,
            "midi": 40,
            "name": "E2",
            "ticks": 12414,
            "time": 64.65625,
            "velocity": 1
          },
          {
            "duration": 0.0729166666666714,
            "durationTicks": 14,
            "midi": 40,
            "name": "E2",
            "ticks": 12495,
            "time": 65.078125,
            "velocity": 1
          },
          {
            "duration": 0.1354166666666714,
            "durationTicks": 26,
            "midi": 42,
            "name": "F#2",
            "ticks": 12538,
            "time": 65.30208333333333,
            "velocity": 1
          },
          {
            "duration": 0.0833333333333286,
            "durationTicks": 16,
            "midi": 40,
            "name": "E2",
            "ticks": 12572,
            "time": 65.47916666666667,
            "velocity": 1
          },
          {
            "duration": 0.078125,
            "durationTicks": 15,
            "midi": 40,
            "name": "E2",
            "ticks": 12626,
            "time": 65.76041666666667,
            "velocity": 1
          },
          {
            "duration": 0.07291666666665719,
            "durationTicks": 14,
            "midi": 40,
            "name": "E2",
            "ticks": 12680,
            "time": 66.04166666666667,
            "velocity": 1
          },
          {
            "duration": 0.0989583333333286,
            "durationTicks": 19,
            "midi": 42,
            "name": "F#2",
            "ticks": 12701,
            "time": 66.15104166666667,
            "velocity": 1
          },
          {
            "duration": 0.09375,
            "durationTicks": 18,
            "midi": 40,
            "name": "E2",
            "ticks": 12739,
            "time": 66.34895833333333,
            "velocity": 1
          },
          {
            "duration": 0.0833333333333286,
            "durationTicks": 16,
            "midi": 40,
            "name": "E2",
            "ticks": 12779,
            "time": 66.55729166666667,
            "velocity": 1
          },
          {
            "duration": 0.0677083333333286,
            "durationTicks": 13,
            "midi": 42,
            "name": "F#2",
            "ticks": 12816,
            "time": 66.75,
            "velocity": 1
          },
          {
            "duration": 0.057291666666671404,
            "durationTicks": 11,
            "midi": 42,
            "name": "F#2",
            "ticks": 12853,
            "time": 66.94270833333333,
            "velocity": 1
          },
          {
            "duration": 0.07291666666665719,
            "durationTicks": 14,
            "midi": 42,
            "name": "F#2",
            "ticks": 12887,
            "time": 67.11979166666667,
            "velocity": 1
          },
          {
            "duration": 0.0989583333333286,
            "durationTicks": 19,
            "midi": 40,
            "name": "E2",
            "ticks": 12921,
            "time": 67.296875,
            "velocity": 1
          },
          {
            "duration": 0.078125,
            "durationTicks": 15,
            "midi": 40,
            "name": "E2",
            "ticks": 12981,
            "time": 67.609375,
            "velocity": 1
          },
          {
            "duration": 0.08333333333334281,
            "durationTicks": 16,
            "midi": 42,
            "name": "F#2",
            "ticks": 13000,
            "time": 67.70833333333333,
            "velocity": 1
          },
          {
            "duration": 0.09895833333334281,
            "durationTicks": 19,
            "midi": 40,
            "name": "E2",
            "ticks": 13036,
            "time": 67.89583333333333,
            "velocity": 1
          },
          {
            "duration": 0.109375,
            "durationTicks": 21,
            "midi": 40,
            "name": "E2",
            "ticks": 13109,
            "time": 68.27604166666667,
            "velocity": 1
          },
          {
            "duration": 0.109375,
            "durationTicks": 21,
            "midi": 42,
            "name": "F#2",
            "ticks": 13146,
            "time": 68.46875,
            "velocity": 1
          },
          {
            "duration": 0.06770833333334281,
            "durationTicks": 13,
            "midi": 40,
            "name": "E2",
            "ticks": 13180,
            "time": 68.64583333333333,
            "velocity": 1
          },
          {
            "duration": 0.09375,
            "durationTicks": 18,
            "midi": 40,
            "name": "E2",
            "ticks": 13223,
            "time": 68.86979166666667,
            "velocity": 1
          },
          {
            "duration": 0.0729166666666714,
            "durationTicks": 14,
            "midi": 40,
            "name": "E2",
            "ticks": 13273,
            "time": 69.13020833333333,
            "velocity": 1
          },
          {
            "duration": 0.0885416666666714,
            "durationTicks": 17,
            "midi": 42,
            "name": "F#2",
            "ticks": 13297,
            "time": 69.25520833333333,
            "velocity": 1
          },
          {
            "duration": 0.0885416666666714,
            "durationTicks": 17,
            "midi": 40,
            "name": "E2",
            "ticks": 13335,
            "time": 69.453125,
            "velocity": 1
          },
          {
            "duration": 0.0729166666666714,
            "durationTicks": 14,
            "midi": 42,
            "name": "F#2",
            "ticks": 13411,
            "time": 69.84895833333333,
            "velocity": 1
          },
          {
            "duration": 0.05729166666665719,
            "durationTicks": 11,
            "midi": 42,
            "name": "F#2",
            "ticks": 13451,
            "time": 70.05729166666667,
            "velocity": 1
          },
          {
            "duration": 0.041666666666671404,
            "durationTicks": 8,
            "midi": 42,
            "name": "F#2",
            "ticks": 13497,
            "time": 70.296875,
            "velocity": 1
          },
          {
            "duration": 0.09895833333334281,
            "durationTicks": 19,
            "midi": 40,
            "name": "E2",
            "ticks": 13531,
            "time": 70.47395833333333,
            "velocity": 1
          },
          {
            "duration": 0.0833333333333286,
            "durationTicks": 16,
            "midi": 40,
            "name": "E2",
            "ticks": 13581,
            "time": 70.734375,
            "velocity": 1
          },
          {
            "duration": 0.0833333333333286,
            "durationTicks": 16,
            "midi": 42,
            "name": "F#2",
            "ticks": 13605,
            "time": 70.859375,
            "velocity": 1
          },
          {
            "duration": 0.1041666666666714,
            "durationTicks": 20,
            "midi": 40,
            "name": "E2",
            "ticks": 13636,
            "time": 71.02083333333333,
            "velocity": 1
          },
          {
            "duration": 0.09375,
            "durationTicks": 18,
            "midi": 40,
            "name": "E2",
            "ticks": 13722,
            "time": 71.46875,
            "velocity": 1
          },
          {
            "duration": 0.0989583333333286,
            "durationTicks": 19,
            "midi": 42,
            "name": "F#2",
            "ticks": 13757,
            "time": 71.65104166666667,
            "velocity": 1
          },
          {
            "duration": 0.10416666666665719,
            "durationTicks": 20,
            "midi": 40,
            "name": "E2",
            "ticks": 13823,
            "time": 71.99479166666667,
            "velocity": 1
          },
          {
            "duration": 0.078125,
            "durationTicks": 15,
            "midi": 40,
            "name": "E2",
            "ticks": 13882,
            "time": 72.30208333333333,
            "velocity": 1
          },
          {
            "duration": 0.09375,
            "durationTicks": 18,
            "midi": 42,
            "name": "F#2",
            "ticks": 13908,
            "time": 72.4375,
            "velocity": 1
          },
          {
            "duration": 0.078125,
            "durationTicks": 15,
            "midi": 40,
            "name": "E2",
            "ticks": 13947,
            "time": 72.640625,
            "velocity": 1
          },
          {
            "duration": 0.026041666666671404,
            "durationTicks": 5,
            "midi": 42,
            "name": "F#2",
            "ticks": 14026,
            "time": 73.05208333333333,
            "velocity": 1
          },
          {
            "duration": 0.0625,
            "durationTicks": 12,
            "midi": 42,
            "name": "F#2",
            "ticks": 14056,
            "time": 73.20833333333333,
            "velocity": 1
          },
          {
            "duration": 0.041666666666671404,
            "durationTicks": 8,
            "midi": 40,
            "name": "E2",
            "ticks": 14136,
            "time": 73.625,
            "velocity": 1
          },
          {
            "duration": 0.0833333333333286,
            "durationTicks": 16,
            "midi": 40,
            "name": "E2",
            "ticks": 14192,
            "time": 73.91666666666667,
            "velocity": 1
          },
          {
            "duration": 0.0833333333333286,
            "durationTicks": 16,
            "midi": 42,
            "name": "F#2",
            "ticks": 14216,
            "time": 74.04166666666667,
            "velocity": 1
          },
          {
            "duration": 0.0989583333333286,
            "durationTicks": 19,
            "midi": 40,
            "name": "E2",
            "ticks": 14253,
            "time": 74.234375,
            "velocity": 1
          },
          {
            "duration": 0.10416666666665719,
            "durationTicks": 20,
            "midi": 40,
            "name": "E2",
            "ticks": 14336,
            "time": 74.66666666666667,
            "velocity": 1
          },
          {
            "duration": 0.1145833333333286,
            "durationTicks": 22,
            "midi": 42,
            "name": "F#2",
            "ticks": 14370,
            "time": 74.84375,
            "velocity": 1
          },
          {
            "duration": 0.0989583333333286,
            "durationTicks": 19,
            "midi": 40,
            "name": "E2",
            "ticks": 14450,
            "time": 75.26041666666667,
            "velocity": 1
          },
          {
            "duration": 0.078125,
            "durationTicks": 15,
            "midi": 40,
            "name": "E2",
            "ticks": 14507,
            "time": 75.55729166666667,
            "velocity": 1
          },
          {
            "duration": 0.046875,
            "durationTicks": 9,
            "midi": 42,
            "name": "F#2",
            "ticks": 14529,
            "time": 75.671875,
            "velocity": 1
          },
          {
            "duration": 0.05729166666665719,
            "durationTicks": 11,
            "midi": 42,
            "name": "F#2",
            "ticks": 14540,
            "time": 75.72916666666667,
            "velocity": 1
          },
          {
            "duration": 0.0729166666666714,
            "durationTicks": 14,
            "midi": 40,
            "name": "E2",
            "ticks": 14565,
            "time": 75.859375,
            "velocity": 1
          },
          {
            "duration": 0.057291666666671404,
            "durationTicks": 11,
            "midi": 40,
            "name": "E2",
            "ticks": 14607,
            "time": 76.078125,
            "velocity": 1
          },
          {
            "duration": 0.03125,
            "durationTicks": 6,
            "midi": 42,
            "name": "F#2",
            "ticks": 14646,
            "time": 76.28125,
            "velocity": 1
          },
          {
            "duration": 0.05729166666665719,
            "durationTicks": 11,
            "midi": 42,
            "name": "F#2",
            "ticks": 14678,
            "time": 76.44791666666667,
            "velocity": 1
          },
          {
            "duration": 0.015625,
            "durationTicks": 3,
            "midi": 42,
            "name": "F#2",
            "ticks": 14714,
            "time": 76.63541666666667,
            "velocity": 1
          },
          {
            "duration": 0.07291666666665719,
            "durationTicks": 14,
            "midi": 40,
            "name": "E2",
            "ticks": 14771,
            "time": 76.93229166666667,
            "velocity": 1
          },
          {
            "duration": 0.078125,
            "durationTicks": 15,
            "midi": 40,
            "name": "E2",
            "ticks": 14825,
            "time": 77.21354166666667,
            "velocity": 1
          },
          {
            "duration": 0.0833333333333286,
            "durationTicks": 16,
            "midi": 42,
            "name": "F#2",
            "ticks": 14846,
            "time": 77.32291666666667,
            "velocity": 1
          },
          {
            "duration": 0.0833333333333286,
            "durationTicks": 16,
            "midi": 40,
            "name": "E2",
            "ticks": 14880,
            "time": 77.5,
            "velocity": 1
          },
          {
            "duration": 0.08333333333334281,
            "durationTicks": 16,
            "midi": 40,
            "name": "E2",
            "ticks": 14962,
            "time": 77.92708333333333,
            "velocity": 1
          },
          {
            "duration": 0.1666666666666572,
            "durationTicks": 32,
            "midi": 42,
            "name": "F#2",
            "ticks": 14999,
            "time": 78.11979166666667,
            "velocity": 1
          },
          {
            "duration": 0.1041666666666714,
            "durationTicks": 20,
            "midi": 40,
            "name": "E2",
            "ticks": 15072,
            "time": 78.5,
            "velocity": 1
          },
          {
            "duration": 0.078125,
            "durationTicks": 15,
            "midi": 40,
            "name": "E2",
            "ticks": 15133,
            "time": 78.81770833333333,
            "velocity": 1
          },
          {
            "duration": 0.1041666666666714,
            "durationTicks": 20,
            "midi": 42,
            "name": "F#2",
            "ticks": 15157,
            "time": 78.94270833333333,
            "velocity": 1
          },
          {
            "duration": 0.09375,
            "durationTicks": 18,
            "midi": 40,
            "name": "E2",
            "ticks": 15195,
            "time": 79.140625,
            "velocity": 1
          },
          {
            "duration": 0.06770833333334281,
            "durationTicks": 13,
            "midi": 42,
            "name": "F#2",
            "ticks": 15277,
            "time": 79.56770833333333,
            "velocity": 1
          },
          {
            "duration": 0.0625,
            "durationTicks": 12,
            "midi": 42,
            "name": "F#2",
            "ticks": 15318,
            "time": 79.78125,
            "velocity": 1
          },
          {
            "duration": 0.0677083333333286,
            "durationTicks": 13,
            "midi": 42,
            "name": "F#2",
            "ticks": 15353,
            "time": 79.96354166666667,
            "velocity": 1
          },
          {
            "duration": 0.1041666666666714,
            "durationTicks": 20,
            "midi": 40,
            "name": "E2",
            "ticks": 15394,
            "time": 80.17708333333333,
            "velocity": 1
          },
          {
            "duration": 0.07291666666665719,
            "durationTicks": 14,
            "midi": 40,
            "name": "E2",
            "ticks": 15449,
            "time": 80.46354166666667,
            "velocity": 1
          },
          {
            "duration": 0.09375,
            "durationTicks": 18,
            "midi": 42,
            "name": "F#2",
            "ticks": 15470,
            "time": 80.57291666666667,
            "velocity": 1
          },
          {
            "duration": 0.0833333333333286,
            "durationTicks": 16,
            "midi": 40,
            "name": "E2",
            "ticks": 15512,
            "time": 80.79166666666667,
            "velocity": 1
          },
          {
            "duration": 0.1041666666666714,
            "durationTicks": 20,
            "midi": 40,
            "name": "E2",
            "ticks": 15582,
            "time": 81.15625,
            "velocity": 1
          },
          {
            "duration": 0.0677083333333286,
            "durationTicks": 13,
            "midi": 42,
            "name": "F#2",
            "ticks": 15611,
            "time": 81.30729166666667,
            "velocity": 1
          },
          {
            "duration": 0.0677083333333286,
            "durationTicks": 13,
            "midi": 40,
            "name": "E2",
            "ticks": 15648,
            "time": 81.5,
            "velocity": 1
          },
          {
            "duration": 0.09895833333334281,
            "durationTicks": 19,
            "midi": 40,
            "name": "E2",
            "ticks": 15685,
            "time": 81.69270833333333,
            "velocity": 1
          },
          {
            "duration": 0.015625,
            "durationTicks": 3,
            "midi": 40,
            "name": "E2",
            "ticks": 15794,
            "time": 82.26041666666667,
            "velocity": 1
          },
          {
            "duration": 0.046875,
            "durationTicks": 9,
            "midi": 40,
            "name": "E2",
            "ticks": 15798,
            "time": 82.28125,
            "velocity": 1
          },
          {
            "duration": 0.09375,
            "durationTicks": 18,
            "midi": 40,
            "name": "E2",
            "ticks": 15830,
            "time": 82.44791666666667,
            "velocity": 1
          },
          {
            "duration": 0.0885416666666714,
            "durationTicks": 17,
            "midi": 40,
            "name": "E2",
            "ticks": 15988,
            "time": 83.27083333333333,
            "velocity": 1
          },
          {
            "duration": 0.0989583333333286,
            "durationTicks": 19,
            "midi": 40,
            "name": "E2",
            "ticks": 16101,
            "time": 83.859375,
            "velocity": 1
          },
          {
            "duration": 0.109375,
            "durationTicks": 21,
            "midi": 40,
            "name": "E2",
            "ticks": 16134,
            "time": 84.03125,
            "velocity": 1
          },
          {
            "duration": 0.0833333333333286,
            "durationTicks": 16,
            "midi": 48,
            "name": "C3",
            "ticks": 16281,
            "time": 84.796875,
            "velocity": 1
          },
          {
            "duration": 0.0833333333333286,
            "durationTicks": 16,
            "midi": 46,
            "name": "A#2",
            "ticks": 16283,
            "time": 84.80729166666667,
            "velocity": 1
          },
          {
            "duration": 0.0885416666666714,
            "durationTicks": 17,
            "midi": 48,
            "name": "C3",
            "ticks": 16371,
            "time": 85.265625,
            "velocity": 1
          },
          {
            "duration": 0.09375,
            "durationTicks": 18,
            "midi": 46,
            "name": "A#2",
            "ticks": 16441,
            "time": 85.63020833333333,
            "velocity": 1
          },
          {
            "duration": 0.0885416666666714,
            "durationTicks": 17,
            "midi": 48,
            "name": "C3",
            "ticks": 16521,
            "time": 86.046875,
            "velocity": 1
          },
          {
            "duration": 0.015625,
            "durationTicks": 3,
            "midi": 46,
            "name": "A#2",
            "ticks": 16597,
            "time": 86.44270833333333,
            "velocity": 1
          },
          {
            "duration": 0.1041666666666714,
            "durationTicks": 20,
            "midi": 48,
            "name": "C3",
            "ticks": 16674,
            "time": 86.84375,
            "velocity": 1
          },
          {
            "duration": 0.09375,
            "durationTicks": 18,
            "midi": 46,
            "name": "A#2",
            "ticks": 16751,
            "time": 87.24479166666667,
            "velocity": 1
          },
          {
            "duration": 0.06770833333334281,
            "durationTicks": 13,
            "midi": 50,
            "name": "D3",
            "ticks": 16786,
            "time": 87.42708333333333,
            "velocity": 1
          },
          {
            "duration": 0.0833333333333286,
            "durationTicks": 16,
            "midi": 46,
            "name": "A#2",
            "ticks": 16907,
            "time": 88.05729166666667,
            "velocity": 1
          },
          {
            "duration": 0.0729166666666714,
            "durationTicks": 14,
            "midi": 48,
            "name": "C3",
            "ticks": 16983,
            "time": 88.453125,
            "velocity": 1
          },
          {
            "duration": 0.078125,
            "durationTicks": 15,
            "midi": 46,
            "name": "A#2",
            "ticks": 17059,
            "time": 88.84895833333333,
            "velocity": 1
          },
          {
            "duration": 0.0885416666666714,
            "durationTicks": 17,
            "midi": 48,
            "name": "C3",
            "ticks": 17133,
            "time": 89.234375,
            "velocity": 1
          },
          {
            "duration": 0.04166666666665719,
            "durationTicks": 8,
            "midi": 46,
            "name": "A#2",
            "ticks": 17216,
            "time": 89.66666666666667,
            "velocity": 1
          },
          {
            "duration": 0.078125,
            "durationTicks": 15,
            "midi": 48,
            "name": "C3",
            "ticks": 17290,
            "time": 90.05208333333333,
            "velocity": 1
          },
          {
            "duration": 0.08854166666665719,
            "durationTicks": 17,
            "midi": 46,
            "name": "A#2",
            "ticks": 17363,
            "time": 90.43229166666667,
            "velocity": 1
          },
          {
            "duration": 0.07291666666665719,
            "durationTicks": 14,
            "midi": 50,
            "name": "D3",
            "ticks": 17399,
            "time": 90.61979166666667,
            "velocity": 1
          },
          {
            "duration": 0.0625,
            "durationTicks": 12,
            "midi": 46,
            "name": "A#2",
            "ticks": 17508,
            "time": 91.1875,
            "velocity": 1
          },
          {
            "duration": 0.0677083333333286,
            "durationTicks": 13,
            "midi": 48,
            "name": "C3",
            "ticks": 17588,
            "time": 91.60416666666667,
            "velocity": 1
          },
          {
            "duration": 0.0833333333333286,
            "durationTicks": 16,
            "midi": 46,
            "name": "A#2",
            "ticks": 17667,
            "time": 92.015625,
            "velocity": 1
          },
          {
            "duration": 0.0729166666666714,
            "durationTicks": 14,
            "midi": 48,
            "name": "C3",
            "ticks": 17739,
            "time": 92.390625,
            "velocity": 1
          },
          {
            "duration": 0.0677083333333286,
            "durationTicks": 13,
            "midi": 46,
            "name": "A#2",
            "ticks": 17820,
            "time": 92.8125,
            "velocity": 1
          },
          {
            "duration": 0.0625,
            "durationTicks": 12,
            "midi": 48,
            "name": "C3",
            "ticks": 17894,
            "time": 93.19791666666667,
            "velocity": 1
          },
          {
            "duration": 0.078125,
            "durationTicks": 15,
            "midi": 46,
            "name": "A#2",
            "ticks": 17963,
            "time": 93.55729166666667,
            "velocity": 1
          },
          {
            "duration": 0.0729166666666714,
            "durationTicks": 14,
            "midi": 50,
            "name": "D3",
            "ticks": 17997,
            "time": 93.734375,
            "velocity": 1
          },
          {
            "duration": 0.0833333333333286,
            "durationTicks": 16,
            "midi": 46,
            "name": "A#2",
            "ticks": 18116,
            "time": 94.35416666666667,
            "velocity": 1
          },
          {
            "duration": 0.0625,
            "durationTicks": 12,
            "midi": 48,
            "name": "C3",
            "ticks": 18199,
            "time": 94.78645833333333,
            "velocity": 1
          },
          {
            "duration": 0.078125,
            "durationTicks": 15,
            "midi": 46,
            "name": "A#2",
            "ticks": 18274,
            "time": 95.17708333333333,
            "velocity": 1
          },
          {
            "duration": 0.06770833333334281,
            "durationTicks": 13,
            "midi": 48,
            "name": "C3",
            "ticks": 18355,
            "time": 95.59895833333333,
            "velocity": 1
          },
          {
            "duration": 0.0833333333333286,
            "durationTicks": 16,
            "midi": 46,
            "name": "A#2",
            "ticks": 18428,
            "time": 95.97916666666667,
            "velocity": 1
          },
          {
            "duration": 0.0677083333333286,
            "durationTicks": 13,
            "midi": 48,
            "name": "C3",
            "ticks": 18507,
            "time": 96.390625,
            "velocity": 1
          },
          {
            "duration": 0.057291666666671404,
            "durationTicks": 11,
            "midi": 52,
            "name": "E3",
            "ticks": 18621,
            "time": 96.984375,
            "velocity": 1
          },
          {
            "duration": 0.0625,
            "durationTicks": 12,
            "midi": 48,
            "name": "C3",
            "ticks": 18812,
            "time": 97.97916666666667,
            "velocity": 1
          },
          {
            "duration": 0.1041666666666714,
            "durationTicks": 20,
            "midi": 46,
            "name": "A#2",
            "ticks": 18888,
            "time": 98.375,
            "velocity": 1
          },
          {
            "duration": 0.0677083333333286,
            "durationTicks": 13,
            "midi": 48,
            "name": "C3",
            "ticks": 18972,
            "time": 98.8125,
            "velocity": 1
          },
          {
            "duration": 0.09375,
            "durationTicks": 18,
            "midi": 46,
            "name": "A#2",
            "ticks": 19049,
            "time": 99.21354166666667,
            "velocity": 1
          },
          {
            "duration": 0.0729166666666714,
            "durationTicks": 14,
            "midi": 48,
            "name": "C3",
            "ticks": 19126,
            "time": 99.61458333333333,
            "velocity": 1
          },
          {
            "duration": 0.0677083333333286,
            "durationTicks": 13,
            "midi": 46,
            "name": "A#2",
            "ticks": 19206,
            "time": 100.03125,
            "velocity": 1
          },
          {
            "duration": 0.06770833333334281,
            "durationTicks": 13,
            "midi": 50,
            "name": "D3",
            "ticks": 19243,
            "time": 100.22395833333333,
            "velocity": 1
          },
          {
            "duration": 0.06770833333334281,
            "durationTicks": 13,
            "midi": 46,
            "name": "A#2",
            "ticks": 19375,
            "time": 100.91145833333333,
            "velocity": 1
          },
          {
            "duration": 0.057291666666671404,
            "durationTicks": 11,
            "midi": 48,
            "name": "C3",
            "ticks": 19444,
            "time": 101.27083333333333,
            "velocity": 1
          },
          {
            "duration": 0.0729166666666714,
            "durationTicks": 14,
            "midi": 46,
            "name": "A#2",
            "ticks": 19516,
            "time": 101.64583333333333,
            "velocity": 1
          },
          {
            "duration": 0.0677083333333286,
            "durationTicks": 13,
            "midi": 48,
            "name": "C3",
            "ticks": 19589,
            "time": 102.02604166666667,
            "velocity": 1
          },
          {
            "duration": 0.08854166666665719,
            "durationTicks": 17,
            "midi": 46,
            "name": "A#2",
            "ticks": 19670,
            "time": 102.44791666666667,
            "velocity": 1
          },
          {
            "duration": 0.0625,
            "durationTicks": 12,
            "midi": 48,
            "name": "C3",
            "ticks": 19739,
            "time": 102.80729166666667,
            "velocity": 1
          },
          {
            "duration": 0.08333333333334281,
            "durationTicks": 16,
            "midi": 46,
            "name": "A#2",
            "ticks": 19819,
            "time": 103.22395833333333,
            "velocity": 1
          },
          {
            "duration": 0.0729166666666714,
            "durationTicks": 14,
            "midi": 52,
            "name": "E3",
            "ticks": 19852,
            "time": 103.39583333333333,
            "velocity": 1
          },
          {
            "duration": 0.06770833333334281,
            "durationTicks": 13,
            "midi": 48,
            "name": "C3",
            "ticks": 20047,
            "time": 104.41145833333333,
            "velocity": 1
          },
          {
            "duration": 0.057291666666671404,
            "durationTicks": 11,
            "midi": 46,
            "name": "A#2",
            "ticks": 20122,
            "time": 104.80208333333333,
            "velocity": 1
          },
          {
            "duration": 0.0729166666666714,
            "durationTicks": 14,
            "midi": 48,
            "name": "C3",
            "ticks": 20203,
            "time": 105.22395833333333,
            "velocity": 1
          },
          {
            "duration": 0.0833333333333286,
            "durationTicks": 16,
            "midi": 46,
            "name": "A#2",
            "ticks": 20279,
            "time": 105.61979166666667,
            "velocity": 1
          },
          {
            "duration": 0.057291666666671404,
            "durationTicks": 11,
            "midi": 48,
            "name": "C3",
            "ticks": 20359,
            "time": 106.03645833333333,
            "velocity": 1
          },
          {
            "duration": 0.078125,
            "durationTicks": 15,
            "midi": 46,
            "name": "A#2",
            "ticks": 20429,
            "time": 106.40104166666667,
            "velocity": 1
          },
          {
            "duration": 0.0625,
            "durationTicks": 12,
            "midi": 50,
            "name": "D3",
            "ticks": 20473,
            "time": 106.63020833333333,
            "velocity": 1
          },
          {
            "duration": 0.0625,
            "durationTicks": 12,
            "midi": 46,
            "name": "A#2",
            "ticks": 20595,
            "time": 107.265625,
            "velocity": 1
          },
          {
            "duration": 0.0677083333333286,
            "durationTicks": 13,
            "midi": 48,
            "name": "C3",
            "ticks": 20667,
            "time": 107.640625,
            "velocity": 1
          },
          {
            "duration": 0.07291666666665719,
            "durationTicks": 14,
            "midi": 46,
            "name": "A#2",
            "ticks": 20741,
            "time": 108.02604166666667,
            "velocity": 1
          },
          {
            "duration": 0.052083333333328596,
            "durationTicks": 10,
            "midi": 48,
            "name": "C3",
            "ticks": 20811,
            "time": 108.390625,
            "velocity": 1
          },
          {
            "duration": 0.08333333333334281,
            "durationTicks": 16,
            "midi": 46,
            "name": "A#2",
            "ticks": 20890,
            "time": 108.80208333333333,
            "velocity": 1
          },
          {
            "duration": 0.08854166666665719,
            "durationTicks": 17,
            "midi": 48,
            "name": "C3",
            "ticks": 20966,
            "time": 109.19791666666667,
            "velocity": 1
          },
          {
            "duration": 0.09375,
            "durationTicks": 18,
            "midi": 46,
            "name": "A#2",
            "ticks": 21045,
            "time": 109.609375,
            "velocity": 1
          },
          {
            "duration": 0.0625,
            "durationTicks": 12,
            "midi": 48,
            "name": "C3",
            "ticks": 21119,
            "time": 109.99479166666667,
            "velocity": 1
          },
          {
            "duration": 0.057291666666671404,
            "durationTicks": 11,
            "midi": 45,
            "name": "A2",
            "ticks": 21274,
            "time": 110.80208333333333,
            "velocity": 1
          },
          {
            "duration": 0.0677083333333286,
            "durationTicks": 13,
            "midi": 47,
            "name": "B2",
            "ticks": 21435,
            "time": 111.640625,
            "velocity": 1
          },
          {
            "duration": 0.0729166666666714,
            "durationTicks": 14,
            "midi": 49,
            "name": "C#3",
            "ticks": 21586,
            "time": 112.42708333333333,
            "velocity": 1
          },
          {
            "duration": 0.07291666666665719,
            "durationTicks": 14,
            "midi": 47,
            "name": "B2",
            "ticks": 21743,
            "time": 113.24479166666667,
            "velocity": 1
          },
          {
            "duration": 0.07291666666665719,
            "durationTicks": 14,
            "midi": 49,
            "name": "C#3",
            "ticks": 21881,
            "time": 113.96354166666667,
            "velocity": 1
          },
          {
            "duration": 0.078125,
            "durationTicks": 15,
            "midi": 47,
            "name": "B2",
            "ticks": 22039,
            "time": 114.78645833333333,
            "velocity": 1
          },
          {
            "duration": 0.08333333333334281,
            "durationTicks": 16,
            "midi": 49,
            "name": "C#3",
            "ticks": 22189,
            "time": 115.56770833333333,
            "velocity": 1
          },
          {
            "duration": 0.08333333333334281,
            "durationTicks": 16,
            "midi": 47,
            "name": "B2",
            "ticks": 22321,
            "time": 116.25520833333333,
            "velocity": 1
          },
          {
            "duration": 0.078125,
            "durationTicks": 15,
            "midi": 45,
            "name": "A2",
            "ticks": 22475,
            "time": 117.05729166666667,
            "velocity": 1
          },
          {
            "duration": 0.0625,
            "durationTicks": 12,
            "midi": 47,
            "name": "B2",
            "ticks": 22627,
            "time": 117.84895833333333,
            "velocity": 1
          },
          {
            "duration": 0.078125,
            "durationTicks": 15,
            "midi": 49,
            "name": "C#3",
            "ticks": 22801,
            "time": 118.75520833333333,
            "velocity": 1
          },
          {
            "duration": 0.0625,
            "durationTicks": 12,
            "midi": 47,
            "name": "B2",
            "ticks": 22968,
            "time": 119.625,
            "velocity": 1
          },
          {
            "duration": 0.08333333333334281,
            "durationTicks": 16,
            "midi": 49,
            "name": "C#3",
            "ticks": 23122,
            "time": 120.42708333333333,
            "velocity": 1
          },
          {
            "duration": 0.0677083333333286,
            "durationTicks": 13,
            "midi": 47,
            "name": "B2",
            "ticks": 23286,
            "time": 121.28125,
            "velocity": 1
          },
          {
            "duration": 0.0729166666666714,
            "durationTicks": 14,
            "midi": 49,
            "name": "C#3",
            "ticks": 23424,
            "time": 122,
            "velocity": 1
          },
          {
            "duration": 0.08854166666665719,
            "durationTicks": 17,
            "midi": 47,
            "name": "B2",
            "ticks": 23525,
            "time": 122.52604166666667,
            "velocity": 1
          },
          {
            "duration": 0.0885416666666714,
            "durationTicks": 17,
            "midi": 36,
            "name": "C2",
            "ticks": 23641,
            "time": 123.13020833333333,
            "velocity": 1
          },
          {
            "duration": 0.0625,
            "durationTicks": 12,
            "midi": 36,
            "name": "C2",
            "ticks": 23708,
            "time": 123.47916666666667,
            "velocity": 1
          },
          {
            "duration": 0.0833333333333286,
            "durationTicks": 16,
            "midi": 36,
            "name": "C2",
            "ticks": 23730,
            "time": 123.59375,
            "velocity": 1
          },
          {
            "duration": 0.078125,
            "durationTicks": 15,
            "midi": 39,
            "name": "D#2",
            "ticks": 23750,
            "time": 123.69791666666667,
            "velocity": 1
          },
          {
            "duration": 0.078125,
            "durationTicks": 15,
            "midi": 36,
            "name": "C2",
            "ticks": 23866,
            "time": 124.30208333333333,
            "velocity": 1
          },
          {
            "duration": 0.078125,
            "durationTicks": 15,
            "midi": 39,
            "name": "D#2",
            "ticks": 23909,
            "time": 124.52604166666667,
            "velocity": 1
          },
          {
            "duration": 0.0677083333333286,
            "durationTicks": 13,
            "midi": 36,
            "name": "C2",
            "ticks": 23946,
            "time": 124.71875,
            "velocity": 1
          },
          {
            "duration": 0.1041666666666714,
            "durationTicks": 20,
            "midi": 36,
            "name": "C2",
            "ticks": 23986,
            "time": 124.92708333333333,
            "velocity": 1
          },
          {
            "duration": 0.0677083333333286,
            "durationTicks": 13,
            "midi": 39,
            "name": "D#2",
            "ticks": 24054,
            "time": 125.28125,
            "velocity": 1
          },
          {
            "duration": 0.0677083333333286,
            "durationTicks": 13,
            "midi": 36,
            "name": "C2",
            "ticks": 24090,
            "time": 125.46875,
            "velocity": 1
          },
          {
            "duration": 0.020833333333328596,
            "durationTicks": 4,
            "midi": 36,
            "name": "C2",
            "ticks": 24134,
            "time": 125.69791666666667,
            "velocity": 1
          },
          {
            "duration": 0.020833333333342807,
            "durationTicks": 4,
            "midi": 36,
            "name": "C2",
            "ticks": 24172,
            "time": 125.89583333333333,
            "velocity": 1
          },
          {
            "duration": 0.078125,
            "durationTicks": 15,
            "midi": 39,
            "name": "D#2",
            "ticks": 24207,
            "time": 126.078125,
            "velocity": 1
          },
          {
            "duration": 0.06770833333334281,
            "durationTicks": 13,
            "midi": 36,
            "name": "C2",
            "ticks": 24241,
            "time": 126.25520833333333,
            "velocity": 1
          },
          {
            "duration": 0.078125,
            "durationTicks": 15,
            "midi": 36,
            "name": "C2",
            "ticks": 24334,
            "time": 126.73958333333333,
            "velocity": 1
          },
          {
            "duration": 0.057291666666671404,
            "durationTicks": 11,
            "midi": 39,
            "name": "D#2",
            "ticks": 24370,
            "time": 126.92708333333333,
            "velocity": 1
          },
          {
            "duration": 0.078125,
            "durationTicks": 15,
            "midi": 36,
            "name": "C2",
            "ticks": 24504,
            "time": 127.625,
            "velocity": 1
          },
          {
            "duration": 0.0729166666666714,
            "durationTicks": 14,
            "midi": 39,
            "name": "D#2",
            "ticks": 24546,
            "time": 127.84375,
            "velocity": 1
          },
          {
            "duration": 0.026041666666685614,
            "durationTicks": 5,
            "midi": 36,
            "name": "C2",
            "ticks": 24623,
            "time": 128.24479166666666,
            "velocity": 1
          },
          {
            "duration": 0.0625,
            "durationTicks": 12,
            "midi": 39,
            "name": "D#2",
            "ticks": 24679,
            "time": 128.53645833333334,
            "velocity": 1
          },
          {
            "duration": 0.04166666666665719,
            "durationTicks": 8,
            "midi": 36,
            "name": "C2",
            "ticks": 24711,
            "time": 128.703125,
            "velocity": 1
          },
          {
            "duration": 0.046875,
            "durationTicks": 9,
            "midi": 36,
            "name": "C2",
            "ticks": 24752,
            "time": 128.91666666666666,
            "velocity": 1
          },
          {
            "duration": 0.07291666666665719,
            "durationTicks": 14,
            "midi": 39,
            "name": "D#2",
            "ticks": 24805,
            "time": 129.19270833333334,
            "velocity": 1
          },
          {
            "duration": 0.06770833333334281,
            "durationTicks": 13,
            "midi": 36,
            "name": "C2",
            "ticks": 24849,
            "time": 129.421875,
            "velocity": 1
          },
          {
            "duration": 0.078125,
            "durationTicks": 15,
            "midi": 36,
            "name": "C2",
            "ticks": 24887,
            "time": 129.61979166666666,
            "velocity": 1
          },
          {
            "duration": 0.057291666666685614,
            "durationTicks": 11,
            "midi": 39,
            "name": "D#2",
            "ticks": 24962,
            "time": 130.01041666666666,
            "velocity": 1
          },
          {
            "duration": 0.07291666666668561,
            "durationTicks": 14,
            "midi": 36,
            "name": "C2",
            "ticks": 25010,
            "time": 130.26041666666666,
            "velocity": 1
          },
          {
            "duration": 0.078125,
            "durationTicks": 15,
            "midi": 36,
            "name": "C2",
            "ticks": 25086,
            "time": 130.65625,
            "velocity": 1
          },
          {
            "duration": 0.08333333333334281,
            "durationTicks": 16,
            "midi": 39,
            "name": "D#2",
            "ticks": 25122,
            "time": 130.84375,
            "velocity": 1
          },
          {
            "duration": 0.078125,
            "durationTicks": 15,
            "midi": 36,
            "name": "C2",
            "ticks": 25209,
            "time": 131.296875,
            "velocity": 1
          },
          {
            "duration": 0.04166666666665719,
            "durationTicks": 8,
            "midi": 39,
            "name": "D#2",
            "ticks": 25279,
            "time": 131.66145833333334,
            "velocity": 1
          },
          {
            "duration": 0.06770833333334281,
            "durationTicks": 13,
            "midi": 36,
            "name": "C2",
            "ticks": 25356,
            "time": 132.0625,
            "velocity": 1
          },
          {
            "duration": 0.09375,
            "durationTicks": 18,
            "midi": 36,
            "name": "C2",
            "ticks": 25391,
            "time": 132.24479166666666,
            "velocity": 1
          },
          {
            "duration": 0.07291666666665719,
            "durationTicks": 14,
            "midi": 39,
            "name": "D#2",
            "ticks": 25432,
            "time": 132.45833333333334,
            "velocity": 1
          },
          {
            "duration": 0.09375,
            "durationTicks": 18,
            "midi": 36,
            "name": "C2",
            "ticks": 25469,
            "time": 132.65104166666666,
            "velocity": 1
          },
          {
            "duration": 0.07291666666665719,
            "durationTicks": 14,
            "midi": 39,
            "name": "D#2",
            "ticks": 25597,
            "time": 133.31770833333334,
            "velocity": 1
          },
          {
            "duration": 0.05729166666665719,
            "durationTicks": 11,
            "midi": 36,
            "name": "C2",
            "ticks": 25722,
            "time": 133.96875,
            "velocity": 1
          },
          {
            "duration": 0.06770833333331439,
            "durationTicks": 13,
            "midi": 39,
            "name": "D#2",
            "ticks": 25753,
            "time": 134.13020833333334,
            "velocity": 1
          },
          {
            "duration": 0.05729166666665719,
            "durationTicks": 11,
            "midi": 36,
            "name": "C2",
            "ticks": 25789,
            "time": 134.31770833333334,
            "velocity": 1
          },
          {
            "duration": 0.08333333333334281,
            "durationTicks": 16,
            "midi": 36,
            "name": "C2",
            "ticks": 25835,
            "time": 134.55729166666666,
            "velocity": 1
          },
          {
            "duration": 0.07291666666665719,
            "durationTicks": 14,
            "midi": 36,
            "name": "C2",
            "ticks": 25890,
            "time": 134.84375,
            "velocity": 1
          },
          {
            "duration": 0.06770833333334281,
            "durationTicks": 13,
            "midi": 36,
            "name": "C2",
            "ticks": 25938,
            "time": 135.09375,
            "velocity": 1
          },
          {
            "duration": 0.026041666666657193,
            "durationTicks": 5,
            "midi": 36,
            "name": "C2",
            "ticks": 25981,
            "time": 135.31770833333334,
            "velocity": 1
          },
          {
            "duration": 0.0625,
            "durationTicks": 12,
            "midi": 36,
            "name": "C2",
            "ticks": 26029,
            "time": 135.56770833333334,
            "velocity": 1
          },
          {
            "duration": 0.046875,
            "durationTicks": 9,
            "midi": 36,
            "name": "C2",
            "ticks": 26083,
            "time": 135.84895833333334,
            "velocity": 1
          },
          {
            "duration": 0.08333333333334281,
            "durationTicks": 16,
            "midi": 44,
            "name": "G#2",
            "ticks": 29118,
            "time": 151.65625,
            "velocity": 1
          },
          {
            "duration": 0.0625,
            "durationTicks": 12,
            "midi": 48,
            "name": "C3",
            "ticks": 29360,
            "time": 152.91666666666666,
            "velocity": 1
          },
          {
            "duration": 0.08333333333334281,
            "durationTicks": 16,
            "midi": 46,
            "name": "A#2",
            "ticks": 29435,
            "time": 153.30729166666666,
            "velocity": 1
          },
          {
            "duration": 0.04166666666665719,
            "durationTicks": 8,
            "midi": 48,
            "name": "C3",
            "ticks": 29530,
            "time": 153.80208333333334,
            "velocity": 1
          },
          {
            "duration": 0.10416666666668561,
            "durationTicks": 20,
            "midi": 46,
            "name": "A#2",
            "ticks": 29612,
            "time": 154.22916666666666,
            "velocity": 1
          },
          {
            "duration": 0.08333333333331439,
            "durationTicks": 16,
            "midi": 48,
            "name": "C3",
            "ticks": 29698,
            "time": 154.67708333333334,
            "velocity": 1
          },
          {
            "duration": 0.08854166666668561,
            "durationTicks": 17,
            "midi": 46,
            "name": "A#2",
            "ticks": 29777,
            "time": 155.08854166666666,
            "velocity": 1
          },
          {
            "duration": 0.07291666666665719,
            "durationTicks": 14,
            "midi": 48,
            "name": "C3",
            "ticks": 29859,
            "time": 155.515625,
            "velocity": 1
          },
          {
            "duration": 0.11979166666665719,
            "durationTicks": 23,
            "midi": 46,
            "name": "A#2",
            "ticks": 29932,
            "time": 155.89583333333334,
            "velocity": 1
          },
          {
            "duration": 0.1510416666666572,
            "durationTicks": 29,
            "midi": 50,
            "name": "D3",
            "ticks": 29979,
            "time": 156.140625,
            "velocity": 1
          },
          {
            "duration": 0.125,
            "durationTicks": 24,
            "midi": 46,
            "name": "A#2",
            "ticks": 30107,
            "time": 156.80729166666666,
            "velocity": 1
          },
          {
            "duration": 0.140625,
            "durationTicks": 27,
            "midi": 48,
            "name": "C3",
            "ticks": 30189,
            "time": 157.234375,
            "velocity": 1
          },
          {
            "duration": 0.078125,
            "durationTicks": 15,
            "midi": 46,
            "name": "A#2",
            "ticks": 30277,
            "time": 157.69270833333334,
            "velocity": 1
          },
          {
            "duration": 0.06770833333331439,
            "durationTicks": 13,
            "midi": 48,
            "name": "C3",
            "ticks": 30349,
            "time": 158.06770833333334,
            "velocity": 1
          },
          {
            "duration": 0.109375,
            "durationTicks": 21,
            "midi": 46,
            "name": "A#2",
            "ticks": 30424,
            "time": 158.45833333333334,
            "velocity": 1
          },
          {
            "duration": 0.08333333333334281,
            "durationTicks": 16,
            "midi": 48,
            "name": "C3",
            "ticks": 30492,
            "time": 158.8125,
            "velocity": 1
          },
          {
            "duration": 0.078125,
            "durationTicks": 15,
            "midi": 46,
            "name": "A#2",
            "ticks": 30567,
            "time": 159.203125,
            "velocity": 1
          },
          {
            "duration": 0.06770833333331439,
            "durationTicks": 13,
            "midi": 50,
            "name": "D3",
            "ticks": 30598,
            "time": 159.36458333333334,
            "velocity": 1
          },
          {
            "duration": 0.08333333333334281,
            "durationTicks": 16,
            "midi": 46,
            "name": "A#2",
            "ticks": 30728,
            "time": 160.04166666666666,
            "velocity": 1
          },
          {
            "duration": 0.07291666666665719,
            "durationTicks": 14,
            "midi": 48,
            "name": "C3",
            "ticks": 30798,
            "time": 160.40625,
            "velocity": 1
          },
          {
            "duration": 0.08854166666665719,
            "durationTicks": 17,
            "midi": 46,
            "name": "A#2",
            "ticks": 30877,
            "time": 160.81770833333334,
            "velocity": 1
          },
          {
            "duration": 0.09375,
            "durationTicks": 18,
            "midi": 48,
            "name": "C3",
            "ticks": 30952,
            "time": 161.20833333333334,
            "velocity": 1
          },
          {
            "duration": 0.046875,
            "durationTicks": 9,
            "midi": 46,
            "name": "A#2",
            "ticks": 31031,
            "time": 161.61979166666666,
            "velocity": 1
          },
          {
            "duration": 0.06770833333334281,
            "durationTicks": 13,
            "midi": 48,
            "name": "C3",
            "ticks": 31109,
            "time": 162.02604166666666,
            "velocity": 1
          },
          {
            "duration": 0.08333333333334281,
            "durationTicks": 16,
            "midi": 46,
            "name": "A#2",
            "ticks": 31188,
            "time": 162.4375,
            "velocity": 1
          },
          {
            "duration": 0.09895833333334281,
            "durationTicks": 19,
            "midi": 48,
            "name": "C3",
            "ticks": 31263,
            "time": 162.828125,
            "velocity": 1
          },
          {
            "duration": 0.1302083333333428,
            "durationTicks": 25,
            "midi": 46,
            "name": "A#2",
            "ticks": 31340,
            "time": 163.22916666666666,
            "velocity": 1
          },
          {
            "duration": 0.0625,
            "durationTicks": 12,
            "midi": 48,
            "name": "C3",
            "ticks": 31425,
            "time": 163.671875,
            "velocity": 1
          },
          {
            "duration": 0.07291666666665719,
            "durationTicks": 14,
            "midi": 46,
            "name": "A#2",
            "ticks": 31470,
            "time": 163.90625,
            "velocity": 1
          },
          {
            "duration": 0.125,
            "durationTicks": 24,
            "midi": 48,
            "name": "C3",
            "ticks": 31642,
            "time": 164.80208333333334,
            "velocity": 1
          },
          {
            "duration": 0.078125,
            "durationTicks": 15,
            "midi": 48,
            "name": "C3",
            "ticks": 31774,
            "time": 165.48958333333334,
            "velocity": 1
          },
          {
            "duration": 0.1302083333333428,
            "durationTicks": 25,
            "midi": 48,
            "name": "C3",
            "ticks": 31889,
            "time": 166.08854166666666,
            "velocity": 1
          },
          {
            "duration": 0.09375,
            "durationTicks": 18,
            "midi": 50,
            "name": "D3",
            "ticks": 31946,
            "time": 166.38541666666666,
            "velocity": 1
          },
          {
            "duration": 0.21875,
            "durationTicks": 42,
            "midi": 48,
            "name": "C3",
            "ticks": 31977,
            "time": 166.546875,
            "velocity": 1
          },
          {
            "duration": 0.125,
            "durationTicks": 24,
            "midi": 50,
            "name": "D3",
            "ticks": 32047,
            "time": 166.91145833333334,
            "velocity": 1
          },
          {
            "duration": 0.171875,
            "durationTicks": 33,
            "midi": 48,
            "name": "C3",
            "ticks": 32088,
            "time": 167.125,
            "velocity": 1
          },
          {
            "duration": 0.1927083333333428,
            "durationTicks": 37,
            "midi": 48,
            "name": "C3",
            "ticks": 32169,
            "time": 167.546875,
            "velocity": 1
          },
          {
            "duration": 0.1666666666666572,
            "durationTicks": 32,
            "midi": 50,
            "name": "D3",
            "ticks": 32206,
            "time": 167.73958333333334,
            "velocity": 1
          },
          {
            "duration": 0.09895833333331439,
            "durationTicks": 19,
            "midi": 48,
            "name": "C3",
            "ticks": 32275,
            "time": 168.09895833333334,
            "velocity": 1
          },
          {
            "duration": 0.08333333333334281,
            "durationTicks": 16,
            "midi": 48,
            "name": "C3",
            "ticks": 32325,
            "time": 168.359375,
            "velocity": 1
          },
          {
            "duration": 0.3177083333333144,
            "durationTicks": 61,
            "midi": 48,
            "name": "C3",
            "ticks": 32392,
            "time": 168.70833333333334,
            "velocity": 1
          },
          {
            "duration": 0.140625,
            "durationTicks": 27,
            "midi": 48,
            "name": "C3",
            "ticks": 32474,
            "time": 169.13541666666666,
            "velocity": 1
          },
          {
            "duration": 0.22395833333331439,
            "durationTicks": 43,
            "midi": 48,
            "name": "C3",
            "ticks": 32575,
            "time": 169.66145833333334,
            "velocity": 1
          },
          {
            "duration": 0.203125,
            "durationTicks": 39,
            "midi": 48,
            "name": "C3",
            "ticks": 32700,
            "time": 170.3125,
            "velocity": 1
          },
          {
            "duration": 0.06770833333334281,
            "durationTicks": 13,
            "midi": 48,
            "name": "C3",
            "ticks": 32780,
            "time": 170.72916666666666,
            "velocity": 1
          },
          {
            "duration": 0.078125,
            "durationTicks": 15,
            "midi": 50,
            "name": "D3",
            "ticks": 32812,
            "time": 170.89583333333334,
            "velocity": 1
          },
          {
            "duration": 0.0625,
            "durationTicks": 12,
            "midi": 48,
            "name": "C3",
            "ticks": 32898,
            "time": 171.34375,
            "velocity": 1
          },
          {
            "duration": 0.17708333333331439,
            "durationTicks": 34,
            "midi": 48,
            "name": "C3",
            "ticks": 33208,
            "time": 172.95833333333334,
            "velocity": 1
          }
        ]
      }
    ]
  }