export default {
  "header": {
    "keySignatures": [],
    "meta": [],
    "name": "FINAL MIDI\u0000",
    "ppq": 96,
    "tempos": [],
    "timeSignatures": [
      {
        "ticks": 0,
        "timeSignature": [
          4,
          4
        ],
        "measures": 0
      },
      {
        "ticks": 0,
        "timeSignature": [
          4,
          4
        ],
        "measures": 0
      }
    ]
  },
  "tracks": [
    {
      "channel": 0,
      "controlChanges": {},
      "pitchBends": [],
      "instrument": {
        "family": "piano",
        "name": "acoustic grand piano",
        "number": 0
      },
      "name": "FINAL MIDI\u0000",
      "notes": [
        {
          "duration": 0.09895833333333215,
          "durationTicks": 19,
          "midi": 36,
          "name": "C2",
          "ticks": 2764,
          "time": 14.395833333333334,
          "velocity": 1
        },
        {
          "duration": 0.09895833333333393,
          "durationTicks": 19,
          "midi": 36,
          "name": "C2",
          "ticks": 2841,
          "time": 14.796875,
          "velocity": 1
        },
        {
          "duration": 0.09375,
          "durationTicks": 18,
          "midi": 36,
          "name": "C2",
          "ticks": 2919,
          "time": 15.203125,
          "velocity": 1
        },
        {
          "duration": 0.09375,
          "durationTicks": 18,
          "midi": 36,
          "name": "C2",
          "ticks": 2994,
          "time": 15.59375,
          "velocity": 1
        },
        {
          "duration": 0.09375,
          "durationTicks": 18,
          "midi": 36,
          "name": "C2",
          "ticks": 3072,
          "time": 16,
          "velocity": 1
        },
        {
          "duration": 0.09375,
          "durationTicks": 18,
          "midi": 36,
          "name": "C2",
          "ticks": 3149,
          "time": 16.401041666666668,
          "velocity": 1
        },
        {
          "duration": 0.09375,
          "durationTicks": 18,
          "midi": 36,
          "name": "C2",
          "ticks": 3225,
          "time": 16.796875,
          "velocity": 1
        },
        {
          "duration": 0.25,
          "durationTicks": 48,
          "midi": 38,
          "name": "D2",
          "ticks": 3264,
          "time": 17,
          "velocity": 1
        },
        {
          "duration": 0.11979166666666785,
          "durationTicks": 23,
          "midi": 37,
          "name": "C#2",
          "ticks": 3379,
          "time": 17.598958333333332,
          "velocity": 1
        },
        {
          "duration": 0.16145833333333215,
          "durationTicks": 31,
          "midi": 39,
          "name": "D#2",
          "ticks": 3456,
          "time": 18,
          "velocity": 1
        },
        {
          "duration": 0.11979166666666785,
          "durationTicks": 23,
          "midi": 37,
          "name": "C#2",
          "ticks": 3571,
          "time": 18.598958333333332,
          "velocity": 1
        },
        {
          "duration": 0.23958333333333215,
          "durationTicks": 46,
          "midi": 39,
          "name": "D#2",
          "ticks": 3609,
          "time": 18.796875,
          "velocity": 1
        },
        {
          "duration": 0.09375,
          "durationTicks": 18,
          "midi": 37,
          "name": "C#2",
          "ticks": 3648,
          "time": 19,
          "velocity": 1
        },
        {
          "duration": 0.09895833333333215,
          "durationTicks": 19,
          "midi": 37,
          "name": "C#2",
          "ticks": 3686,
          "time": 19.197916666666668,
          "velocity": 1
        },
        {
          "duration": 0.19270833333333215,
          "durationTicks": 37,
          "midi": 39,
          "name": "D#2",
          "ticks": 3762,
          "time": 19.59375,
          "velocity": 1
        },
        {
          "duration": 0.09375,
          "durationTicks": 18,
          "midi": 37,
          "name": "C#2",
          "ticks": 3801,
          "time": 19.796875,
          "velocity": 1
        },
        {
          "duration": 0.09375,
          "durationTicks": 18,
          "midi": 37,
          "name": "C#2",
          "ticks": 3840,
          "time": 20,
          "velocity": 1
        },
        {
          "duration": 0.09375,
          "durationTicks": 18,
          "midi": 37,
          "name": "C#2",
          "ticks": 3879,
          "time": 20.203125,
          "velocity": 1
        },
        {
          "duration": 0.16666666666666785,
          "durationTicks": 32,
          "midi": 39,
          "name": "D#2",
          "ticks": 3916,
          "time": 20.395833333333332,
          "velocity": 1
        },
        {
          "duration": 0.125,
          "durationTicks": 24,
          "midi": 37,
          "name": "C#2",
          "ticks": 3954,
          "time": 20.59375,
          "velocity": 1
        },
        {
          "duration": 0.09895833333333215,
          "durationTicks": 19,
          "midi": 37,
          "name": "C#2",
          "ticks": 3993,
          "time": 20.796875,
          "velocity": 1
        },
        {
          "duration": 0.21875,
          "durationTicks": 42,
          "midi": 39,
          "name": "D#2",
          "ticks": 4069,
          "time": 21.192708333333332,
          "velocity": 1
        },
        {
          "duration": 0.11979166666666785,
          "durationTicks": 23,
          "midi": 37,
          "name": "C#2",
          "ticks": 4186,
          "time": 21.802083333333332,
          "velocity": 1
        },
        {
          "duration": 0.16145833333333215,
          "durationTicks": 31,
          "midi": 39,
          "name": "D#2",
          "ticks": 4224,
          "time": 22,
          "velocity": 1
        },
        {
          "duration": 0.09895833333333215,
          "durationTicks": 19,
          "midi": 37,
          "name": "C#2",
          "ticks": 4262,
          "time": 22.197916666666668,
          "velocity": 1
        },
        {
          "duration": 0.09895833333333215,
          "durationTicks": 19,
          "midi": 37,
          "name": "C#2",
          "ticks": 4301,
          "time": 22.401041666666668,
          "velocity": 1
        },
        {
          "duration": 0.1666666666666643,
          "durationTicks": 32,
          "midi": 39,
          "name": "D#2",
          "ticks": 4376,
          "time": 22.791666666666668,
          "velocity": 1
        },
        {
          "duration": 0.09375,
          "durationTicks": 18,
          "midi": 37,
          "name": "C#2",
          "ticks": 4416,
          "time": 23,
          "velocity": 1
        },
        {
          "duration": 0.09895833333333215,
          "durationTicks": 19,
          "midi": 37,
          "name": "C#2",
          "ticks": 4454,
          "time": 23.197916666666668,
          "velocity": 1
        },
        {
          "duration": 0.09895833333333215,
          "durationTicks": 19,
          "midi": 37,
          "name": "C#2",
          "ticks": 4493,
          "time": 23.401041666666668,
          "velocity": 1
        },
        {
          "duration": 0.1614583333333357,
          "durationTicks": 31,
          "midi": 39,
          "name": "D#2",
          "ticks": 4531,
          "time": 23.598958333333332,
          "velocity": 1
        },
        {
          "duration": 0.13020833333333215,
          "durationTicks": 25,
          "midi": 37,
          "name": "C#2",
          "ticks": 4568,
          "time": 23.791666666666668,
          "velocity": 1
        },
        {
          "duration": 0.09895833333333215,
          "durationTicks": 19,
          "midi": 37,
          "name": "C#2",
          "ticks": 4608,
          "time": 24,
          "velocity": 1
        },
        {
          "duration": 0.1614583333333357,
          "durationTicks": 31,
          "midi": 39,
          "name": "D#2",
          "ticks": 4684,
          "time": 24.395833333333332,
          "velocity": 1
        },
        {
          "duration": 0.11979166666666785,
          "durationTicks": 23,
          "midi": 37,
          "name": "C#2",
          "ticks": 4800,
          "time": 25,
          "velocity": 1
        },
        {
          "duration": 0.21875,
          "durationTicks": 42,
          "midi": 39,
          "name": "D#2",
          "ticks": 4837,
          "time": 25.192708333333332,
          "velocity": 1
        },
        {
          "duration": 0.0989583333333357,
          "durationTicks": 19,
          "midi": 37,
          "name": "C#2",
          "ticks": 4876,
          "time": 25.395833333333332,
          "velocity": 1
        },
        {
          "duration": 0.0989583333333357,
          "durationTicks": 19,
          "midi": 37,
          "name": "C#2",
          "ticks": 4915,
          "time": 25.598958333333332,
          "velocity": 1
        },
        {
          "duration": 0.171875,
          "durationTicks": 33,
          "midi": 39,
          "name": "D#2",
          "ticks": 4990,
          "time": 25.989583333333332,
          "velocity": 1
        },
        {
          "duration": 0.0989583333333357,
          "durationTicks": 19,
          "midi": 37,
          "name": "C#2",
          "ticks": 5029,
          "time": 26.192708333333332,
          "velocity": 1
        },
        {
          "duration": 0.0989583333333357,
          "durationTicks": 19,
          "midi": 37,
          "name": "C#2",
          "ticks": 5068,
          "time": 26.395833333333332,
          "velocity": 1
        },
        {
          "duration": 0.0989583333333357,
          "durationTicks": 19,
          "midi": 37,
          "name": "C#2",
          "ticks": 5107,
          "time": 26.598958333333332,
          "velocity": 1
        },
        {
          "duration": 0.16145833333333215,
          "durationTicks": 31,
          "midi": 39,
          "name": "D#2",
          "ticks": 5145,
          "time": 26.796875,
          "velocity": 1
        },
        {
          "duration": 0.1302083333333357,
          "durationTicks": 25,
          "midi": 37,
          "name": "C#2",
          "ticks": 5182,
          "time": 26.989583333333332,
          "velocity": 1
        },
        {
          "duration": 0.09375,
          "durationTicks": 18,
          "midi": 37,
          "name": "C#2",
          "ticks": 5222,
          "time": 27.197916666666668,
          "velocity": 1
        },
        {
          "duration": 0.19270833333333215,
          "durationTicks": 37,
          "midi": 39,
          "name": "D#2",
          "ticks": 5298,
          "time": 27.59375,
          "velocity": 1
        },
        {
          "duration": 0.125,
          "durationTicks": 24,
          "midi": 37,
          "name": "C#2",
          "ticks": 5414,
          "time": 28.197916666666668,
          "velocity": 1
        },
        {
          "duration": 0.1614583333333357,
          "durationTicks": 31,
          "midi": 39,
          "name": "D#2",
          "ticks": 5452,
          "time": 28.395833333333332,
          "velocity": 1
        },
        {
          "duration": 0.0989583333333357,
          "durationTicks": 19,
          "midi": 37,
          "name": "C#2",
          "ticks": 5491,
          "time": 28.598958333333332,
          "velocity": 1
        },
        {
          "duration": 0.0989583333333357,
          "durationTicks": 19,
          "midi": 37,
          "name": "C#2",
          "ticks": 5530,
          "time": 28.802083333333332,
          "velocity": 1
        },
        {
          "duration": 0.1614583333333357,
          "durationTicks": 31,
          "midi": 39,
          "name": "D#2",
          "ticks": 5605,
          "time": 29.192708333333332,
          "velocity": 1
        },
        {
          "duration": 0.0989583333333357,
          "durationTicks": 19,
          "midi": 37,
          "name": "C#2",
          "ticks": 5644,
          "time": 29.395833333333332,
          "velocity": 1
        },
        {
          "duration": 0.0989583333333357,
          "durationTicks": 19,
          "midi": 37,
          "name": "C#2",
          "ticks": 5683,
          "time": 29.598958333333332,
          "velocity": 1
        },
        {
          "duration": 0.0989583333333357,
          "durationTicks": 19,
          "midi": 37,
          "name": "C#2",
          "ticks": 5722,
          "time": 29.802083333333332,
          "velocity": 1
        },
        {
          "duration": 0.16145833333333215,
          "durationTicks": 31,
          "midi": 39,
          "name": "D#2",
          "ticks": 5760,
          "time": 30,
          "velocity": 1
        },
        {
          "duration": 0.1302083333333357,
          "durationTicks": 25,
          "midi": 37,
          "name": "C#2",
          "ticks": 5797,
          "time": 30.192708333333332,
          "velocity": 1
        },
        {
          "duration": 0.0989583333333357,
          "durationTicks": 19,
          "midi": 37,
          "name": "C#2",
          "ticks": 5836,
          "time": 30.395833333333332,
          "velocity": 1
        },
        {
          "duration": 0.125,
          "durationTicks": 24,
          "midi": 42,
          "name": "F#2",
          "ticks": 5913,
          "time": 30.796875,
          "velocity": 1
        },
        {
          "duration": 0.09375,
          "durationTicks": 18,
          "midi": 40,
          "name": "E2",
          "ticks": 6028,
          "time": 31.395833333333332,
          "velocity": 1
        },
        {
          "duration": 0.15625,
          "durationTicks": 30,
          "midi": 42,
          "name": "F#2",
          "ticks": 6066,
          "time": 31.59375,
          "velocity": 1
        },
        {
          "duration": 0.09375,
          "durationTicks": 18,
          "midi": 40,
          "name": "E2",
          "ticks": 6105,
          "time": 31.796875,
          "velocity": 1
        },
        {
          "duration": 0.09895833333333215,
          "durationTicks": 19,
          "midi": 40,
          "name": "E2",
          "ticks": 6143,
          "time": 31.994791666666668,
          "velocity": 1
        },
        {
          "duration": 0.125,
          "durationTicks": 24,
          "midi": 42,
          "name": "F#2",
          "ticks": 6219,
          "time": 32.390625,
          "velocity": 1
        },
        {
          "duration": 0.125,
          "durationTicks": 24,
          "midi": 40,
          "name": "E2",
          "ticks": 6258,
          "time": 32.59375,
          "velocity": 1
        },
        {
          "duration": 0.09375,
          "durationTicks": 18,
          "midi": 40,
          "name": "E2",
          "ticks": 6297,
          "time": 32.796875,
          "velocity": 1
        },
        {
          "duration": 0.09375,
          "durationTicks": 18,
          "midi": 40,
          "name": "E2",
          "ticks": 6336,
          "time": 33,
          "velocity": 1
        },
        {
          "duration": 0.1822916666666643,
          "durationTicks": 35,
          "midi": 42,
          "name": "F#2",
          "ticks": 6373,
          "time": 33.192708333333336,
          "velocity": 1
        },
        {
          "duration": 0.09375,
          "durationTicks": 18,
          "midi": 40,
          "name": "E2",
          "ticks": 6411,
          "time": 33.390625,
          "velocity": 1
        },
        {
          "duration": 0.125,
          "durationTicks": 24,
          "midi": 40,
          "name": "E2",
          "ticks": 6450,
          "time": 33.59375,
          "velocity": 1
        },
        {
          "duration": 0.1354166666666643,
          "durationTicks": 26,
          "midi": 42,
          "name": "F#2",
          "ticks": 6526,
          "time": 33.989583333333336,
          "velocity": 1
        },
        {
          "duration": 0.1197916666666643,
          "durationTicks": 23,
          "midi": 40,
          "name": "E2",
          "ticks": 6643,
          "time": 34.598958333333336,
          "velocity": 1
        },
        {
          "duration": 0.203125,
          "durationTicks": 39,
          "midi": 42,
          "name": "F#2",
          "ticks": 6681,
          "time": 34.796875,
          "velocity": 1
        },
        {
          "duration": 0.0989583333333357,
          "durationTicks": 19,
          "midi": 40,
          "name": "E2",
          "ticks": 6719,
          "time": 34.994791666666664,
          "velocity": 1
        },
        {
          "duration": 0.1458333333333357,
          "durationTicks": 28,
          "midi": 40,
          "name": "E2",
          "ticks": 6758,
          "time": 35.197916666666664,
          "velocity": 1
        },
        {
          "duration": 0.09375,
          "durationTicks": 18,
          "midi": 40,
          "name": "E2",
          "ticks": 6873,
          "time": 35.796875,
          "velocity": 1
        },
        {
          "duration": 0.0989583333333357,
          "durationTicks": 19,
          "midi": 40,
          "name": "E2",
          "ticks": 6911,
          "time": 35.994791666666664,
          "velocity": 1
        },
        {
          "duration": 0.1458333333333357,
          "durationTicks": 28,
          "midi": 40,
          "name": "E2",
          "ticks": 6950,
          "time": 36.197916666666664,
          "velocity": 1
        },
        {
          "duration": 0.1302083333333357,
          "durationTicks": 25,
          "midi": 40,
          "name": "E2",
          "ticks": 7025,
          "time": 36.588541666666664,
          "velocity": 1
        },
        {
          "duration": 0.09375,
          "durationTicks": 18,
          "midi": 40,
          "name": "E2",
          "ticks": 7065,
          "time": 36.796875,
          "velocity": 1
        },
        {
          "duration": 0.171875,
          "durationTicks": 33,
          "midi": 40,
          "name": "E2",
          "ticks": 7143,
          "time": 37.203125,
          "velocity": 1
        },
        {
          "duration": 0.1510416666666643,
          "durationTicks": 29,
          "midi": 40,
          "name": "E2",
          "ticks": 7219,
          "time": 37.598958333333336,
          "velocity": 1
        },
        {
          "duration": 0.2083333333333286,
          "durationTicks": 40,
          "midi": 44,
          "name": "G#2",
          "ticks": 7372,
          "time": 38.395833333333336,
          "velocity": 0.7874015748031497
        },
        {
          "duration": 0.1510416666666643,
          "durationTicks": 29,
          "midi": 48,
          "name": "C3",
          "ticks": 7603,
          "time": 39.598958333333336,
          "velocity": 1
        },
        {
          "duration": 0.1666666666666643,
          "durationTicks": 32,
          "midi": 46,
          "name": "A#2",
          "ticks": 7680,
          "time": 40,
          "velocity": 1
        },
        {
          "duration": 0.1614583333333286,
          "durationTicks": 31,
          "midi": 48,
          "name": "C3",
          "ticks": 7756,
          "time": 40.395833333333336,
          "velocity": 1
        },
        {
          "duration": 0.1770833333333357,
          "durationTicks": 34,
          "midi": 46,
          "name": "A#2",
          "ticks": 7833,
          "time": 40.796875,
          "velocity": 1
        },
        {
          "duration": 0.1875,
          "durationTicks": 36,
          "midi": 48,
          "name": "C3",
          "ticks": 7872,
          "time": 41,
          "velocity": 0.7874015748031497
        },
        {
          "duration": 0.203125,
          "durationTicks": 39,
          "midi": 50,
          "name": "D3",
          "ticks": 7872,
          "time": 41,
          "velocity": 1
        },
        {
          "duration": 0.1666666666666643,
          "durationTicks": 32,
          "midi": 46,
          "name": "A#2",
          "ticks": 7987,
          "time": 41.598958333333336,
          "velocity": 1
        },
        {
          "duration": 0.1458333333333357,
          "durationTicks": 28,
          "midi": 48,
          "name": "C3",
          "ticks": 8064,
          "time": 42,
          "velocity": 1
        },
        {
          "duration": 0.1666666666666643,
          "durationTicks": 32,
          "midi": 46,
          "name": "A#2",
          "ticks": 8140,
          "time": 42.395833333333336,
          "velocity": 1
        },
        {
          "duration": 0.1614583333333357,
          "durationTicks": 31,
          "midi": 48,
          "name": "C3",
          "ticks": 8217,
          "time": 42.796875,
          "velocity": 1
        },
        {
          "duration": 0.171875,
          "durationTicks": 33,
          "midi": 46,
          "name": "A#2",
          "ticks": 8294,
          "time": 43.197916666666664,
          "velocity": 1
        },
        {
          "duration": 0.1614583333333286,
          "durationTicks": 31,
          "midi": 48,
          "name": "C3",
          "ticks": 8371,
          "time": 43.598958333333336,
          "velocity": 1
        },
        {
          "duration": 0.171875,
          "durationTicks": 33,
          "midi": 46,
          "name": "A#2",
          "ticks": 8448,
          "time": 44,
          "velocity": 1
        },
        {
          "duration": 0.1875,
          "durationTicks": 36,
          "midi": 48,
          "name": "C3",
          "ticks": 8486,
          "time": 44.197916666666664,
          "velocity": 0.7874015748031497
        },
        {
          "duration": 0.203125,
          "durationTicks": 39,
          "midi": 50,
          "name": "D3",
          "ticks": 8486,
          "time": 44.197916666666664,
          "velocity": 1
        },
        {
          "duration": 0.1666666666666643,
          "durationTicks": 32,
          "midi": 46,
          "name": "A#2",
          "ticks": 8601,
          "time": 44.796875,
          "velocity": 1
        },
        {
          "duration": 0.1458333333333357,
          "durationTicks": 28,
          "midi": 48,
          "name": "C3",
          "ticks": 8678,
          "time": 45.197916666666664,
          "velocity": 1
        },
        {
          "duration": 0.1666666666666643,
          "durationTicks": 32,
          "midi": 46,
          "name": "A#2",
          "ticks": 8754,
          "time": 45.59375,
          "velocity": 1
        },
        {
          "duration": 0.1614583333333357,
          "durationTicks": 31,
          "midi": 48,
          "name": "C3",
          "ticks": 8831,
          "time": 45.994791666666664,
          "velocity": 1
        },
        {
          "duration": 0.171875,
          "durationTicks": 33,
          "midi": 46,
          "name": "A#2",
          "ticks": 8908,
          "time": 46.395833333333336,
          "velocity": 1
        },
        {
          "duration": 0.1614583333333357,
          "durationTicks": 31,
          "midi": 48,
          "name": "C3",
          "ticks": 8985,
          "time": 46.796875,
          "velocity": 1
        },
        {
          "duration": 0.171875,
          "durationTicks": 33,
          "midi": 46,
          "name": "A#2",
          "ticks": 9062,
          "time": 47.197916666666664,
          "velocity": 1
        },
        {
          "duration": 0.1875,
          "durationTicks": 36,
          "midi": 48,
          "name": "C3",
          "ticks": 9100,
          "time": 47.395833333333336,
          "velocity": 0.7874015748031497
        },
        {
          "duration": 0.203125,
          "durationTicks": 39,
          "midi": 50,
          "name": "D3",
          "ticks": 9100,
          "time": 47.395833333333336,
          "velocity": 1
        },
        {
          "duration": 0.1666666666666643,
          "durationTicks": 32,
          "midi": 46,
          "name": "A#2",
          "ticks": 9216,
          "time": 48,
          "velocity": 1
        },
        {
          "duration": 0.1458333333333286,
          "durationTicks": 28,
          "midi": 48,
          "name": "C3",
          "ticks": 9292,
          "time": 48.395833333333336,
          "velocity": 1
        },
        {
          "duration": 0.1666666666666714,
          "durationTicks": 32,
          "midi": 46,
          "name": "A#2",
          "ticks": 9368,
          "time": 48.791666666666664,
          "velocity": 1
        },
        {
          "duration": 0.1614583333333286,
          "durationTicks": 31,
          "midi": 48,
          "name": "C3",
          "ticks": 9445,
          "time": 49.192708333333336,
          "velocity": 1
        },
        {
          "duration": 0.171875,
          "durationTicks": 33,
          "midi": 46,
          "name": "A#2",
          "ticks": 9522,
          "time": 49.59375,
          "velocity": 1
        },
        {
          "duration": 0.1666666666666714,
          "durationTicks": 32,
          "midi": 48,
          "name": "C3",
          "ticks": 9599,
          "time": 49.994791666666664,
          "velocity": 1
        },
        {
          "duration": 0.171875,
          "durationTicks": 33,
          "midi": 46,
          "name": "A#2",
          "ticks": 9676,
          "time": 50.395833333333336,
          "velocity": 1
        },
        {
          "duration": 0.1875,
          "durationTicks": 36,
          "midi": 48,
          "name": "C3",
          "ticks": 9714,
          "time": 50.59375,
          "velocity": 0.7874015748031497
        },
        {
          "duration": 0.2083333333333357,
          "durationTicks": 40,
          "midi": 51,
          "name": "D#3",
          "ticks": 9714,
          "time": 50.59375,
          "velocity": 1
        },
        {
          "duration": 0.2083333333333357,
          "durationTicks": 40,
          "midi": 44,
          "name": "G#2",
          "ticks": 9830,
          "time": 51.197916666666664,
          "velocity": 0.7874015748031497
        },
        {
          "duration": 0.1197916666666643,
          "durationTicks": 23,
          "midi": 48,
          "name": "C3",
          "ticks": 10060,
          "time": 52.395833333333336,
          "velocity": 1
        },
        {
          "duration": 0.140625,
          "durationTicks": 27,
          "midi": 46,
          "name": "A#2",
          "ticks": 10136,
          "time": 52.791666666666664,
          "velocity": 1
        },
        {
          "duration": 0.1354166666666643,
          "durationTicks": 26,
          "midi": 48,
          "name": "C3",
          "ticks": 10213,
          "time": 53.192708333333336,
          "velocity": 1
        },
        {
          "duration": 0.1458333333333357,
          "durationTicks": 28,
          "midi": 46,
          "name": "A#2",
          "ticks": 10290,
          "time": 53.59375,
          "velocity": 1
        },
        {
          "duration": 0.1614583333333357,
          "durationTicks": 31,
          "midi": 48,
          "name": "C3",
          "ticks": 10328,
          "time": 53.791666666666664,
          "velocity": 0.7874015748031497
        },
        {
          "duration": 0.2083333333333357,
          "durationTicks": 40,
          "midi": 50,
          "name": "D3",
          "ticks": 10328,
          "time": 53.791666666666664,
          "velocity": 1
        },
        {
          "duration": 0.1354166666666643,
          "durationTicks": 26,
          "midi": 46,
          "name": "A#2",
          "ticks": 10444,
          "time": 54.395833333333336,
          "velocity": 1
        },
        {
          "duration": 0.1197916666666714,
          "durationTicks": 23,
          "midi": 48,
          "name": "C3",
          "ticks": 10520,
          "time": 54.791666666666664,
          "velocity": 1
        },
        {
          "duration": 0.1354166666666643,
          "durationTicks": 26,
          "midi": 46,
          "name": "A#2",
          "ticks": 10597,
          "time": 55.192708333333336,
          "velocity": 1
        },
        {
          "duration": 0.1302083333333357,
          "durationTicks": 25,
          "midi": 48,
          "name": "C3",
          "ticks": 10674,
          "time": 55.59375,
          "velocity": 1
        },
        {
          "duration": 0.140625,
          "durationTicks": 27,
          "midi": 46,
          "name": "A#2",
          "ticks": 10751,
          "time": 55.994791666666664,
          "velocity": 1
        },
        {
          "duration": 0.1302083333333286,
          "durationTicks": 25,
          "midi": 48,
          "name": "C3",
          "ticks": 10828,
          "time": 56.395833333333336,
          "velocity": 1
        },
        {
          "duration": 0.1458333333333357,
          "durationTicks": 28,
          "midi": 46,
          "name": "A#2",
          "ticks": 10904,
          "time": 56.791666666666664,
          "velocity": 1
        },
        {
          "duration": 0.1614583333333286,
          "durationTicks": 31,
          "midi": 48,
          "name": "C3",
          "ticks": 10942,
          "time": 56.989583333333336,
          "velocity": 0.7874015748031497
        },
        {
          "duration": 0.2083333333333286,
          "durationTicks": 40,
          "midi": 52,
          "name": "E3",
          "ticks": 10942,
          "time": 56.989583333333336,
          "velocity": 1
        },
        {
          "duration": 0.140625,
          "durationTicks": 27,
          "midi": 46,
          "name": "A#2",
          "ticks": 11058,
          "time": 57.59375,
          "velocity": 1
        },
        {
          "duration": 0.1145833333333357,
          "durationTicks": 22,
          "midi": 48,
          "name": "C3",
          "ticks": 11135,
          "time": 57.994791666666664,
          "velocity": 1
        },
        {
          "duration": 0.1354166666666643,
          "durationTicks": 26,
          "midi": 46,
          "name": "A#2",
          "ticks": 11211,
          "time": 58.390625,
          "velocity": 1
        },
        {
          "duration": 0.1302083333333357,
          "durationTicks": 25,
          "midi": 48,
          "name": "C3",
          "ticks": 11288,
          "time": 58.791666666666664,
          "velocity": 1
        },
        {
          "duration": 0.140625,
          "durationTicks": 27,
          "midi": 46,
          "name": "A#2",
          "ticks": 11365,
          "time": 59.192708333333336,
          "velocity": 1
        },
        {
          "duration": 0.1354166666666643,
          "durationTicks": 26,
          "midi": 48,
          "name": "C3",
          "ticks": 11442,
          "time": 59.59375,
          "velocity": 1
        },
        {
          "duration": 0.140625,
          "durationTicks": 27,
          "midi": 46,
          "name": "A#2",
          "ticks": 11519,
          "time": 59.994791666666664,
          "velocity": 1
        },
        {
          "duration": 0.15625,
          "durationTicks": 30,
          "midi": 48,
          "name": "C3",
          "ticks": 11557,
          "time": 60.192708333333336,
          "velocity": 0.7874015748031497
        },
        {
          "duration": 0.203125,
          "durationTicks": 39,
          "midi": 50,
          "name": "D3",
          "ticks": 11557,
          "time": 60.192708333333336,
          "velocity": 1
        },
        {
          "duration": 0.1354166666666643,
          "durationTicks": 26,
          "midi": 46,
          "name": "A#2",
          "ticks": 11674,
          "time": 60.802083333333336,
          "velocity": 1
        },
        {
          "duration": 0.1354166666666714,
          "durationTicks": 26,
          "midi": 48,
          "name": "C3",
          "ticks": 11750,
          "time": 61.197916666666664,
          "velocity": 1
        },
        {
          "duration": 0.1458333333333286,
          "durationTicks": 28,
          "midi": 46,
          "name": "A#2",
          "ticks": 11827,
          "time": 61.598958333333336,
          "velocity": 1
        },
        {
          "duration": 0.1302083333333286,
          "durationTicks": 25,
          "midi": 48,
          "name": "C3",
          "ticks": 11905,
          "time": 62.005208333333336,
          "velocity": 1
        },
        {
          "duration": 0.1458333333333357,
          "durationTicks": 28,
          "midi": 46,
          "name": "A#2",
          "ticks": 11981,
          "time": 62.401041666666664,
          "velocity": 1
        },
        {
          "duration": 0.15625,
          "durationTicks": 30,
          "midi": 48,
          "name": "C3",
          "ticks": 12057,
          "time": 62.796875,
          "velocity": 0.7874015748031497
        },
        {
          "duration": 0.140625,
          "durationTicks": 27,
          "midi": 46,
          "name": "A#2",
          "ticks": 12135,
          "time": 63.203125,
          "velocity": 1
        },
        {
          "duration": 0.0677083333333286,
          "durationTicks": 13,
          "midi": 40,
          "name": "E2",
          "ticks": 12288,
          "time": 64,
          "velocity": 0.7874015748031497
        },
        {
          "duration": 0.0729166666666714,
          "durationTicks": 14,
          "midi": 40,
          "name": "E2",
          "ticks": 12346,
          "time": 64.30208333333333,
          "velocity": 0.7874015748031497
        },
        {
          "duration": 0.0729166666666714,
          "durationTicks": 14,
          "midi": 42,
          "name": "F#2",
          "ticks": 12364,
          "time": 64.39583333333333,
          "velocity": 0.7874015748031497
        },
        {
          "duration": 0.0729166666666714,
          "durationTicks": 14,
          "midi": 40,
          "name": "E2",
          "ticks": 12403,
          "time": 64.59895833333333,
          "velocity": 0.7874015748031497
        },
        {
          "duration": 0.0677083333333286,
          "durationTicks": 13,
          "midi": 40,
          "name": "E2",
          "ticks": 12480,
          "time": 65,
          "velocity": 0.7874015748031497
        },
        {
          "duration": 0.07291666666665719,
          "durationTicks": 14,
          "midi": 42,
          "name": "F#2",
          "ticks": 12518,
          "time": 65.19791666666667,
          "velocity": 0.7874015748031497
        },
        {
          "duration": 0.09375,
          "durationTicks": 18,
          "midi": 40,
          "name": "E2",
          "ticks": 12595,
          "time": 65.59895833333333,
          "velocity": 0.7874015748031497
        },
        {
          "duration": 0.0729166666666714,
          "durationTicks": 14,
          "midi": 40,
          "name": "E2",
          "ticks": 12652,
          "time": 65.89583333333333,
          "velocity": 0.7874015748031497
        },
        {
          "duration": 0.0677083333333286,
          "durationTicks": 13,
          "midi": 42,
          "name": "F#2",
          "ticks": 12672,
          "time": 66,
          "velocity": 0.7874015748031497
        },
        {
          "duration": 0.07291666666665719,
          "durationTicks": 14,
          "midi": 40,
          "name": "E2",
          "ticks": 12710,
          "time": 66.19791666666667,
          "velocity": 0.7874015748031497
        },
        {
          "duration": 0.0729166666666714,
          "durationTicks": 14,
          "midi": 40,
          "name": "E2",
          "ticks": 12748,
          "time": 66.39583333333333,
          "velocity": 0.7874015748031497
        },
        {
          "duration": 0.0989583333333286,
          "durationTicks": 19,
          "midi": 40,
          "name": "E2",
          "ticks": 12786,
          "time": 66.59375,
          "velocity": 0.7874015748031497
        },
        {
          "duration": 0.0989583333333286,
          "durationTicks": 19,
          "midi": 42,
          "name": "F#2",
          "ticks": 12786,
          "time": 66.59375,
          "velocity": 0.7874015748031497
        },
        {
          "duration": 0.07291666666665719,
          "durationTicks": 14,
          "midi": 42,
          "name": "F#2",
          "ticks": 12824,
          "time": 66.79166666666667,
          "velocity": 0.7874015748031497
        },
        {
          "duration": 0.078125,
          "durationTicks": 15,
          "midi": 42,
          "name": "F#2",
          "ticks": 12862,
          "time": 66.98958333333333,
          "velocity": 0.7874015748031497
        },
        {
          "duration": 0.11979166666665719,
          "durationTicks": 23,
          "midi": 40,
          "name": "E2",
          "ticks": 12902,
          "time": 67.19791666666667,
          "velocity": 0.7874015748031497
        },
        {
          "duration": 0.0729166666666714,
          "durationTicks": 14,
          "midi": 40,
          "name": "E2",
          "ticks": 12960,
          "time": 67.5,
          "velocity": 0.7874015748031497
        },
        {
          "duration": 0.0729166666666714,
          "durationTicks": 14,
          "midi": 42,
          "name": "F#2",
          "ticks": 12978,
          "time": 67.59375,
          "velocity": 0.7874015748031497
        },
        {
          "duration": 0.0729166666666714,
          "durationTicks": 14,
          "midi": 40,
          "name": "E2",
          "ticks": 13017,
          "time": 67.796875,
          "velocity": 0.7874015748031497
        },
        {
          "duration": 0.07291666666665719,
          "durationTicks": 14,
          "midi": 40,
          "name": "E2",
          "ticks": 13094,
          "time": 68.19791666666667,
          "velocity": 0.7874015748031497
        },
        {
          "duration": 0.0729166666666714,
          "durationTicks": 14,
          "midi": 42,
          "name": "F#2",
          "ticks": 13132,
          "time": 68.39583333333333,
          "velocity": 0.7874015748031497
        },
        {
          "duration": 0.0729166666666714,
          "durationTicks": 14,
          "midi": 40,
          "name": "E2",
          "ticks": 13209,
          "time": 68.796875,
          "velocity": 0.7874015748031497
        },
        {
          "duration": 0.0729166666666714,
          "durationTicks": 14,
          "midi": 40,
          "name": "E2",
          "ticks": 13266,
          "time": 69.09375,
          "velocity": 0.7874015748031497
        },
        {
          "duration": 0.07291666666665719,
          "durationTicks": 14,
          "midi": 42,
          "name": "F#2",
          "ticks": 13286,
          "time": 69.19791666666667,
          "velocity": 0.7874015748031497
        },
        {
          "duration": 0.0729166666666714,
          "durationTicks": 14,
          "midi": 40,
          "name": "E2",
          "ticks": 13324,
          "time": 69.39583333333333,
          "velocity": 0.7874015748031497
        },
        {
          "duration": 0.0729166666666714,
          "durationTicks": 14,
          "midi": 40,
          "name": "E2",
          "ticks": 13362,
          "time": 69.59375,
          "velocity": 0.7874015748031497
        },
        {
          "duration": 0.07291666666665719,
          "durationTicks": 14,
          "midi": 42,
          "name": "F#2",
          "ticks": 13400,
          "time": 69.79166666666667,
          "velocity": 0.7874015748031497
        },
        {
          "duration": 0.078125,
          "durationTicks": 15,
          "midi": 42,
          "name": "F#2",
          "ticks": 13438,
          "time": 69.98958333333333,
          "velocity": 0.7874015748031497
        },
        {
          "duration": 0.06770833333334281,
          "durationTicks": 13,
          "midi": 42,
          "name": "F#2",
          "ticks": 13477,
          "time": 70.19270833333333,
          "velocity": 0.7874015748031497
        },
        {
          "duration": 0.0729166666666714,
          "durationTicks": 14,
          "midi": 40,
          "name": "E2",
          "ticks": 13516,
          "time": 70.39583333333333,
          "velocity": 0.7874015748031497
        },
        {
          "duration": 0.07291666666665719,
          "durationTicks": 14,
          "midi": 40,
          "name": "E2",
          "ticks": 13574,
          "time": 70.69791666666667,
          "velocity": 0.7874015748031497
        },
        {
          "duration": 0.0677083333333286,
          "durationTicks": 13,
          "midi": 42,
          "name": "F#2",
          "ticks": 13593,
          "time": 70.796875,
          "velocity": 0.7874015748031497
        },
        {
          "duration": 0.0677083333333286,
          "durationTicks": 13,
          "midi": 40,
          "name": "E2",
          "ticks": 13632,
          "time": 71,
          "velocity": 0.7874015748031497
        },
        {
          "duration": 0.0729166666666714,
          "durationTicks": 14,
          "midi": 40,
          "name": "E2",
          "ticks": 13708,
          "time": 71.39583333333333,
          "velocity": 0.7874015748031497
        },
        {
          "duration": 0.0729166666666714,
          "durationTicks": 14,
          "midi": 42,
          "name": "F#2",
          "ticks": 13746,
          "time": 71.59375,
          "velocity": 0.7874015748031497
        },
        {
          "duration": 0.0677083333333286,
          "durationTicks": 13,
          "midi": 40,
          "name": "E2",
          "ticks": 13824,
          "time": 72,
          "velocity": 0.7874015748031497
        },
        {
          "duration": 0.0677083333333286,
          "durationTicks": 13,
          "midi": 40,
          "name": "E2",
          "ticks": 13881,
          "time": 72.296875,
          "velocity": 0.7874015748031497
        },
        {
          "duration": 0.0729166666666714,
          "durationTicks": 14,
          "midi": 42,
          "name": "F#2",
          "ticks": 13900,
          "time": 72.39583333333333,
          "velocity": 0.7874015748031497
        },
        {
          "duration": 0.0729166666666714,
          "durationTicks": 14,
          "midi": 40,
          "name": "E2",
          "ticks": 13939,
          "time": 72.59895833333333,
          "velocity": 0.7874015748031497
        },
        {
          "duration": 0.0729166666666714,
          "durationTicks": 14,
          "midi": 40,
          "name": "E2",
          "ticks": 13977,
          "time": 72.796875,
          "velocity": 0.7874015748031497
        },
        {
          "duration": 0.078125,
          "durationTicks": 15,
          "midi": 40,
          "name": "E2",
          "ticks": 14014,
          "time": 72.98958333333333,
          "velocity": 0.7874015748031497
        },
        {
          "duration": 0.078125,
          "durationTicks": 15,
          "midi": 42,
          "name": "F#2",
          "ticks": 14014,
          "time": 72.98958333333333,
          "velocity": 0.7874015748031497
        },
        {
          "duration": 0.0729166666666714,
          "durationTicks": 14,
          "midi": 42,
          "name": "F#2",
          "ticks": 14052,
          "time": 73.1875,
          "velocity": 0.7874015748031497
        },
        {
          "duration": 0.0729166666666714,
          "durationTicks": 14,
          "midi": 42,
          "name": "F#2",
          "ticks": 14091,
          "time": 73.390625,
          "velocity": 0.7874015748031497
        },
        {
          "duration": 0.0989583333333286,
          "durationTicks": 19,
          "midi": 40,
          "name": "E2",
          "ticks": 14130,
          "time": 73.59375,
          "velocity": 0.7874015748031497
        },
        {
          "duration": 0.0729166666666714,
          "durationTicks": 14,
          "midi": 40,
          "name": "E2",
          "ticks": 14188,
          "time": 73.89583333333333,
          "velocity": 0.7874015748031497
        },
        {
          "duration": 0.07291666666665719,
          "durationTicks": 14,
          "midi": 42,
          "name": "F#2",
          "ticks": 14207,
          "time": 73.99479166666667,
          "velocity": 0.7874015748031497
        },
        {
          "duration": 0.07291666666665719,
          "durationTicks": 14,
          "midi": 40,
          "name": "E2",
          "ticks": 14246,
          "time": 74.19791666666667,
          "velocity": 0.7874015748031497
        },
        {
          "duration": 0.0729166666666714,
          "durationTicks": 14,
          "midi": 40,
          "name": "E2",
          "ticks": 14322,
          "time": 74.59375,
          "velocity": 0.7874015748031497
        },
        {
          "duration": 0.0677083333333286,
          "durationTicks": 13,
          "midi": 42,
          "name": "F#2",
          "ticks": 14361,
          "time": 74.796875,
          "velocity": 0.7874015748031497
        },
        {
          "duration": 0.07291666666665719,
          "durationTicks": 14,
          "midi": 40,
          "name": "E2",
          "ticks": 14438,
          "time": 75.19791666666667,
          "velocity": 0.7874015748031497
        },
        {
          "duration": 0.07291666666665719,
          "durationTicks": 14,
          "midi": 40,
          "name": "E2",
          "ticks": 14495,
          "time": 75.49479166666667,
          "velocity": 0.7874015748031497
        },
        {
          "duration": 0.0989583333333286,
          "durationTicks": 19,
          "midi": 42,
          "name": "F#2",
          "ticks": 14514,
          "time": 75.59375,
          "velocity": 0.7874015748031497
        },
        {
          "duration": 0.0729166666666714,
          "durationTicks": 14,
          "midi": 40,
          "name": "E2",
          "ticks": 14553,
          "time": 75.796875,
          "velocity": 0.7874015748031497
        },
        {
          "duration": 0.07291666666665719,
          "durationTicks": 14,
          "midi": 40,
          "name": "E2",
          "ticks": 14591,
          "time": 75.99479166666667,
          "velocity": 0.7874015748031497
        },
        {
          "duration": 0.0729166666666714,
          "durationTicks": 14,
          "midi": 40,
          "name": "E2",
          "ticks": 14628,
          "time": 76.1875,
          "velocity": 0.7874015748031497
        },
        {
          "duration": 0.0729166666666714,
          "durationTicks": 14,
          "midi": 42,
          "name": "F#2",
          "ticks": 14628,
          "time": 76.1875,
          "velocity": 0.7874015748031497
        },
        {
          "duration": 0.07291666666665719,
          "durationTicks": 14,
          "midi": 42,
          "name": "F#2",
          "ticks": 14666,
          "time": 76.38541666666667,
          "velocity": 0.7874015748031497
        },
        {
          "duration": 0.07291666666665719,
          "durationTicks": 14,
          "midi": 42,
          "name": "F#2",
          "ticks": 14705,
          "time": 76.58854166666667,
          "velocity": 0.7874015748031497
        },
        {
          "duration": 0.0729166666666714,
          "durationTicks": 14,
          "midi": 41,
          "name": "F2",
          "ticks": 14745,
          "time": 76.796875,
          "velocity": 0.7874015748031497
        },
        {
          "duration": 0.0729166666666714,
          "durationTicks": 14,
          "midi": 40,
          "name": "E2",
          "ticks": 14803,
          "time": 77.09895833333333,
          "velocity": 0.7874015748031497
        },
        {
          "duration": 0.07291666666665719,
          "durationTicks": 14,
          "midi": 42,
          "name": "F#2",
          "ticks": 14822,
          "time": 77.19791666666667,
          "velocity": 0.7874015748031497
        },
        {
          "duration": 0.07291666666665719,
          "durationTicks": 14,
          "midi": 40,
          "name": "E2",
          "ticks": 14861,
          "time": 77.40104166666667,
          "velocity": 0.7874015748031497
        },
        {
          "duration": 0.0729166666666714,
          "durationTicks": 14,
          "midi": 40,
          "name": "E2",
          "ticks": 14937,
          "time": 77.796875,
          "velocity": 0.7874015748031497
        },
        {
          "duration": 0.0729166666666714,
          "durationTicks": 14,
          "midi": 42,
          "name": "F#2",
          "ticks": 14976,
          "time": 78,
          "velocity": 0.7874015748031497
        },
        {
          "duration": 0.07291666666665719,
          "durationTicks": 14,
          "midi": 40,
          "name": "E2",
          "ticks": 15053,
          "time": 78.40104166666667,
          "velocity": 0.7874015748031497
        },
        {
          "duration": 0.07291666666665719,
          "durationTicks": 14,
          "midi": 40,
          "name": "E2",
          "ticks": 15110,
          "time": 78.69791666666667,
          "velocity": 0.7874015748031497
        },
        {
          "duration": 0.0729166666666714,
          "durationTicks": 14,
          "midi": 42,
          "name": "F#2",
          "ticks": 15129,
          "time": 78.796875,
          "velocity": 0.7874015748031497
        },
        {
          "duration": 0.0729166666666714,
          "durationTicks": 14,
          "midi": 40,
          "name": "E2",
          "ticks": 15168,
          "time": 79,
          "velocity": 0.7874015748031497
        },
        {
          "duration": 0.07291666666665719,
          "durationTicks": 14,
          "midi": 40,
          "name": "E2",
          "ticks": 15206,
          "time": 79.19791666666667,
          "velocity": 0.7874015748031497
        },
        {
          "duration": 0.0729166666666714,
          "durationTicks": 14,
          "midi": 42,
          "name": "F#2",
          "ticks": 15243,
          "time": 79.390625,
          "velocity": 0.7874015748031497
        },
        {
          "duration": 0.0989583333333286,
          "durationTicks": 19,
          "midi": 42,
          "name": "F#2",
          "ticks": 15282,
          "time": 79.59375,
          "velocity": 0.7874015748031497
        },
        {
          "duration": 0.07291666666665719,
          "durationTicks": 14,
          "midi": 42,
          "name": "F#2",
          "ticks": 15320,
          "time": 79.79166666666667,
          "velocity": 0.7874015748031497
        },
        {
          "duration": 0.0677083333333286,
          "durationTicks": 13,
          "midi": 41,
          "name": "F2",
          "ticks": 15360,
          "time": 80,
          "velocity": 0.7874015748031497
        },
        {
          "duration": 0.0729166666666714,
          "durationTicks": 14,
          "midi": 39,
          "name": "D#2",
          "ticks": 15436,
          "time": 80.39583333333333,
          "velocity": 0.7874015748031497
        },
        {
          "duration": 0.0729166666666714,
          "durationTicks": 14,
          "midi": 41,
          "name": "F2",
          "ticks": 15436,
          "time": 80.39583333333333,
          "velocity": 0.7874015748031497
        },
        {
          "duration": 0.0729166666666714,
          "durationTicks": 14,
          "midi": 41,
          "name": "F2",
          "ticks": 15475,
          "time": 80.59895833333333,
          "velocity": 0.7874015748031497
        },
        {
          "duration": 0.0729166666666714,
          "durationTicks": 14,
          "midi": 41,
          "name": "F2",
          "ticks": 15513,
          "time": 80.796875,
          "velocity": 0.7874015748031497
        },
        {
          "duration": 0.0677083333333286,
          "durationTicks": 13,
          "midi": 41,
          "name": "F2",
          "ticks": 15552,
          "time": 81,
          "velocity": 0.7874015748031497
        },
        {
          "duration": 0.07291666666665719,
          "durationTicks": 14,
          "midi": 39,
          "name": "D#2",
          "ticks": 15590,
          "time": 81.19791666666667,
          "velocity": 0.7874015748031497
        },
        {
          "duration": 0.07291666666665719,
          "durationTicks": 14,
          "midi": 41,
          "name": "F2",
          "ticks": 15590,
          "time": 81.19791666666667,
          "velocity": 0.7874015748031497
        },
        {
          "duration": 0.07291666666665719,
          "durationTicks": 14,
          "midi": 41,
          "name": "F2",
          "ticks": 15629,
          "time": 81.40104166666667,
          "velocity": 0.7874015748031497
        },
        {
          "duration": 0.171875,
          "durationTicks": 33,
          "midi": 36,
          "name": "C2",
          "ticks": 15660,
          "time": 81.5625,
          "velocity": 0.7874015748031497
        },
        {
          "duration": 0.1041666666666714,
          "durationTicks": 20,
          "midi": 36,
          "name": "C2",
          "ticks": 15780,
          "time": 82.1875,
          "velocity": 0.7874015748031497
        },
        {
          "duration": 0.078125,
          "durationTicks": 15,
          "midi": 36,
          "name": "C2",
          "ticks": 15816,
          "time": 82.375,
          "velocity": 0.7874015748031497
        },
        {
          "duration": 0.1302083333333286,
          "durationTicks": 25,
          "midi": 36,
          "name": "C2",
          "ticks": 15974,
          "time": 83.19791666666667,
          "velocity": 0.7874015748031497
        },
        {
          "duration": 0.057291666666671404,
          "durationTicks": 11,
          "midi": 36,
          "name": "C2",
          "ticks": 16089,
          "time": 83.796875,
          "velocity": 0.7874015748031497
        },
        {
          "duration": 0.078125,
          "durationTicks": 15,
          "midi": 36,
          "name": "C2",
          "ticks": 16128,
          "time": 84,
          "velocity": 0.7874015748031497
        },
        {
          "duration": 0.3958333333333286,
          "durationTicks": 76,
          "midi": 44,
          "name": "G#2",
          "ticks": 16281,
          "time": 84.796875,
          "velocity": 0.7874015748031497
        },
        {
          "duration": 0.2135416666666714,
          "durationTicks": 41,
          "midi": 48,
          "name": "C3",
          "ticks": 16512,
          "time": 86,
          "velocity": 1
        },
        {
          "duration": 0.234375,
          "durationTicks": 45,
          "midi": 46,
          "name": "A#2",
          "ticks": 16588,
          "time": 86.39583333333333,
          "velocity": 1
        },
        {
          "duration": 0.2291666666666714,
          "durationTicks": 44,
          "midi": 48,
          "name": "C3",
          "ticks": 16665,
          "time": 86.796875,
          "velocity": 1
        },
        {
          "duration": 0.2395833333333286,
          "durationTicks": 46,
          "midi": 46,
          "name": "A#2",
          "ticks": 16742,
          "time": 87.19791666666667,
          "velocity": 1
        },
        {
          "duration": 0.2552083333333428,
          "durationTicks": 49,
          "midi": 48,
          "name": "C3",
          "ticks": 16780,
          "time": 87.39583333333333,
          "velocity": 0.7874015748031497
        },
        {
          "duration": 0.3958333333333428,
          "durationTicks": 76,
          "midi": 50,
          "name": "D3",
          "ticks": 16780,
          "time": 87.39583333333333,
          "velocity": 1
        },
        {
          "duration": 0.2291666666666714,
          "durationTicks": 44,
          "midi": 46,
          "name": "A#2",
          "ticks": 16896,
          "time": 88,
          "velocity": 1
        },
        {
          "duration": 0.2135416666666714,
          "durationTicks": 41,
          "midi": 48,
          "name": "C3",
          "ticks": 16972,
          "time": 88.39583333333333,
          "velocity": 1
        },
        {
          "duration": 0.2291666666666714,
          "durationTicks": 44,
          "midi": 46,
          "name": "A#2",
          "ticks": 17049,
          "time": 88.796875,
          "velocity": 1
        },
        {
          "duration": 0.2291666666666714,
          "durationTicks": 44,
          "midi": 48,
          "name": "C3",
          "ticks": 17125,
          "time": 89.19270833333333,
          "velocity": 1
        },
        {
          "duration": 0.234375,
          "durationTicks": 45,
          "midi": 46,
          "name": "A#2",
          "ticks": 17203,
          "time": 89.59895833333333,
          "velocity": 1
        },
        {
          "duration": 0.2239583333333286,
          "durationTicks": 43,
          "midi": 48,
          "name": "C3",
          "ticks": 17280,
          "time": 90,
          "velocity": 1
        },
        {
          "duration": 0.2395833333333428,
          "durationTicks": 46,
          "midi": 46,
          "name": "A#2",
          "ticks": 17356,
          "time": 90.39583333333333,
          "velocity": 1
        },
        {
          "duration": 0.2552083333333286,
          "durationTicks": 49,
          "midi": 48,
          "name": "C3",
          "ticks": 17394,
          "time": 90.59375,
          "velocity": 0.7874015748031497
        },
        {
          "duration": 0.3958333333333286,
          "durationTicks": 76,
          "midi": 50,
          "name": "D3",
          "ticks": 17394,
          "time": 90.59375,
          "velocity": 1
        },
        {
          "duration": 0.234375,
          "durationTicks": 45,
          "midi": 46,
          "name": "A#2",
          "ticks": 17510,
          "time": 91.19791666666667,
          "velocity": 1
        },
        {
          "duration": 0.2083333333333428,
          "durationTicks": 40,
          "midi": 48,
          "name": "C3",
          "ticks": 17587,
          "time": 91.59895833333333,
          "velocity": 1
        },
        {
          "duration": 0.2291666666666572,
          "durationTicks": 44,
          "midi": 46,
          "name": "A#2",
          "ticks": 17663,
          "time": 91.99479166666667,
          "velocity": 1
        },
        {
          "duration": 0.2239583333333428,
          "durationTicks": 43,
          "midi": 48,
          "name": "C3",
          "ticks": 17740,
          "time": 92.39583333333333,
          "velocity": 1
        },
        {
          "duration": 0.234375,
          "durationTicks": 45,
          "midi": 46,
          "name": "A#2",
          "ticks": 17817,
          "time": 92.796875,
          "velocity": 1
        },
        {
          "duration": 0.2291666666666572,
          "durationTicks": 44,
          "midi": 48,
          "name": "C3",
          "ticks": 17894,
          "time": 93.19791666666667,
          "velocity": 1
        },
        {
          "duration": 0.234375,
          "durationTicks": 45,
          "midi": 46,
          "name": "A#2",
          "ticks": 17971,
          "time": 93.59895833333333,
          "velocity": 1
        },
        {
          "duration": 0.25,
          "durationTicks": 48,
          "midi": 48,
          "name": "C3",
          "ticks": 18009,
          "time": 93.796875,
          "velocity": 0.7874015748031497
        },
        {
          "duration": 0.390625,
          "durationTicks": 75,
          "midi": 50,
          "name": "D3",
          "ticks": 18009,
          "time": 93.796875,
          "velocity": 1
        },
        {
          "duration": 0.234375,
          "durationTicks": 45,
          "midi": 46,
          "name": "A#2",
          "ticks": 18124,
          "time": 94.39583333333333,
          "velocity": 1
        },
        {
          "duration": 0.2083333333333286,
          "durationTicks": 40,
          "midi": 48,
          "name": "C3",
          "ticks": 18201,
          "time": 94.796875,
          "velocity": 1
        },
        {
          "duration": 0.2291666666666714,
          "durationTicks": 44,
          "midi": 46,
          "name": "A#2",
          "ticks": 18277,
          "time": 95.19270833333333,
          "velocity": 1
        },
        {
          "duration": 0.2239583333333286,
          "durationTicks": 43,
          "midi": 48,
          "name": "C3",
          "ticks": 18354,
          "time": 95.59375,
          "velocity": 1
        },
        {
          "duration": 0.2395833333333286,
          "durationTicks": 46,
          "midi": 46,
          "name": "A#2",
          "ticks": 18431,
          "time": 95.99479166666667,
          "velocity": 1
        },
        {
          "duration": 0.2291666666666714,
          "durationTicks": 44,
          "midi": 48,
          "name": "C3",
          "ticks": 18508,
          "time": 96.39583333333333,
          "velocity": 1
        },
        {
          "duration": 0.234375,
          "durationTicks": 45,
          "midi": 46,
          "name": "A#2",
          "ticks": 18585,
          "time": 96.796875,
          "velocity": 1
        },
        {
          "duration": 0.25,
          "durationTicks": 48,
          "midi": 48,
          "name": "C3",
          "ticks": 18623,
          "time": 96.99479166666667,
          "velocity": 0.7874015748031497
        },
        {
          "duration": 0.390625,
          "durationTicks": 75,
          "midi": 51,
          "name": "D#3",
          "ticks": 18623,
          "time": 96.99479166666667,
          "velocity": 1
        },
        {
          "duration": 0.3958333333333428,
          "durationTicks": 76,
          "midi": 44,
          "name": "G#2",
          "ticks": 18739,
          "time": 97.59895833333333,
          "velocity": 0.7874015748031497
        },
        {
          "duration": 0.2135416666666714,
          "durationTicks": 41,
          "midi": 48,
          "name": "C3",
          "ticks": 18969,
          "time": 98.796875,
          "velocity": 1
        },
        {
          "duration": 0.234375,
          "durationTicks": 45,
          "midi": 46,
          "name": "A#2",
          "ticks": 19045,
          "time": 99.19270833333333,
          "velocity": 1
        },
        {
          "duration": 0.2239583333333286,
          "durationTicks": 43,
          "midi": 48,
          "name": "C3",
          "ticks": 19122,
          "time": 99.59375,
          "velocity": 1
        },
        {
          "duration": 0.2395833333333286,
          "durationTicks": 46,
          "midi": 46,
          "name": "A#2",
          "ticks": 19199,
          "time": 99.99479166666667,
          "velocity": 1
        },
        {
          "duration": 0.2552083333333428,
          "durationTicks": 49,
          "midi": 48,
          "name": "C3",
          "ticks": 19237,
          "time": 100.19270833333333,
          "velocity": 0.7874015748031497
        },
        {
          "duration": 0.3958333333333428,
          "durationTicks": 76,
          "midi": 50,
          "name": "D3",
          "ticks": 19237,
          "time": 100.19270833333333,
          "velocity": 1
        },
        {
          "duration": 0.2291666666666714,
          "durationTicks": 44,
          "midi": 46,
          "name": "A#2",
          "ticks": 19353,
          "time": 100.796875,
          "velocity": 1
        },
        {
          "duration": 0.2135416666666714,
          "durationTicks": 41,
          "midi": 48,
          "name": "C3",
          "ticks": 19429,
          "time": 101.19270833333333,
          "velocity": 1
        },
        {
          "duration": 0.2291666666666714,
          "durationTicks": 44,
          "midi": 46,
          "name": "A#2",
          "ticks": 19506,
          "time": 101.59375,
          "velocity": 1
        },
        {
          "duration": 0.2291666666666714,
          "durationTicks": 44,
          "midi": 48,
          "name": "C3",
          "ticks": 19582,
          "time": 101.98958333333333,
          "velocity": 1
        },
        {
          "duration": 0.2395833333333286,
          "durationTicks": 46,
          "midi": 46,
          "name": "A#2",
          "ticks": 19659,
          "time": 102.390625,
          "velocity": 1
        },
        {
          "duration": 0.2239583333333286,
          "durationTicks": 43,
          "midi": 48,
          "name": "C3",
          "ticks": 19737,
          "time": 102.796875,
          "velocity": 1
        },
        {
          "duration": 0.2395833333333428,
          "durationTicks": 46,
          "midi": 46,
          "name": "A#2",
          "ticks": 19813,
          "time": 103.19270833333333,
          "velocity": 1
        },
        {
          "duration": 0.2552083333333286,
          "durationTicks": 49,
          "midi": 48,
          "name": "C3",
          "ticks": 19851,
          "time": 103.390625,
          "velocity": 0.7874015748031497
        },
        {
          "duration": 0.3958333333333286,
          "durationTicks": 76,
          "midi": 52,
          "name": "E3",
          "ticks": 19851,
          "time": 103.390625,
          "velocity": 1
        },
        {
          "duration": 0.2291666666666572,
          "durationTicks": 44,
          "midi": 46,
          "name": "A#2",
          "ticks": 19967,
          "time": 103.99479166666667,
          "velocity": 1
        },
        {
          "duration": 0.2135416666666714,
          "durationTicks": 41,
          "midi": 48,
          "name": "C3",
          "ticks": 20043,
          "time": 104.390625,
          "velocity": 1
        },
        {
          "duration": 0.2291666666666572,
          "durationTicks": 44,
          "midi": 46,
          "name": "A#2",
          "ticks": 20120,
          "time": 104.79166666666667,
          "velocity": 1
        },
        {
          "duration": 0.2239583333333428,
          "durationTicks": 43,
          "midi": 48,
          "name": "C3",
          "ticks": 20197,
          "time": 105.19270833333333,
          "velocity": 1
        },
        {
          "duration": 0.234375,
          "durationTicks": 45,
          "midi": 46,
          "name": "A#2",
          "ticks": 20274,
          "time": 105.59375,
          "velocity": 1
        },
        {
          "duration": 0.2239583333333286,
          "durationTicks": 43,
          "midi": 48,
          "name": "C3",
          "ticks": 20351,
          "time": 105.99479166666667,
          "velocity": 1
        },
        {
          "duration": 0.2395833333333286,
          "durationTicks": 46,
          "midi": 46,
          "name": "A#2",
          "ticks": 20427,
          "time": 106.390625,
          "velocity": 1
        },
        {
          "duration": 0.2552083333333286,
          "durationTicks": 49,
          "midi": 48,
          "name": "C3",
          "ticks": 20465,
          "time": 106.58854166666667,
          "velocity": 0.7874015748031497
        },
        {
          "duration": 0.3958333333333286,
          "durationTicks": 76,
          "midi": 51,
          "name": "D#3",
          "ticks": 20465,
          "time": 106.58854166666667,
          "velocity": 1
        },
        {
          "duration": 0.234375,
          "durationTicks": 45,
          "midi": 46,
          "name": "A#2",
          "ticks": 20582,
          "time": 107.19791666666667,
          "velocity": 1
        },
        {
          "duration": 0.2291666666666714,
          "durationTicks": 44,
          "midi": 48,
          "name": "C3",
          "ticks": 20659,
          "time": 107.59895833333333,
          "velocity": 1
        },
        {
          "duration": 0.2395833333333286,
          "durationTicks": 46,
          "midi": 46,
          "name": "A#2",
          "ticks": 20736,
          "time": 108,
          "velocity": 1
        },
        {
          "duration": 0.2291666666666572,
          "durationTicks": 44,
          "midi": 48,
          "name": "C3",
          "ticks": 20813,
          "time": 108.40104166666667,
          "velocity": 1
        },
        {
          "duration": 0.234375,
          "durationTicks": 45,
          "midi": 46,
          "name": "A#2",
          "ticks": 20890,
          "time": 108.80208333333333,
          "velocity": 1
        },
        {
          "duration": 0.2552083333333428,
          "durationTicks": 49,
          "midi": 48,
          "name": "C3",
          "ticks": 20965,
          "time": 109.19270833333333,
          "velocity": 0.7874015748031497
        },
        {
          "duration": 0.2395833333333428,
          "durationTicks": 46,
          "midi": 46,
          "name": "A#2",
          "ticks": 21043,
          "time": 109.59895833333333,
          "velocity": 1
        },
        {
          "duration": 0.3958333333333286,
          "durationTicks": 76,
          "midi": 51,
          "name": "D#3",
          "ticks": 21081,
          "time": 109.796875,
          "velocity": 1
        },
        {
          "duration": 0.4114583333333286,
          "durationTicks": 79,
          "midi": 45,
          "name": "A2",
          "ticks": 21272,
          "time": 110.79166666666667,
          "velocity": 0.7874015748031497
        },
        {
          "duration": 0.4166666666666714,
          "durationTicks": 80,
          "midi": 47,
          "name": "B2",
          "ticks": 21423,
          "time": 111.578125,
          "velocity": 0.7874015748031497
        },
        {
          "duration": 0.4114583333333286,
          "durationTicks": 79,
          "midi": 45,
          "name": "A2",
          "ticks": 21579,
          "time": 112.390625,
          "velocity": 0.7874015748031497
        },
        {
          "duration": 0.4114583333333286,
          "durationTicks": 79,
          "midi": 49,
          "name": "C#3",
          "ticks": 21732,
          "time": 113.1875,
          "velocity": 0.7874015748031497
        },
        {
          "duration": 0.4114583333333286,
          "durationTicks": 79,
          "midi": 45,
          "name": "A2",
          "ticks": 21879,
          "time": 113.953125,
          "velocity": 0.7874015748031497
        },
        {
          "duration": 0.4114583333333428,
          "durationTicks": 79,
          "midi": 49,
          "name": "C#3",
          "ticks": 22039,
          "time": 114.78645833333333,
          "velocity": 0.7874015748031497
        },
        {
          "duration": 0.4114583333333428,
          "durationTicks": 79,
          "midi": 45,
          "name": "A2",
          "ticks": 22183,
          "time": 115.53645833333333,
          "velocity": 0.7874015748031497
        },
        {
          "duration": 0.4114583333333286,
          "durationTicks": 79,
          "midi": 45,
          "name": "A2",
          "ticks": 22337,
          "time": 116.33854166666667,
          "velocity": 0.7874015748031497
        },
        {
          "duration": 0.4114583333333286,
          "durationTicks": 79,
          "midi": 47,
          "name": "B2",
          "ticks": 22493,
          "time": 117.15104166666667,
          "velocity": 0.7874015748031497
        },
        {
          "duration": 0.4114583333333286,
          "durationTicks": 79,
          "midi": 49,
          "name": "C#3",
          "ticks": 22656,
          "time": 118,
          "velocity": 0.7874015748031497
        },
        {
          "duration": 0.4114583333333428,
          "durationTicks": 79,
          "midi": 49,
          "name": "C#3",
          "ticks": 22807,
          "time": 118.78645833333333,
          "velocity": 0.7874015748031497
        },
        {
          "duration": 0.4114583333333286,
          "durationTicks": 79,
          "midi": 45,
          "name": "A2",
          "ticks": 22962,
          "time": 119.59375,
          "velocity": 0.7874015748031497
        },
        {
          "duration": 0.4114583333333286,
          "durationTicks": 79,
          "midi": 49,
          "name": "C#3",
          "ticks": 23115,
          "time": 120.390625,
          "velocity": 0.7874015748031497
        },
        {
          "duration": 0.4114583333333428,
          "durationTicks": 79,
          "midi": 49,
          "name": "C#3",
          "ticks": 23263,
          "time": 121.16145833333333,
          "velocity": 0.7874015748031497
        },
        {
          "duration": 0.4166666666666714,
          "durationTicks": 80,
          "midi": 49,
          "name": "C#3",
          "ticks": 23422,
          "time": 121.98958333333333,
          "velocity": 0.7874015748031497
        },
        {
          "duration": 0.4166666666666714,
          "durationTicks": 80,
          "midi": 49,
          "name": "C#3",
          "ticks": 23566,
          "time": 122.73958333333333,
          "velocity": 0.7874015748031497
        },
        {
          "duration": 0.0833333333333286,
          "durationTicks": 16,
          "midi": 37,
          "name": "C#2",
          "ticks": 23616,
          "time": 123,
          "velocity": 1
        },
        {
          "duration": 0.0989583333333286,
          "durationTicks": 19,
          "midi": 37,
          "name": "C#2",
          "ticks": 23693,
          "time": 123.40104166666667,
          "velocity": 1
        },
        {
          "duration": 0.0833333333333286,
          "durationTicks": 16,
          "midi": 37,
          "name": "C#2",
          "ticks": 23712,
          "time": 123.5,
          "velocity": 1
        },
        {
          "duration": 0.0885416666666714,
          "durationTicks": 17,
          "midi": 39,
          "name": "D#2",
          "ticks": 23730,
          "time": 123.59375,
          "velocity": 1
        },
        {
          "duration": 0.0833333333333286,
          "durationTicks": 16,
          "midi": 37,
          "name": "C#2",
          "ticks": 23846,
          "time": 124.19791666666667,
          "velocity": 1
        },
        {
          "duration": 0.09375,
          "durationTicks": 18,
          "midi": 39,
          "name": "D#2",
          "ticks": 23884,
          "time": 124.39583333333333,
          "velocity": 1
        },
        {
          "duration": 0.08333333333334281,
          "durationTicks": 16,
          "midi": 37,
          "name": "C#2",
          "ticks": 23923,
          "time": 124.59895833333333,
          "velocity": 1
        },
        {
          "duration": 0.1197916666666714,
          "durationTicks": 23,
          "midi": 37,
          "name": "C#2",
          "ticks": 23961,
          "time": 124.796875,
          "velocity": 1
        },
        {
          "duration": 0.078125,
          "durationTicks": 15,
          "midi": 39,
          "name": "D#2",
          "ticks": 24037,
          "time": 125.19270833333333,
          "velocity": 1
        },
        {
          "duration": 0.09375,
          "durationTicks": 18,
          "midi": 37,
          "name": "C#2",
          "ticks": 24078,
          "time": 125.40625,
          "velocity": 1
        },
        {
          "duration": 0.08333333333334281,
          "durationTicks": 16,
          "midi": 37,
          "name": "C#2",
          "ticks": 24115,
          "time": 125.59895833333333,
          "velocity": 1
        },
        {
          "duration": 0.08333333333334281,
          "durationTicks": 16,
          "midi": 37,
          "name": "C#2",
          "ticks": 24154,
          "time": 125.80208333333333,
          "velocity": 1
        },
        {
          "duration": 0.0885416666666714,
          "durationTicks": 17,
          "midi": 39,
          "name": "D#2",
          "ticks": 24192,
          "time": 126,
          "velocity": 1
        },
        {
          "duration": 0.0833333333333286,
          "durationTicks": 16,
          "midi": 37,
          "name": "C#2",
          "ticks": 24231,
          "time": 126.203125,
          "velocity": 1
        },
        {
          "duration": 0.0989583333333286,
          "durationTicks": 19,
          "midi": 37,
          "name": "C#2",
          "ticks": 24269,
          "time": 126.40104166666667,
          "velocity": 1
        },
        {
          "duration": 0.0677083333333286,
          "durationTicks": 13,
          "midi": 39,
          "name": "D#2",
          "ticks": 24345,
          "time": 126.796875,
          "velocity": 1
        },
        {
          "duration": 0.0989583333333286,
          "durationTicks": 19,
          "midi": 37,
          "name": "C#2",
          "ticks": 24461,
          "time": 127.40104166666667,
          "velocity": 1
        },
        {
          "duration": 0.09375,
          "durationTicks": 18,
          "midi": 39,
          "name": "D#2",
          "ticks": 24499,
          "time": 127.59895833333333,
          "velocity": 1
        },
        {
          "duration": 0.11458333333334281,
          "durationTicks": 22,
          "midi": 37,
          "name": "C#2",
          "ticks": 24538,
          "time": 127.80208333333333,
          "velocity": 1
        },
        {
          "duration": 0.08333333333334281,
          "durationTicks": 16,
          "midi": 37,
          "name": "C#2",
          "ticks": 24576,
          "time": 128,
          "velocity": 1
        },
        {
          "duration": 0.078125,
          "durationTicks": 15,
          "midi": 39,
          "name": "D#2",
          "ticks": 24651,
          "time": 128.390625,
          "velocity": 1
        },
        {
          "duration": 0.08333333333331439,
          "durationTicks": 16,
          "midi": 37,
          "name": "C#2",
          "ticks": 24691,
          "time": 128.59895833333334,
          "velocity": 1
        },
        {
          "duration": 0.08333333333331439,
          "durationTicks": 16,
          "midi": 37,
          "name": "C#2",
          "ticks": 24730,
          "time": 128.80208333333334,
          "velocity": 1
        },
        {
          "duration": 0.08333333333334281,
          "durationTicks": 16,
          "midi": 37,
          "name": "C#2",
          "ticks": 24768,
          "time": 129,
          "velocity": 1
        },
        {
          "duration": 0.08854166666668561,
          "durationTicks": 17,
          "midi": 39,
          "name": "D#2",
          "ticks": 24806,
          "time": 129.19791666666666,
          "velocity": 1
        },
        {
          "duration": 0.09895833333334281,
          "durationTicks": 19,
          "midi": 37,
          "name": "C#2",
          "ticks": 24845,
          "time": 129.40104166666666,
          "velocity": 1
        },
        {
          "duration": 0.08333333333331439,
          "durationTicks": 16,
          "midi": 37,
          "name": "C#2",
          "ticks": 24883,
          "time": 129.59895833333334,
          "velocity": 1
        },
        {
          "duration": 0.08854166666665719,
          "durationTicks": 17,
          "midi": 39,
          "name": "D#2",
          "ticks": 24960,
          "time": 130,
          "velocity": 1
        },
        {
          "duration": 0.09375,
          "durationTicks": 18,
          "midi": 45,
          "name": "A2",
          "ticks": 24960,
          "time": 130,
          "velocity": 0.7874015748031497
        },
        {
          "duration": 0.08333333333331439,
          "durationTicks": 16,
          "midi": 37,
          "name": "C#2",
          "ticks": 25075,
          "time": 130.59895833333334,
          "velocity": 1
        },
        {
          "duration": 0.08854166666665719,
          "durationTicks": 17,
          "midi": 39,
          "name": "D#2",
          "ticks": 25114,
          "time": 130.80208333333334,
          "velocity": 1
        },
        {
          "duration": 0.08333333333334281,
          "durationTicks": 16,
          "midi": 37,
          "name": "C#2",
          "ticks": 25152,
          "time": 131,
          "velocity": 1
        },
        {
          "duration": 0.078125,
          "durationTicks": 15,
          "midi": 39,
          "name": "D#2",
          "ticks": 25267,
          "time": 131.59895833333334,
          "velocity": 1
        },
        {
          "duration": 0.09375,
          "durationTicks": 18,
          "midi": 45,
          "name": "A2",
          "ticks": 25267,
          "time": 131.59895833333334,
          "velocity": 0.7874015748031497
        },
        {
          "duration": 0.10416666666665719,
          "durationTicks": 20,
          "midi": 37,
          "name": "C#2",
          "ticks": 25308,
          "time": 131.8125,
          "velocity": 1
        },
        {
          "duration": 0.08333333333334281,
          "durationTicks": 16,
          "midi": 37,
          "name": "C#2",
          "ticks": 25346,
          "time": 132.01041666666666,
          "velocity": 1
        },
        {
          "duration": 0.08333333333331439,
          "durationTicks": 16,
          "midi": 37,
          "name": "C#2",
          "ticks": 25384,
          "time": 132.20833333333334,
          "velocity": 1
        },
        {
          "duration": 0.109375,
          "durationTicks": 21,
          "midi": 45,
          "name": "A2",
          "ticks": 25423,
          "time": 132.41145833333334,
          "velocity": 0.7874015748031497
        },
        {
          "duration": 0.08854166666665719,
          "durationTicks": 17,
          "midi": 39,
          "name": "D#2",
          "ticks": 25423,
          "time": 132.41145833333334,
          "velocity": 1
        },
        {
          "duration": 0.08333333333334281,
          "durationTicks": 16,
          "midi": 37,
          "name": "C#2",
          "ticks": 25461,
          "time": 132.609375,
          "velocity": 1
        },
        {
          "duration": 0.10416666666665719,
          "durationTicks": 20,
          "midi": 37,
          "name": "C#2",
          "ticks": 25500,
          "time": 132.8125,
          "velocity": 1
        },
        {
          "duration": 0.08854166666665719,
          "durationTicks": 17,
          "midi": 39,
          "name": "D#2",
          "ticks": 25576,
          "time": 133.20833333333334,
          "velocity": 1
        },
        {
          "duration": 0.11458333333331439,
          "durationTicks": 22,
          "midi": 45,
          "name": "A2",
          "ticks": 25576,
          "time": 133.20833333333334,
          "velocity": 0.7874015748031497
        },
        {
          "duration": 0.11979166666665719,
          "durationTicks": 23,
          "midi": 37,
          "name": "C#2",
          "ticks": 25689,
          "time": 133.796875,
          "velocity": 1
        },
        {
          "duration": 0.08854166666665719,
          "durationTicks": 17,
          "midi": 39,
          "name": "D#2",
          "ticks": 25728,
          "time": 134,
          "velocity": 1
        },
        {
          "duration": 0.08333333333331439,
          "durationTicks": 16,
          "midi": 37,
          "name": "C#2",
          "ticks": 25765,
          "time": 134.19270833333334,
          "velocity": 1
        },
        {
          "duration": 0.08333333333334281,
          "durationTicks": 16,
          "midi": 37,
          "name": "C#2",
          "ticks": 25805,
          "time": 134.40104166666666,
          "velocity": 0.7874015748031497
        },
        {
          "duration": 0.078125,
          "durationTicks": 15,
          "midi": 39,
          "name": "D#2",
          "ticks": 25881,
          "time": 134.796875,
          "velocity": 1
        },
        {
          "duration": 0.08333333333331439,
          "durationTicks": 16,
          "midi": 37,
          "name": "C#2",
          "ticks": 25921,
          "time": 135.00520833333334,
          "velocity": 1
        },
        {
          "duration": 0.08333333333331439,
          "durationTicks": 16,
          "midi": 37,
          "name": "C#2",
          "ticks": 25960,
          "time": 135.20833333333334,
          "velocity": 1
        },
        {
          "duration": 0.08333333333334281,
          "durationTicks": 16,
          "midi": 37,
          "name": "C#2",
          "ticks": 26016,
          "time": 135.5,
          "velocity": 1
        },
        {
          "duration": 0.08333333333334281,
          "durationTicks": 16,
          "midi": 37,
          "name": "C#2",
          "ticks": 26073,
          "time": 135.796875,
          "velocity": 1
        },
        {
          "duration": 0.2135416666666572,
          "durationTicks": 41,
          "midi": 36,
          "name": "C2",
          "ticks": 26187,
          "time": 136.390625,
          "velocity": 1
        },
        {
          "duration": 0.09375,
          "durationTicks": 18,
          "midi": 39,
          "name": "D#2",
          "ticks": 26187,
          "time": 136.390625,
          "velocity": 1
        },
        {
          "duration": 0.1666666666666572,
          "durationTicks": 32,
          "midi": 36,
          "name": "C2",
          "ticks": 26260,
          "time": 136.77083333333334,
          "velocity": 1
        },
        {
          "duration": 0.34375,
          "durationTicks": 66,
          "midi": 38,
          "name": "D2",
          "ticks": 26304,
          "time": 137,
          "velocity": 0.7874015748031497
        },
        {
          "duration": 0.10416666666665719,
          "durationTicks": 20,
          "midi": 36,
          "name": "C2",
          "ticks": 26337,
          "time": 137.171875,
          "velocity": 1
        },
        {
          "duration": 0.10416666666665719,
          "durationTicks": 20,
          "midi": 36,
          "name": "C2",
          "ticks": 26415,
          "time": 137.578125,
          "velocity": 1
        },
        {
          "duration": 0.10416666666665719,
          "durationTicks": 20,
          "midi": 36,
          "name": "C2",
          "ticks": 26496,
          "time": 138,
          "velocity": 1
        },
        {
          "duration": 0.10416666666668561,
          "durationTicks": 20,
          "midi": 36,
          "name": "C2",
          "ticks": 26573,
          "time": 138.40104166666666,
          "velocity": 1
        },
        {
          "duration": 0.125,
          "durationTicks": 24,
          "midi": 36,
          "name": "C2",
          "ticks": 26652,
          "time": 138.8125,
          "velocity": 1
        },
        {
          "duration": 0.10416666666665719,
          "durationTicks": 20,
          "midi": 36,
          "name": "C2",
          "ticks": 26725,
          "time": 139.19270833333334,
          "velocity": 1
        },
        {
          "duration": 0.10416666666665719,
          "durationTicks": 20,
          "midi": 36,
          "name": "C2",
          "ticks": 26802,
          "time": 139.59375,
          "velocity": 1
        },
        {
          "duration": 0.10416666666665719,
          "durationTicks": 20,
          "midi": 36,
          "name": "C2",
          "ticks": 26880,
          "time": 140,
          "velocity": 1
        },
        {
          "duration": 0.10416666666665719,
          "durationTicks": 20,
          "midi": 36,
          "name": "C2",
          "ticks": 26958,
          "time": 140.40625,
          "velocity": 1
        },
        {
          "duration": 0.125,
          "durationTicks": 24,
          "midi": 36,
          "name": "C2",
          "ticks": 27036,
          "time": 140.8125,
          "velocity": 1
        },
        {
          "duration": 0.10416666666665719,
          "durationTicks": 20,
          "midi": 36,
          "name": "C2",
          "ticks": 27111,
          "time": 141.203125,
          "velocity": 1
        },
        {
          "duration": 0.10416666666665719,
          "durationTicks": 20,
          "midi": 36,
          "name": "C2",
          "ticks": 27187,
          "time": 141.59895833333334,
          "velocity": 1
        },
        {
          "duration": 0.109375,
          "durationTicks": 21,
          "midi": 36,
          "name": "C2",
          "ticks": 27263,
          "time": 141.99479166666666,
          "velocity": 1
        },
        {
          "duration": 0.10416666666668561,
          "durationTicks": 20,
          "midi": 36,
          "name": "C2",
          "ticks": 27341,
          "time": 142.40104166666666,
          "velocity": 1
        },
        {
          "duration": 0.10416666666665719,
          "durationTicks": 20,
          "midi": 36,
          "name": "C2",
          "ticks": 27418,
          "time": 142.80208333333334,
          "velocity": 1
        },
        {
          "duration": 0.10416666666668561,
          "durationTicks": 20,
          "midi": 36,
          "name": "C2",
          "ticks": 27494,
          "time": 143.19791666666666,
          "velocity": 1
        },
        {
          "duration": 0.125,
          "durationTicks": 24,
          "midi": 40,
          "name": "E2",
          "ticks": 27648,
          "time": 144,
          "velocity": 1
        },
        {
          "duration": 0.125,
          "durationTicks": 24,
          "midi": 39,
          "name": "D#2",
          "ticks": 27724,
          "time": 144.39583333333334,
          "velocity": 1
        },
        {
          "duration": 0.125,
          "durationTicks": 24,
          "midi": 40,
          "name": "E2",
          "ticks": 27801,
          "time": 144.796875,
          "velocity": 1
        },
        {
          "duration": 0.171875,
          "durationTicks": 33,
          "midi": 41,
          "name": "F2",
          "ticks": 27879,
          "time": 145.203125,
          "velocity": 0.7874015748031497
        },
        {
          "duration": 0.1510416666666572,
          "durationTicks": 29,
          "midi": 40,
          "name": "E2",
          "ticks": 27955,
          "time": 145.59895833333334,
          "velocity": 1
        },
        {
          "duration": 0.125,
          "durationTicks": 24,
          "midi": 39,
          "name": "D#2",
          "ticks": 28032,
          "time": 146,
          "velocity": 1
        },
        {
          "duration": 0.125,
          "durationTicks": 24,
          "midi": 40,
          "name": "E2",
          "ticks": 28108,
          "time": 146.39583333333334,
          "velocity": 1
        },
        {
          "duration": 0.125,
          "durationTicks": 24,
          "midi": 43,
          "name": "G2",
          "ticks": 28147,
          "time": 146.59895833333334,
          "velocity": 0.7874015748031497
        },
        {
          "duration": 0.125,
          "durationTicks": 24,
          "midi": 43,
          "name": "G2",
          "ticks": 28185,
          "time": 146.796875,
          "velocity": 0.7874015748031497
        },
        {
          "duration": 0.125,
          "durationTicks": 24,
          "midi": 39,
          "name": "D#2",
          "ticks": 28185,
          "time": 146.796875,
          "velocity": 1
        },
        {
          "duration": 0.125,
          "durationTicks": 24,
          "midi": 43,
          "name": "G2",
          "ticks": 28224,
          "time": 147,
          "velocity": 0.7874015748031497
        },
        {
          "duration": 0.125,
          "durationTicks": 24,
          "midi": 40,
          "name": "E2",
          "ticks": 28262,
          "time": 147.19791666666666,
          "velocity": 1
        },
        {
          "duration": 0.125,
          "durationTicks": 24,
          "midi": 39,
          "name": "D#2",
          "ticks": 28339,
          "time": 147.59895833333334,
          "velocity": 1
        },
        {
          "duration": 0.125,
          "durationTicks": 24,
          "midi": 40,
          "name": "E2",
          "ticks": 28416,
          "time": 148,
          "velocity": 1
        },
        {
          "duration": 0.125,
          "durationTicks": 24,
          "midi": 40,
          "name": "E2",
          "ticks": 28493,
          "time": 148.40104166666666,
          "velocity": 0.7874015748031497
        },
        {
          "duration": 0.125,
          "durationTicks": 24,
          "midi": 40,
          "name": "E2",
          "ticks": 28569,
          "time": 148.796875,
          "velocity": 1
        },
        {
          "duration": 0.125,
          "durationTicks": 24,
          "midi": 40,
          "name": "E2",
          "ticks": 28646,
          "time": 149.19791666666666,
          "velocity": 1
        },
        {
          "duration": 0.125,
          "durationTicks": 24,
          "midi": 40,
          "name": "E2",
          "ticks": 28722,
          "time": 149.59375,
          "velocity": 1
        },
        {
          "duration": 0.1302083333333428,
          "durationTicks": 25,
          "midi": 40,
          "name": "E2",
          "ticks": 28799,
          "time": 149.99479166666666,
          "velocity": 1
        },
        {
          "duration": 0.4166666666666572,
          "durationTicks": 80,
          "midi": 44,
          "name": "G#2",
          "ticks": 29184,
          "time": 152,
          "velocity": 0.7874015748031497
        },
        {
          "duration": 0.203125,
          "durationTicks": 39,
          "midi": 50,
          "name": "D3",
          "ticks": 29376,
          "time": 153,
          "velocity": 1
        },
        {
          "duration": 0.1458333333333428,
          "durationTicks": 28,
          "midi": 48,
          "name": "C3",
          "ticks": 29414,
          "time": 153.19791666666666,
          "velocity": 1
        },
        {
          "duration": 0.16145833333331439,
          "durationTicks": 31,
          "midi": 46,
          "name": "A#2",
          "ticks": 29491,
          "time": 153.59895833333334,
          "velocity": 1
        },
        {
          "duration": 0.1510416666666572,
          "durationTicks": 29,
          "midi": 48,
          "name": "C3",
          "ticks": 29568,
          "time": 154,
          "velocity": 1
        },
        {
          "duration": 0.16666666666668561,
          "durationTicks": 32,
          "midi": 46,
          "name": "A#2",
          "ticks": 29645,
          "time": 154.40104166666666,
          "velocity": 1
        },
        {
          "duration": 0.2135416666666572,
          "durationTicks": 41,
          "midi": 48,
          "name": "C3",
          "ticks": 29721,
          "time": 154.796875,
          "velocity": 0.7874015748031497
        },
        {
          "duration": 0.1614583333333428,
          "durationTicks": 31,
          "midi": 46,
          "name": "A#2",
          "ticks": 29798,
          "time": 155.19791666666666,
          "velocity": 1
        },
        {
          "duration": 0.140625,
          "durationTicks": 27,
          "midi": 48,
          "name": "C3",
          "ticks": 29875,
          "time": 155.59895833333334,
          "velocity": 1
        },
        {
          "duration": 0.1614583333333428,
          "durationTicks": 31,
          "midi": 46,
          "name": "A#2",
          "ticks": 29951,
          "time": 155.99479166666666,
          "velocity": 1
        },
        {
          "duration": 0.20833333333331439,
          "durationTicks": 40,
          "midi": 52,
          "name": "E3",
          "ticks": 29989,
          "time": 156.19270833333334,
          "velocity": 1
        },
        {
          "duration": 0.15625,
          "durationTicks": 30,
          "midi": 48,
          "name": "C3",
          "ticks": 30028,
          "time": 156.39583333333334,
          "velocity": 1
        },
        {
          "duration": 0.3229166666666572,
          "durationTicks": 62,
          "midi": 44,
          "name": "G#2",
          "ticks": 30105,
          "time": 156.796875,
          "velocity": 0.7874015748031497
        },
        {
          "duration": 0.1666666666666572,
          "durationTicks": 32,
          "midi": 46,
          "name": "A#2",
          "ticks": 30105,
          "time": 156.796875,
          "velocity": 1
        },
        {
          "duration": 0.15625,
          "durationTicks": 30,
          "midi": 48,
          "name": "C3",
          "ticks": 30182,
          "time": 157.19791666666666,
          "velocity": 1
        },
        {
          "duration": 0.1666666666666572,
          "durationTicks": 32,
          "midi": 46,
          "name": "A#2",
          "ticks": 30259,
          "time": 157.59895833333334,
          "velocity": 1
        },
        {
          "duration": 0.1822916666666572,
          "durationTicks": 35,
          "midi": 48,
          "name": "C3",
          "ticks": 30336,
          "time": 158,
          "velocity": 0.7874015748031497
        },
        {
          "duration": 0.15625,
          "durationTicks": 30,
          "midi": 46,
          "name": "A#2",
          "ticks": 30413,
          "time": 158.40104166666666,
          "velocity": 1
        },
        {
          "duration": 0.15625,
          "durationTicks": 30,
          "midi": 48,
          "name": "C3",
          "ticks": 30489,
          "time": 158.796875,
          "velocity": 1
        },
        {
          "duration": 0.16666666666668561,
          "durationTicks": 32,
          "midi": 46,
          "name": "A#2",
          "ticks": 30566,
          "time": 159.19791666666666,
          "velocity": 1
        },
        {
          "duration": 0.09375,
          "durationTicks": 18,
          "midi": 50,
          "name": "D3",
          "ticks": 30604,
          "time": 159.39583333333334,
          "velocity": 1
        },
        {
          "duration": 0.1875,
          "durationTicks": 36,
          "midi": 48,
          "name": "C3",
          "ticks": 30642,
          "time": 159.59375,
          "velocity": 0.7874015748031497
        },
        {
          "duration": 0.15625,
          "durationTicks": 30,
          "midi": 46,
          "name": "A#2",
          "ticks": 30720,
          "time": 160,
          "velocity": 1
        },
        {
          "duration": 0.1822916666666572,
          "durationTicks": 35,
          "midi": 48,
          "name": "C3",
          "ticks": 30796,
          "time": 160.39583333333334,
          "velocity": 0.7874015748031497
        },
        {
          "duration": 0.1614583333333428,
          "durationTicks": 31,
          "midi": 46,
          "name": "A#2",
          "ticks": 30873,
          "time": 160.796875,
          "velocity": 1
        },
        {
          "duration": 0.15625,
          "durationTicks": 30,
          "midi": 48,
          "name": "C3",
          "ticks": 30950,
          "time": 161.19791666666666,
          "velocity": 1
        },
        {
          "duration": 0.1666666666666572,
          "durationTicks": 32,
          "midi": 46,
          "name": "A#2",
          "ticks": 31026,
          "time": 161.59375,
          "velocity": 1
        },
        {
          "duration": 0.18229166666668561,
          "durationTicks": 35,
          "midi": 48,
          "name": "C3",
          "ticks": 31103,
          "time": 161.99479166666666,
          "velocity": 0.7874015748031497
        },
        {
          "duration": 0.16145833333331439,
          "durationTicks": 31,
          "midi": 46,
          "name": "A#2",
          "ticks": 31180,
          "time": 162.39583333333334,
          "velocity": 1
        },
        {
          "duration": 0.09375,
          "durationTicks": 18,
          "midi": 50,
          "name": "D3",
          "ticks": 31219,
          "time": 162.59895833333334,
          "velocity": 1
        },
        {
          "duration": 0.1822916666666572,
          "durationTicks": 35,
          "midi": 48,
          "name": "C3",
          "ticks": 31257,
          "time": 162.796875,
          "velocity": 0.7874015748031497
        },
        {
          "duration": 0.2135416666666572,
          "durationTicks": 41,
          "midi": 39,
          "name": "D#2",
          "ticks": 31414,
          "time": 163.61458333333334,
          "velocity": 0.5905511811023622
        },
        {
          "duration": 0.026041666666657193,
          "durationTicks": 5,
          "midi": 40,
          "name": "E2",
          "ticks": 31449,
          "time": 163.796875,
          "velocity": 0.8188976377952756
        },
        {
          "duration": 0.2083333333333428,
          "durationTicks": 40,
          "midi": 40,
          "name": "E2",
          "ticks": 31487,
          "time": 163.99479166666666,
          "velocity": 0.6692913385826772
        },
        {
          "duration": 0.3125,
          "durationTicks": 60,
          "midi": 39,
          "name": "D#2",
          "ticks": 31563,
          "time": 164.390625,
          "velocity": 0.8267716535433071
        },
        {
          "duration": 0.15625,
          "durationTicks": 30,
          "midi": 40,
          "name": "E2",
          "ticks": 31641,
          "time": 164.796875,
          "velocity": 0.6535433070866141
        },
        {
          "duration": 0.2447916666666572,
          "durationTicks": 47,
          "midi": 39,
          "name": "D#2",
          "ticks": 31720,
          "time": 165.20833333333334,
          "velocity": 0.7401574803149606
        },
        {
          "duration": 0.026041666666657193,
          "durationTicks": 5,
          "midi": 40,
          "name": "E2",
          "ticks": 31756,
          "time": 165.39583333333334,
          "velocity": 0.5511811023622047
        },
        {
          "duration": 0,
          "durationTicks": 0,
          "midi": 40,
          "name": "E2",
          "ticks": 31794,
          "time": 165.59375,
          "velocity": 0.7637795275590551
        },
        {
          "duration": 0.15625,
          "durationTicks": 30,
          "midi": 40,
          "name": "E2",
          "ticks": 31833,
          "time": 165.796875,
          "velocity": 0.5511811023622047
        },
        {
          "duration": 0.2083333333333428,
          "durationTicks": 40,
          "midi": 39,
          "name": "D#2",
          "ticks": 31871,
          "time": 165.99479166666666,
          "velocity": 0.5669291338582677
        },
        {
          "duration": 0.005208333333342807,
          "durationTicks": 1,
          "midi": 40,
          "name": "E2",
          "ticks": 31910,
          "time": 166.19791666666666,
          "velocity": 0.5984251968503937
        },
        {
          "duration": 0.1822916666666572,
          "durationTicks": 35,
          "midi": 40,
          "name": "E2",
          "ticks": 31948,
          "time": 166.39583333333334,
          "velocity": 0.5039370078740157
        },
        {
          "duration": 0.28125,
          "durationTicks": 54,
          "midi": 39,
          "name": "D#2",
          "ticks": 32025,
          "time": 166.796875,
          "velocity": 0.8267716535433071
        },
        {
          "duration": 0.020833333333342807,
          "durationTicks": 4,
          "midi": 40,
          "name": "E2",
          "ticks": 32064,
          "time": 167,
          "velocity": 0.7165354330708661
        },
        {
          "duration": 0.1354166666666572,
          "durationTicks": 26,
          "midi": 40,
          "name": "E2",
          "ticks": 32101,
          "time": 167.19270833333334,
          "velocity": 0.5511811023622047
        },
        {
          "duration": 0.234375,
          "durationTicks": 45,
          "midi": 39,
          "name": "D#2",
          "ticks": 32178,
          "time": 167.59375,
          "velocity": 0.7165354330708661
        },
        {
          "duration": 0.203125,
          "durationTicks": 39,
          "midi": 40,
          "name": "E2",
          "ticks": 32256,
          "time": 168,
          "velocity": 0.5826771653543307
        },
        {
          "duration": 0.2864583333333428,
          "durationTicks": 55,
          "midi": 39,
          "name": "D#2",
          "ticks": 32336,
          "time": 168.41666666666666,
          "velocity": 0.6062992125984252
        },
        {
          "duration": 0.10416666666665719,
          "durationTicks": 20,
          "midi": 40,
          "name": "E2",
          "ticks": 32371,
          "time": 168.59895833333334,
          "velocity": 0.8740157480314961
        },
        {
          "duration": 0.078125,
          "durationTicks": 15,
          "midi": 40,
          "name": "E2",
          "ticks": 32448,
          "time": 169,
          "velocity": 0.8661417322834646
        },
        {
          "duration": 0.2604166666666572,
          "durationTicks": 50,
          "midi": 39,
          "name": "D#2",
          "ticks": 32485,
          "time": 169.19270833333334,
          "velocity": 0.7952755905511811
        },
        {
          "duration": 0.1302083333333428,
          "durationTicks": 25,
          "midi": 40,
          "name": "E2",
          "ticks": 32505,
          "time": 169.296875,
          "velocity": 0.5590551181102362
        },
        {
          "duration": 0.10416666666665719,
          "durationTicks": 20,
          "midi": 40,
          "name": "E2",
          "ticks": 32563,
          "time": 169.59895833333334,
          "velocity": 0.7401574803149606
        },
        {
          "duration": 0.2135416666666572,
          "durationTicks": 41,
          "midi": 39,
          "name": "D#2",
          "ticks": 32638,
          "time": 169.98958333333334,
          "velocity": 0.5669291338582677
        },
        {
          "duration": 0.005208333333342807,
          "durationTicks": 1,
          "midi": 40,
          "name": "E2",
          "ticks": 32678,
          "time": 170.19791666666666,
          "velocity": 0.5669291338582677
        },
        {
          "duration": 0.1822916666666572,
          "durationTicks": 35,
          "midi": 40,
          "name": "E2",
          "ticks": 32716,
          "time": 170.39583333333334,
          "velocity": 0.48031496062992124
        },
        {
          "duration": 0.28125,
          "durationTicks": 54,
          "midi": 39,
          "name": "D#2",
          "ticks": 32793,
          "time": 170.796875,
          "velocity": 0.7795275590551181
        },
        {
          "duration": 0.1302083333333428,
          "durationTicks": 25,
          "midi": 40,
          "name": "E2",
          "ticks": 32870,
          "time": 171.19791666666666,
          "velocity": 0.48031496062992124
        },
        {
          "duration": 0.234375,
          "durationTicks": 45,
          "midi": 39,
          "name": "D#2",
          "ticks": 32946,
          "time": 171.59375,
          "velocity": 0.7007874015748031
        },
        {
          "duration": 0.026041666666657193,
          "durationTicks": 5,
          "midi": 40,
          "name": "E2",
          "ticks": 32985,
          "time": 171.796875,
          "velocity": 0.7559055118110236
        },
        {
          "duration": 0.026041666666685614,
          "durationTicks": 5,
          "midi": 40,
          "name": "E2",
          "ticks": 33023,
          "time": 171.99479166666666,
          "velocity": 0.5984251968503937
        },
        {
          "duration": 0.1354166666666572,
          "durationTicks": 26,
          "midi": 40,
          "name": "E2",
          "ticks": 33061,
          "time": 172.19270833333334,
          "velocity": 0.7795275590551181
        },
        {
          "duration": 0.28125,
          "durationTicks": 54,
          "midi": 39,
          "name": "D#2",
          "ticks": 33105,
          "time": 172.421875,
          "velocity": 0.5511811023622047
        },
        {
          "duration": 0,
          "durationTicks": 0,
          "midi": 40,
          "name": "E2",
          "ticks": 33139,
          "time": 172.59895833333334,
          "velocity": 0.8503937007874016
        },
        {
          "duration": 0.15625,
          "durationTicks": 30,
          "midi": 40,
          "name": "E2",
          "ticks": 33177,
          "time": 172.796875,
          "velocity": 0.7007874015748031
        },
        {
          "duration": 0.1354166666666572,
          "durationTicks": 26,
          "midi": 39,
          "name": "D#2",
          "ticks": 33253,
          "time": 173.19270833333334,
          "velocity": 0.8740157480314961
        },
        {
          "duration": 0.1510416666666572,
          "durationTicks": 29,
          "midi": 39,
          "name": "D#2",
          "ticks": 33412,
          "time": 174.02083333333334,
          "velocity": 1
        }
      ]
    }
  ]
}