export const isItLove = {
  "header": {
    "keySignatures": [],
    "meta": [],
    "name": "8-MIDI 2\u0000",
    "ppq": 96,
    "bpm": 125,
    "timeSignatures": [
      {
        "ticks": 0,
        "timeSignature": [
          4,
          4
        ],
        "measures": 0
      },
      {
        "ticks": 0,
        "timeSignature": [
          4,
          4
        ],
        "measures": 0
      }
    ]
  },
  "tracks": [
    {
      "channel": 0,
      "controlChanges": {},
      "pitchBends": [],
      "instrument": {
        "family": "piano",
        "name": "acoustic grand piano",
        "number": 0
      },
      "name": "8-MIDI 2\u0000",
      "notes": [
        {
          "duration": 0.5,
          "durationTicks": 96,
          "midi": 38,
          "name": "D2",
          "ticks": -128,
          "time": -0.6666666666666666,
          "velocity": 0.7874015748031497
        },
        {
          "duration": 0.5,
          "durationTicks": 96,
          "midi": 40,
          "name": "E2",
          "ticks": 1216,
          "time": 6.333333333333333,
          "velocity": 0.7874015748031497
        },
        {
          "duration": 1,
          "durationTicks": 192,
          "midi": 43,
          "name": "G2",
          "ticks": 1312,
          "time": 6.833333333333333,
          "velocity": 0.7874015748031497
        },
        {
          "duration": 0.5,
          "durationTicks": 96,
          "midi": 40,
          "name": "E2",
          "ticks": 1600,
          "time": 8.333333333333334,
          "velocity": 0.7874015748031497
        },
        {
          "duration": 1,
          "durationTicks": 192,
          "midi": 43,
          "name": "G2",
          "ticks": 1696,
          "time": 8.833333333333334,
          "velocity": 0.7874015748031497
        },
        {
          "duration": 0.5,
          "durationTicks": 96,
          "midi": 40,
          "name": "E2",
          "ticks": 1984,
          "time": 10.333333333333334,
          "velocity": 0.7874015748031497
        },
        {
          "duration": 1,
          "durationTicks": 192,
          "midi": 43,
          "name": "G2",
          "ticks": 2080,
          "time": 10.833333333333334,
          "velocity": 0.7874015748031497
        },
        {
          "duration": 0.5,
          "durationTicks": 96,
          "midi": 40,
          "name": "E2",
          "ticks": 2752,
          "time": 14.333333333333334,
          "velocity": 0.7874015748031497
        },
        {
          "duration": 1,
          "durationTicks": 192,
          "midi": 43,
          "name": "G2",
          "ticks": 2848,
          "time": 14.833333333333334,
          "velocity": 0.7874015748031497
        },
        {
          "duration": 0.5,
          "durationTicks": 96,
          "midi": 40,
          "name": "E2",
          "ticks": 3136,
          "time": 16.333333333333332,
          "velocity": 0.7874015748031497
        },
        {
          "duration": 1,
          "durationTicks": 192,
          "midi": 43,
          "name": "G2",
          "ticks": 3232,
          "time": 16.833333333333332,
          "velocity": 0.7874015748031497
        },
        {
          "duration": 0.5,
          "durationTicks": 96,
          "midi": 40,
          "name": "E2",
          "ticks": 3520,
          "time": 18.333333333333332,
          "velocity": 0.7874015748031497
        },
        {
          "duration": 1,
          "durationTicks": 192,
          "midi": 43,
          "name": "G2",
          "ticks": 3616,
          "time": 18.833333333333332,
          "velocity": 0.7874015748031497
        },
        {
          "duration": 0.5,
          "durationTicks": 96,
          "midi": 40,
          "name": "E2",
          "ticks": 4288,
          "time": 22.333333333333332,
          "velocity": 0.7874015748031497
        },
        {
          "duration": 1,
          "durationTicks": 192,
          "midi": 43,
          "name": "G2",
          "ticks": 4384,
          "time": 22.833333333333332,
          "velocity": 0.7874015748031497
        },
        {
          "duration": 1,
          "durationTicks": 192,
          "midi": 43,
          "name": "G2",
          "ticks": 4768,
          "time": 24.833333333333332,
          "velocity": 0.7874015748031497
        },
        {
          "duration": 1,
          "durationTicks": 192,
          "midi": 43,
          "name": "G2",
          "ticks": 5056,
          "time": 26.333333333333332,
          "velocity": 0.7874015748031497
        },
        {
          "duration": 1,
          "durationTicks": 192,
          "midi": 41,
          "name": "F2",
          "ticks": 5152,
          "time": 26.833333333333332,
          "velocity": 0.7874015748031497
        },
        {
          "duration": 0.5,
          "durationTicks": 96,
          "midi": 40,
          "name": "E2",
          "ticks": 5824,
          "time": 30.333333333333332,
          "velocity": 0.7874015748031497
        },
        {
          "duration": 0.5,
          "durationTicks": 96,
          "midi": 43,
          "name": "G2",
          "ticks": 5920,
          "time": 30.833333333333332,
          "velocity": 0.7874015748031497
        },
        {
          "duration": 1,
          "durationTicks": 192,
          "midi": 43,
          "name": "G2",
          "ticks": 6304,
          "time": 32.833333333333336,
          "velocity": 0.7874015748031497
        },
        {
          "duration": 0.5,
          "durationTicks": 96,
          "midi": 40,
          "name": "E2",
          "ticks": 6592,
          "time": 34.333333333333336,
          "velocity": 0.7874015748031497
        },
        {
          "duration": 1,
          "durationTicks": 192,
          "midi": 41,
          "name": "F2",
          "ticks": 6688,
          "time": 34.833333333333336,
          "velocity": 0.7874015748031497
        },
        {
          "duration": 0.75,
          "durationTicks": 144,
          "midi": 47,
          "name": "B2",
          "ticks": 7456,
          "time": 38.833333333333336,
          "velocity": 0.7874015748031497
        },
        {
          "duration": 0.5,
          "durationTicks": 96,
          "midi": 45,
          "name": "A2",
          "ticks": 7840,
          "time": 40.833333333333336,
          "velocity": 0.7874015748031497
        },
        {
          "duration": 0.5,
          "durationTicks": 96,
          "midi": 45,
          "name": "A2",
          "ticks": 8032,
          "time": 41.833333333333336,
          "velocity": 0.7874015748031497
        },
        {
          "duration": 0.9791666666666643,
          "durationTicks": 188,
          "midi": 42,
          "name": "F#2",
          "ticks": 8226,
          "time": 42.84375,
          "velocity": 0.7874015748031497
        },
        {
          "duration": 1,
          "durationTicks": 192,
          "midi": 42,
          "name": "F#2",
          "ticks": 8608,
          "time": 44.833333333333336,
          "velocity": 0.7874015748031497
        },
        {
          "duration": 1,
          "durationTicks": 192,
          "midi": 41,
          "name": "F2",
          "ticks": 8944,
          "time": 46.583333333333336,
          "velocity": 0.7874015748031497
        },
        {
          "duration": 0.7135416666666643,
          "durationTicks": 137,
          "midi": 48,
          "name": "C3",
          "ticks": 9472,
          "time": 49.333333333333336,
          "velocity": 0.7874015748031497
        },
        {
          "duration": 0.75,
          "durationTicks": 144,
          "midi": 47,
          "name": "B2",
          "ticks": 9760,
          "time": 50.833333333333336,
          "velocity": 0.7874015748031497
        },
        {
          "duration": 0.5,
          "durationTicks": 96,
          "midi": 45,
          "name": "A2",
          "ticks": 10144,
          "time": 52.833333333333336,
          "velocity": 0.7874015748031497
        },
        {
          "duration": 0.5,
          "durationTicks": 96,
          "midi": 45,
          "name": "A2",
          "ticks": 10336,
          "time": 53.833333333333336,
          "velocity": 0.7874015748031497
        },
        {
          "duration": 0.9791666666666643,
          "durationTicks": 188,
          "midi": 42,
          "name": "F#2",
          "ticks": 10530,
          "time": 54.84375,
          "velocity": 0.7874015748031497
        },
        {
          "duration": 0.8958333333333286,
          "durationTicks": 172,
          "midi": 42,
          "name": "F#2",
          "ticks": 10912,
          "time": 56.833333333333336,
          "velocity": 0.7874015748031497
        },
        {
          "duration": 0.7135416666666643,
          "durationTicks": 137,
          "midi": 48,
          "name": "C3",
          "ticks": 11776,
          "time": 61.333333333333336,
          "velocity": 0.7874015748031497
        }
      ]
    }
  ]
}