export const julietRomeo ={
  "header": {
    "keySignatures": [],
    "meta": [],
    "name": "6-MIDI 2\u0000",
    "bpm": 122,
    "tempos": [],
    "timeSignatures": [
      {
        "ticks": 0,
        "timeSignature": [
          4,
          4
        ],
        "measures": 0
      },
      {
        "ticks": 0,
        "timeSignature": [
          4,
          4
        ],
        "measures": 0
      }
    ]
  },
  "tracks": [
    {
      "channel": 0,
      "controlChanges": {},
      "pitchBends": [],
      "instrument": {
        "family": "piano",
        "name": "acoustic grand piano",
        "number": 0
      },
      "name": "6-MIDI 2\u0000",
      "notes": [
        {
          "duration": 0.21354166666666607,
          "durationTicks": 41,
          "midi": 46,
          "name": "A#2",
          "ticks": 1536,
          "time": 8,
          "velocity": 0.47244094488188976
        },
        {
          "duration": 0.203125,
          "durationTicks": 39,
          "midi": 46,
          "name": "A#2",
          "ticks": 1602,
          "time": 8.34375,
          "velocity": 0.44881889763779526
        },
        {
          "duration": 0.16666666666666607,
          "durationTicks": 32,
          "midi": 42,
          "name": "F#2",
          "ticks": 1681,
          "time": 8.755208333333334,
          "velocity": 0.44881889763779526
        },
        {
          "duration": 0.16666666666666607,
          "durationTicks": 32,
          "midi": 42,
          "name": "F#2",
          "ticks": 1753,
          "time": 9.130208333333334,
          "velocity": 0.4251968503937008
        },
        {
          "duration": 0.16666666666666607,
          "durationTicks": 32,
          "midi": 42,
          "name": "F#2",
          "ticks": 1824,
          "time": 9.5,
          "velocity": 0.2283464566929134
        },
        {
          "duration": 0.16666666666666607,
          "durationTicks": 32,
          "midi": 46,
          "name": "A#2",
          "ticks": 1920,
          "time": 10,
          "velocity": 0.4409448818897638
        },
        {
          "duration": 0.20833333333333393,
          "durationTicks": 40,
          "midi": 46,
          "name": "A#2",
          "ticks": 1989,
          "time": 10.359375,
          "velocity": 0.44881889763779526
        },
        {
          "duration": 0.16666666666666607,
          "durationTicks": 32,
          "midi": 42,
          "name": "F#2",
          "ticks": 2064,
          "time": 10.75,
          "velocity": 0.44881889763779526
        },
        {
          "duration": 0.16666666666666607,
          "durationTicks": 32,
          "midi": 42,
          "name": "F#2",
          "ticks": 2136,
          "time": 11.125,
          "velocity": 0.3937007874015748
        },
        {
          "duration": 0.16666666666666607,
          "durationTicks": 32,
          "midi": 42,
          "name": "F#2",
          "ticks": 2208,
          "time": 11.5,
          "velocity": 0.4881889763779528
        },
        {
          "duration": 0.16666666666666607,
          "durationTicks": 32,
          "midi": 46,
          "name": "A#2",
          "ticks": 2304,
          "time": 12,
          "velocity": 0.4330708661417323
        },
        {
          "duration": 0.203125,
          "durationTicks": 39,
          "midi": 46,
          "name": "A#2",
          "ticks": 2377,
          "time": 12.380208333333334,
          "velocity": 0.4330708661417323
        },
        {
          "duration": 0.17708333333333393,
          "durationTicks": 34,
          "midi": 40,
          "name": "E2",
          "ticks": 2448,
          "time": 12.75,
          "velocity": 0.4409448818897638
        },
        {
          "duration": 0.16666666666666607,
          "durationTicks": 32,
          "midi": 40,
          "name": "E2",
          "ticks": 2520,
          "time": 13.125,
          "velocity": 0.48031496062992124
        },
        {
          "duration": 0.16666666666666607,
          "durationTicks": 32,
          "midi": 40,
          "name": "E2",
          "ticks": 2592,
          "time": 13.5,
          "velocity": 0.5511811023622047
        },
        {
          "duration": 0.16666666666666607,
          "durationTicks": 32,
          "midi": 46,
          "name": "A#2",
          "ticks": 2688,
          "time": 14,
          "velocity": 0.4330708661417323
        },
        {
          "duration": 0.16666666666666607,
          "durationTicks": 32,
          "midi": 46,
          "name": "A#2",
          "ticks": 2755,
          "time": 14.348958333333334,
          "velocity": 0.4409448818897638
        },
        {
          "duration": 0.19270833333333393,
          "durationTicks": 37,
          "midi": 40,
          "name": "E2",
          "ticks": 2832,
          "time": 14.75,
          "velocity": 0.5196850393700787
        },
        {
          "duration": 0.16666666666666607,
          "durationTicks": 32,
          "midi": 40,
          "name": "E2",
          "ticks": 2904,
          "time": 15.125,
          "velocity": 0.4409448818897638
        },
        {
          "duration": 0.16666666666666607,
          "durationTicks": 32,
          "midi": 40,
          "name": "E2",
          "ticks": 2976,
          "time": 15.5,
          "velocity": 0.5196850393700787
        },
        {
          "duration": 0.16666666666666785,
          "durationTicks": 32,
          "midi": 46,
          "name": "A#2",
          "ticks": 3072,
          "time": 16,
          "velocity": 0.4330708661417323
        },
        {
          "duration": 0.16666666666666785,
          "durationTicks": 32,
          "midi": 46,
          "name": "A#2",
          "ticks": 3139,
          "time": 16.348958333333332,
          "velocity": 0.4015748031496063
        },
        {
          "duration": 0.16666666666666785,
          "durationTicks": 32,
          "midi": 42,
          "name": "F#2",
          "ticks": 3216,
          "time": 16.75,
          "velocity": 0.4094488188976378
        },
        {
          "duration": 0.16666666666666785,
          "durationTicks": 32,
          "midi": 42,
          "name": "F#2",
          "ticks": 3288,
          "time": 17.125,
          "velocity": 0.3937007874015748
        },
        {
          "duration": 0.16666666666666785,
          "durationTicks": 32,
          "midi": 42,
          "name": "F#2",
          "ticks": 3352,
          "time": 17.458333333333332,
          "velocity": 0.4251968503937008
        },
        {
          "duration": 0.16666666666666785,
          "durationTicks": 32,
          "midi": 46,
          "name": "A#2",
          "ticks": 3456,
          "time": 18,
          "velocity": 0.44881889763779526
        },
        {
          "duration": 0.21354166666666785,
          "durationTicks": 41,
          "midi": 46,
          "name": "A#2",
          "ticks": 3531,
          "time": 18.390625,
          "velocity": 0.44881889763779526
        },
        {
          "duration": 0.18229166666666785,
          "durationTicks": 35,
          "midi": 42,
          "name": "F#2",
          "ticks": 3601,
          "time": 18.755208333333332,
          "velocity": 0.41732283464566927
        },
        {
          "duration": 0.16666666666666785,
          "durationTicks": 32,
          "midi": 42,
          "name": "F#2",
          "ticks": 3681,
          "time": 19.171875,
          "velocity": 0.4330708661417323
        },
        {
          "duration": 0.26041666666666785,
          "durationTicks": 50,
          "midi": 42,
          "name": "F#2",
          "ticks": 3735,
          "time": 19.453125,
          "velocity": 0.44881889763779526
        },
        {
          "duration": 0.234375,
          "durationTicks": 45,
          "midi": 46,
          "name": "A#2",
          "ticks": 3840,
          "time": 20,
          "velocity": 0.4409448818897638
        },
        {
          "duration": 0.171875,
          "durationTicks": 33,
          "midi": 46,
          "name": "A#2",
          "ticks": 3936,
          "time": 20.5,
          "velocity": 0.4094488188976378
        },
        {
          "duration": 0.17708333333333215,
          "durationTicks": 34,
          "midi": 40,
          "name": "E2",
          "ticks": 3984,
          "time": 20.75,
          "velocity": 0.48031496062992124
        },
        {
          "duration": 0.21875,
          "durationTicks": 42,
          "midi": 40,
          "name": "E2",
          "ticks": 4056,
          "time": 21.125,
          "velocity": 0.5196850393700787
        },
        {
          "duration": 0.28125,
          "durationTicks": 54,
          "midi": 40,
          "name": "E2",
          "ticks": 4128,
          "time": 21.5,
          "velocity": 0.5433070866141733
        },
        {
          "duration": 0.22916666666666785,
          "durationTicks": 44,
          "midi": 46,
          "name": "A#2",
          "ticks": 4224,
          "time": 22,
          "velocity": 0.47244094488188976
        },
        {
          "duration": 0.21875,
          "durationTicks": 42,
          "midi": 46,
          "name": "A#2",
          "ticks": 4294,
          "time": 22.364583333333332,
          "velocity": 0.44881889763779526
        },
        {
          "duration": 0.16666666666666785,
          "durationTicks": 32,
          "midi": 40,
          "name": "E2",
          "ticks": 4369,
          "time": 22.755208333333332,
          "velocity": 0.48031496062992124
        },
        {
          "duration": 0.16666666666666785,
          "durationTicks": 32,
          "midi": 40,
          "name": "E2",
          "ticks": 4440,
          "time": 23.125,
          "velocity": 0.47244094488188976
        },
        {
          "duration": 0.30208333333333215,
          "durationTicks": 58,
          "midi": 40,
          "name": "E2",
          "ticks": 4512,
          "time": 23.5,
          "velocity": 0.5196850393700787
        },
        {
          "duration": 0.21875,
          "durationTicks": 42,
          "midi": 42,
          "name": "F#2",
          "ticks": 4608,
          "time": 24,
          "velocity": 0.3937007874015748
        },
        {
          "duration": 0.25520833333333215,
          "durationTicks": 49,
          "midi": 42,
          "name": "F#2",
          "ticks": 4695,
          "time": 24.453125,
          "velocity": 0.3543307086614173
        },
        {
          "duration": 0.3489583333333357,
          "durationTicks": 67,
          "midi": 40,
          "name": "E2",
          "ticks": 4741,
          "time": 24.692708333333332,
          "velocity": 0.3937007874015748
        },
        {
          "duration": 0.5989583333333357,
          "durationTicks": 115,
          "midi": 42,
          "name": "F#2",
          "ticks": 4789,
          "time": 24.942708333333332,
          "velocity": 0.3858267716535433
        },
        {
          "duration": 0.390625,
          "durationTicks": 75,
          "midi": 44,
          "name": "G#2",
          "ticks": 4893,
          "time": 25.484375,
          "velocity": 0.3543307086614173
        },
        {
          "duration": 0.27083333333333215,
          "durationTicks": 52,
          "midi": 38,
          "name": "D2",
          "ticks": 5280,
          "time": 27.5,
          "velocity": 0.4566929133858268
        },
        {
          "duration": 0.35416666666666785,
          "durationTicks": 68,
          "midi": 40,
          "name": "E2",
          "ticks": 5328,
          "time": 27.75,
          "velocity": 0.4881889763779528
        },
        {
          "duration": 0.33333333333333215,
          "durationTicks": 64,
          "midi": 42,
          "name": "F#2",
          "ticks": 5376,
          "time": 28,
          "velocity": 0.3228346456692913
        },
        {
          "duration": 0.25,
          "durationTicks": 48,
          "midi": 42,
          "name": "F#2",
          "ticks": 5472,
          "time": 28.5,
          "velocity": 0.3779527559055118
        },
        {
          "duration": 0.31770833333333215,
          "durationTicks": 61,
          "midi": 40,
          "name": "E2",
          "ticks": 5520,
          "time": 28.75,
          "velocity": 0.4566929133858268
        },
        {
          "duration": 0.5677083333333321,
          "durationTicks": 109,
          "midi": 42,
          "name": "F#2",
          "ticks": 5568,
          "time": 29,
          "velocity": 0.4015748031496063
        },
        {
          "duration": 0.43229166666666785,
          "durationTicks": 83,
          "midi": 44,
          "name": "G#2",
          "ticks": 5664,
          "time": 29.5,
          "velocity": 0.4015748031496063
        },
        {
          "duration": 1,
          "durationTicks": 192,
          "midi": 42,
          "name": "F#2",
          "ticks": 5952,
          "time": 31,
          "velocity": 0.36220472440944884
        },
        {
          "duration": 1,
          "durationTicks": 192,
          "midi": 40,
          "name": "E2",
          "ticks": 6096,
          "time": 31.75,
          "velocity": 0.41732283464566927
        },
        {
          "duration": 1,
          "durationTicks": 192,
          "midi": 38,
          "name": "D2",
          "ticks": 6336,
          "time": 33,
          "velocity": 0.41732283464566927
        },
        {
          "duration": 0.4791666666666643,
          "durationTicks": 92,
          "midi": 42,
          "name": "F#2",
          "ticks": 6720,
          "time": 35,
          "velocity": 0.33858267716535434
        },
        {
          "duration": 0.3958333333333357,
          "durationTicks": 76,
          "midi": 44,
          "name": "G#2",
          "ticks": 6768,
          "time": 35.25,
          "velocity": 0.3464566929133858
        },
        {
          "duration": 0.4635416666666643,
          "durationTicks": 89,
          "midi": 46,
          "name": "A#2",
          "ticks": 6816,
          "time": 35.5,
          "velocity": 0.3543307086614173
        },
        {
          "duration": 1.75,
          "durationTicks": 336,
          "midi": 40,
          "name": "E2",
          "ticks": 6864,
          "time": 35.75,
          "velocity": 0.4645669291338583
        },
        {
          "duration": 1.7239583333333357,
          "durationTicks": 331,
          "midi": 42,
          "name": "F#2",
          "ticks": 7104,
          "time": 37,
          "velocity": 0.4094488188976378
        },
        {
          "duration": 0.5052083333333357,
          "durationTicks": 97,
          "midi": 38,
          "name": "D2",
          "ticks": 7536,
          "time": 39.25,
          "velocity": 0.4251968503937008
        },
        {
          "duration": 0.96875,
          "durationTicks": 186,
          "midi": 42,
          "name": "F#2",
          "ticks": 7680,
          "time": 40,
          "velocity": 0.31496062992125984
        },
        {
          "duration": 1.25,
          "durationTicks": 240,
          "midi": 46,
          "name": "A#2",
          "ticks": 7824,
          "time": 40.75,
          "velocity": 0.31496062992125984
        },
        {
          "duration": 0.5,
          "durationTicks": 96,
          "midi": 38,
          "name": "D2",
          "ticks": 8304,
          "time": 43.25,
          "velocity": 0.4409448818897638
        },
        {
          "duration": 1.03125,
          "durationTicks": 198,
          "midi": 42,
          "name": "F#2",
          "ticks": 8448,
          "time": 44,
          "velocity": 0.3779527559055118
        },
        {
          "duration": 0.5572916666666643,
          "durationTicks": 107,
          "midi": 40,
          "name": "E2",
          "ticks": 8640,
          "time": 45,
          "velocity": 0.4409448818897638
        },
        {
          "duration": 1.0520833333333357,
          "durationTicks": 202,
          "midi": 44,
          "name": "G#2",
          "ticks": 8736,
          "time": 45.5,
          "velocity": 0.36220472440944884
        },
        {
          "duration": 0.5,
          "durationTicks": 96,
          "midi": 40,
          "name": "E2",
          "ticks": 9024,
          "time": 47,
          "velocity": 0.3937007874015748
        },
        {
          "duration": 0.2604166666666643,
          "durationTicks": 50,
          "midi": 44,
          "name": "G#2",
          "ticks": 9120,
          "time": 47.5,
          "velocity": 0.31496062992125984
        },
        {
          "duration": 0.8385416666666643,
          "durationTicks": 161,
          "midi": 40,
          "name": "E2",
          "ticks": 9216,
          "time": 48,
          "velocity": 0.5039370078740157
        },
        {
          "duration": 0.5,
          "durationTicks": 96,
          "midi": 42,
          "name": "F#2",
          "ticks": 9408,
          "time": 49,
          "velocity": 0.3858267716535433
        },
        {
          "duration": 0.5416666666666643,
          "durationTicks": 104,
          "midi": 38,
          "name": "D2",
          "ticks": 9504,
          "time": 49.5,
          "velocity": 0.4881889763779528
        },
        {
          "duration": 0.4635416666666643,
          "durationTicks": 89,
          "midi": 42,
          "name": "F#2",
          "ticks": 9792,
          "time": 51,
          "velocity": 0.4015748031496063
        },
        {
          "duration": 0.4114583333333357,
          "durationTicks": 79,
          "midi": 46,
          "name": "A#2",
          "ticks": 9888,
          "time": 51.5,
          "velocity": 0.3858267716535433
        },
        {
          "duration": 1,
          "durationTicks": 192,
          "midi": 40,
          "name": "E2",
          "ticks": 9984,
          "time": 52,
          "velocity": 0.4409448818897638
        },
        {
          "duration": 1.0572916666666643,
          "durationTicks": 203,
          "midi": 42,
          "name": "F#2",
          "ticks": 10176,
          "time": 53,
          "velocity": 0.3858267716535433
        },
        {
          "duration": 0.5,
          "durationTicks": 96,
          "midi": 46,
          "name": "A#2",
          "ticks": 10560,
          "time": 55,
          "velocity": 0.3779527559055118
        },
        {
          "duration": 0.5,
          "durationTicks": 96,
          "midi": 40,
          "name": "E2",
          "ticks": 10656,
          "time": 55.5,
          "velocity": 0.4409448818897638
        },
        {
          "duration": 0.5104166666666643,
          "durationTicks": 98,
          "midi": 44,
          "name": "G#2",
          "ticks": 10750,
          "time": 55.989583333333336,
          "velocity": 0.3858267716535433
        },
        {
          "duration": 0.75,
          "durationTicks": 144,
          "midi": 42,
          "name": "F#2",
          "ticks": 10848,
          "time": 56.5,
          "velocity": 0.4251968503937008
        },
        {
          "duration": 0.5,
          "durationTicks": 96,
          "midi": 40,
          "name": "E2",
          "ticks": 11136,
          "time": 58,
          "velocity": 0.4645669291338583
        },
        {
          "duration": 0.4895833333333357,
          "durationTicks": 94,
          "midi": 38,
          "name": "D2",
          "ticks": 11330,
          "time": 59.010416666666664,
          "velocity": 0.4645669291338583
        },
        {
          "duration": 0.5,
          "durationTicks": 96,
          "midi": 44,
          "name": "G#2",
          "ticks": 11520,
          "time": 60,
          "velocity": 0.3858267716535433
        },
        {
          "duration": 0.75,
          "durationTicks": 144,
          "midi": 42,
          "name": "F#2",
          "ticks": 11616,
          "time": 60.5,
          "velocity": 0.3858267716535433
        },
        {
          "duration": 0.5,
          "durationTicks": 96,
          "midi": 40,
          "name": "E2",
          "ticks": 11904,
          "time": 62,
          "velocity": 0.3937007874015748
        },
        {
          "duration": 0.3958333333333357,
          "durationTicks": 76,
          "midi": 38,
          "name": "D2",
          "ticks": 12096,
          "time": 63,
          "velocity": 0.49606299212598426
        },
        {
          "duration": 0.609375,
          "durationTicks": 117,
          "midi": 48,
          "name": "C3",
          "ticks": 12288,
          "time": 64,
          "velocity": 0.4881889763779528
        },
        {
          "duration": 1.234375,
          "durationTicks": 237,
          "midi": 46,
          "name": "A#2",
          "ticks": 12384,
          "time": 64.5,
          "velocity": 0.4330708661417323
        },
        {
          "duration": 0.734375,
          "durationTicks": 141,
          "midi": 48,
          "name": "C3",
          "ticks": 12672,
          "time": 66,
          "velocity": 0.5039370078740157
        },
        {
          "duration": 0.734375,
          "durationTicks": 141,
          "midi": 44,
          "name": "G#2",
          "ticks": 12864,
          "time": 67,
          "velocity": 0.3937007874015748
        },
        {
          "duration": 1.0052083333333286,
          "durationTicks": 193,
          "midi": 42,
          "name": "F#2",
          "ticks": 13056,
          "time": 68,
          "velocity": 0.4330708661417323
        },
        {
          "duration": 0.734375,
          "durationTicks": 141,
          "midi": 48,
          "name": "C3",
          "ticks": 13440,
          "time": 70,
          "velocity": 0.5196850393700787
        },
        {
          "duration": 0.484375,
          "durationTicks": 93,
          "midi": 42,
          "name": "F#2",
          "ticks": 13632,
          "time": 71,
          "velocity": 0.33858267716535434
        },
        {
          "duration": 0.234375,
          "durationTicks": 45,
          "midi": 44,
          "name": "G#2",
          "ticks": 13728,
          "time": 71.5,
          "velocity": 0.4094488188976378
        },
        {
          "duration": 0.328125,
          "durationTicks": 63,
          "midi": 46,
          "name": "A#2",
          "ticks": 13824,
          "time": 72,
          "velocity": 0.36220472440944884
        },
        {
          "duration": 1.2291666666666714,
          "durationTicks": 236,
          "midi": 44,
          "name": "G#2",
          "ticks": 13921,
          "time": 72.50520833333333,
          "velocity": 0.41732283464566927
        },
        {
          "duration": 1.484375,
          "durationTicks": 285,
          "midi": 42,
          "name": "F#2",
          "ticks": 14208,
          "time": 74,
          "velocity": 0.4330708661417323
        },
        {
          "duration": 0.2864583333333286,
          "durationTicks": 55,
          "midi": 46,
          "name": "A#2",
          "ticks": 14592,
          "time": 76,
          "velocity": 0.3779527559055118
        },
        {
          "duration": 1.234375,
          "durationTicks": 237,
          "midi": 44,
          "name": "G#2",
          "ticks": 14688,
          "time": 76.5,
          "velocity": 0.44881889763779526
        },
        {
          "duration": 0.8489583333333286,
          "durationTicks": 163,
          "midi": 42,
          "name": "F#2",
          "ticks": 14976,
          "time": 78,
          "velocity": 0.44881889763779526
        },
        {
          "duration": 0.734375,
          "durationTicks": 141,
          "midi": 43,
          "name": "G2",
          "ticks": 15168,
          "time": 79,
          "velocity": 0.47244094488188976
        },
        {
          "duration": 0.734375,
          "durationTicks": 141,
          "midi": 48,
          "name": "C3",
          "ticks": 15360,
          "time": 80,
          "velocity": 0.5039370078740157
        },
        {
          "duration": 1.3177083333333286,
          "durationTicks": 253,
          "midi": 46,
          "name": "A#2",
          "ticks": 15456,
          "time": 80.5,
          "velocity": 0.4094488188976378
        },
        {
          "duration": 0.734375,
          "durationTicks": 141,
          "midi": 48,
          "name": "C3",
          "ticks": 15744,
          "time": 82,
          "velocity": 0.48031496062992124
        },
        {
          "duration": 0.75,
          "durationTicks": 144,
          "midi": 44,
          "name": "G#2",
          "ticks": 15933,
          "time": 82.984375,
          "velocity": 0.4015748031496063
        },
        {
          "duration": 0.8333333333333286,
          "durationTicks": 160,
          "midi": 42,
          "name": "F#2",
          "ticks": 16128,
          "time": 84,
          "velocity": 0.44881889763779526
        },
        {
          "duration": 0.671875,
          "durationTicks": 129,
          "midi": 44,
          "name": "G#2",
          "ticks": 16320,
          "time": 85,
          "velocity": 0.3779527559055118
        },
        {
          "duration": 0.6302083333333286,
          "durationTicks": 121,
          "midi": 52,
          "name": "E3",
          "ticks": 16512,
          "time": 86,
          "velocity": 0.3700787401574803
        },
        {
          "duration": 0.6145833333333286,
          "durationTicks": 118,
          "midi": 50,
          "name": "D3",
          "ticks": 16608,
          "time": 86.5,
          "velocity": 0.5039370078740157
        },
        {
          "duration": 1,
          "durationTicks": 192,
          "midi": 46,
          "name": "A#2",
          "ticks": 16704,
          "time": 87,
          "velocity": 0.31496062992125984
        },
        {
          "duration": 1,
          "durationTicks": 192,
          "midi": 41,
          "name": "F2",
          "ticks": 17088,
          "time": 89,
          "velocity": 0.4566929133858268
        },
        {
          "duration": 0.8020833333333286,
          "durationTicks": 154,
          "midi": 47,
          "name": "B2",
          "ticks": 17184,
          "time": 89.5,
          "velocity": 0.49606299212598426
        },
        {
          "duration": 1,
          "durationTicks": 192,
          "midi": 41,
          "name": "F2",
          "ticks": 17472,
          "time": 91,
          "velocity": 0.4566929133858268
        },
        {
          "duration": 0.8020833333333286,
          "durationTicks": 154,
          "midi": 47,
          "name": "B2",
          "ticks": 17568,
          "time": 91.5,
          "velocity": 0.49606299212598426
        },
        {
          "duration": 0.9427083333333286,
          "durationTicks": 181,
          "midi": 40,
          "name": "E2",
          "ticks": 17856,
          "time": 93,
          "velocity": 0.4566929133858268
        },
        {
          "duration": 0.75,
          "durationTicks": 144,
          "midi": 46,
          "name": "A#2",
          "ticks": 17952,
          "time": 93.5,
          "velocity": 0.49606299212598426
        },
        {
          "duration": 0.9427083333333286,
          "durationTicks": 181,
          "midi": 40,
          "name": "E2",
          "ticks": 18240,
          "time": 95,
          "velocity": 0.4566929133858268
        },
        {
          "duration": 0.75,
          "durationTicks": 144,
          "midi": 46,
          "name": "A#2",
          "ticks": 18336,
          "time": 95.5,
          "velocity": 0.49606299212598426
        },
        {
          "duration": 0.9427083333333286,
          "durationTicks": 181,
          "midi": 41,
          "name": "F2",
          "ticks": 18624,
          "time": 97,
          "velocity": 0.4566929133858268
        },
        {
          "duration": 0.75,
          "durationTicks": 144,
          "midi": 47,
          "name": "B2",
          "ticks": 18720,
          "time": 97.5,
          "velocity": 0.49606299212598426
        },
        {
          "duration": 0.9427083333333286,
          "durationTicks": 181,
          "midi": 41,
          "name": "F2",
          "ticks": 19008,
          "time": 99,
          "velocity": 0.4566929133858268
        },
        {
          "duration": 0.75,
          "durationTicks": 144,
          "midi": 47,
          "name": "B2",
          "ticks": 19104,
          "time": 99.5,
          "velocity": 0.49606299212598426
        },
        {
          "duration": 0.9427083333333286,
          "durationTicks": 181,
          "midi": 40,
          "name": "E2",
          "ticks": 19392,
          "time": 101,
          "velocity": 0.4566929133858268
        },
        {
          "duration": 0.75,
          "durationTicks": 144,
          "midi": 46,
          "name": "A#2",
          "ticks": 19488,
          "time": 101.5,
          "velocity": 0.49606299212598426
        },
        {
          "duration": 0.9427083333333286,
          "durationTicks": 181,
          "midi": 40,
          "name": "E2",
          "ticks": 19776,
          "time": 103,
          "velocity": 0.4566929133858268
        },
        {
          "duration": 0.2135416666666714,
          "durationTicks": 41,
          "midi": 46,
          "name": "A#2",
          "ticks": 19968,
          "time": 104,
          "velocity": 0.47244094488188976
        },
        {
          "duration": 0.203125,
          "durationTicks": 39,
          "midi": 46,
          "name": "A#2",
          "ticks": 20034,
          "time": 104.34375,
          "velocity": 0.44881889763779526
        },
        {
          "duration": 0.1666666666666714,
          "durationTicks": 32,
          "midi": 42,
          "name": "F#2",
          "ticks": 20113,
          "time": 104.75520833333333,
          "velocity": 0.44881889763779526
        },
        {
          "duration": 0.1666666666666714,
          "durationTicks": 32,
          "midi": 42,
          "name": "F#2",
          "ticks": 20185,
          "time": 105.13020833333333,
          "velocity": 0.4251968503937008
        },
        {
          "duration": 0.1666666666666714,
          "durationTicks": 32,
          "midi": 42,
          "name": "F#2",
          "ticks": 20256,
          "time": 105.5,
          "velocity": 0.2283464566929134
        },
        {
          "duration": 0.1666666666666714,
          "durationTicks": 32,
          "midi": 46,
          "name": "A#2",
          "ticks": 20352,
          "time": 106,
          "velocity": 0.4409448818897638
        },
        {
          "duration": 0.2083333333333286,
          "durationTicks": 40,
          "midi": 46,
          "name": "A#2",
          "ticks": 20421,
          "time": 106.359375,
          "velocity": 0.44881889763779526
        },
        {
          "duration": 0.1666666666666714,
          "durationTicks": 32,
          "midi": 42,
          "name": "F#2",
          "ticks": 20496,
          "time": 106.75,
          "velocity": 0.44881889763779526
        },
        {
          "duration": 0.1666666666666714,
          "durationTicks": 32,
          "midi": 42,
          "name": "F#2",
          "ticks": 20568,
          "time": 107.125,
          "velocity": 0.3937007874015748
        },
        {
          "duration": 0.1666666666666714,
          "durationTicks": 32,
          "midi": 42,
          "name": "F#2",
          "ticks": 20640,
          "time": 107.5,
          "velocity": 0.4881889763779528
        },
        {
          "duration": 0.1666666666666714,
          "durationTicks": 32,
          "midi": 46,
          "name": "A#2",
          "ticks": 20736,
          "time": 108,
          "velocity": 0.4330708661417323
        },
        {
          "duration": 0.203125,
          "durationTicks": 39,
          "midi": 46,
          "name": "A#2",
          "ticks": 20809,
          "time": 108.38020833333333,
          "velocity": 0.4330708661417323
        },
        {
          "duration": 0.1770833333333286,
          "durationTicks": 34,
          "midi": 40,
          "name": "E2",
          "ticks": 20880,
          "time": 108.75,
          "velocity": 0.4409448818897638
        },
        {
          "duration": 0.1666666666666714,
          "durationTicks": 32,
          "midi": 40,
          "name": "E2",
          "ticks": 20952,
          "time": 109.125,
          "velocity": 0.48031496062992124
        },
        {
          "duration": 0.1666666666666714,
          "durationTicks": 32,
          "midi": 40,
          "name": "E2",
          "ticks": 21024,
          "time": 109.5,
          "velocity": 0.5511811023622047
        },
        {
          "duration": 0.1666666666666714,
          "durationTicks": 32,
          "midi": 46,
          "name": "A#2",
          "ticks": 21120,
          "time": 110,
          "velocity": 0.4330708661417323
        },
        {
          "duration": 0.1666666666666714,
          "durationTicks": 32,
          "midi": 46,
          "name": "A#2",
          "ticks": 21187,
          "time": 110.34895833333333,
          "velocity": 0.4409448818897638
        },
        {
          "duration": 0.1927083333333286,
          "durationTicks": 37,
          "midi": 40,
          "name": "E2",
          "ticks": 21264,
          "time": 110.75,
          "velocity": 0.5196850393700787
        },
        {
          "duration": 0.1666666666666714,
          "durationTicks": 32,
          "midi": 40,
          "name": "E2",
          "ticks": 21336,
          "time": 111.125,
          "velocity": 0.4409448818897638
        },
        {
          "duration": 0.1666666666666714,
          "durationTicks": 32,
          "midi": 40,
          "name": "E2",
          "ticks": 21408,
          "time": 111.5,
          "velocity": 0.5196850393700787
        },
        {
          "duration": 0.1666666666666714,
          "durationTicks": 32,
          "midi": 46,
          "name": "A#2",
          "ticks": 21504,
          "time": 112,
          "velocity": 0.4330708661417323
        },
        {
          "duration": 0.1666666666666714,
          "durationTicks": 32,
          "midi": 46,
          "name": "A#2",
          "ticks": 21571,
          "time": 112.34895833333333,
          "velocity": 0.4015748031496063
        },
        {
          "duration": 0.1666666666666714,
          "durationTicks": 32,
          "midi": 42,
          "name": "F#2",
          "ticks": 21648,
          "time": 112.75,
          "velocity": 0.4094488188976378
        },
        {
          "duration": 0.1666666666666714,
          "durationTicks": 32,
          "midi": 42,
          "name": "F#2",
          "ticks": 21720,
          "time": 113.125,
          "velocity": 0.3937007874015748
        },
        {
          "duration": 0.1666666666666714,
          "durationTicks": 32,
          "midi": 42,
          "name": "F#2",
          "ticks": 21784,
          "time": 113.45833333333333,
          "velocity": 0.4251968503937008
        },
        {
          "duration": 0.1666666666666714,
          "durationTicks": 32,
          "midi": 46,
          "name": "A#2",
          "ticks": 21888,
          "time": 114,
          "velocity": 0.44881889763779526
        },
        {
          "duration": 0.2083333333333286,
          "durationTicks": 40,
          "midi": 46,
          "name": "A#2",
          "ticks": 21960,
          "time": 114.375,
          "velocity": 0.44881889763779526
        },
        {
          "duration": 0.1822916666666714,
          "durationTicks": 35,
          "midi": 42,
          "name": "F#2",
          "ticks": 22033,
          "time": 114.75520833333333,
          "velocity": 0.41732283464566927
        },
        {
          "duration": 0.1875,
          "durationTicks": 36,
          "midi": 42,
          "name": "F#2",
          "ticks": 22104,
          "time": 115.125,
          "velocity": 0.4330708661417323
        },
        {
          "duration": 0.2552083333333286,
          "durationTicks": 49,
          "midi": 42,
          "name": "F#2",
          "ticks": 22176,
          "time": 115.5,
          "velocity": 0.44881889763779526
        },
        {
          "duration": 0.2447916666666714,
          "durationTicks": 47,
          "midi": 46,
          "name": "A#2",
          "ticks": 22272,
          "time": 116,
          "velocity": 0.4409448818897638
        },
        {
          "duration": 0.1875,
          "durationTicks": 36,
          "midi": 46,
          "name": "A#2",
          "ticks": 22344,
          "time": 116.375,
          "velocity": 0.4094488188976378
        },
        {
          "duration": 0.1770833333333286,
          "durationTicks": 34,
          "midi": 40,
          "name": "E2",
          "ticks": 22416,
          "time": 116.75,
          "velocity": 0.48031496062992124
        },
        {
          "duration": 0.1875,
          "durationTicks": 36,
          "midi": 40,
          "name": "E2",
          "ticks": 22488,
          "time": 117.125,
          "velocity": 0.5196850393700787
        },
        {
          "duration": 0.28125,
          "durationTicks": 54,
          "midi": 40,
          "name": "E2",
          "ticks": 22560,
          "time": 117.5,
          "velocity": 0.5433070866141733
        },
        {
          "duration": 0.1666666666666714,
          "durationTicks": 32,
          "midi": 46,
          "name": "A#2",
          "ticks": 22656,
          "time": 118,
          "velocity": 0.47244094488188976
        },
        {
          "duration": 0.2135416666666714,
          "durationTicks": 41,
          "midi": 46,
          "name": "A#2",
          "ticks": 22728,
          "time": 118.375,
          "velocity": 0.44881889763779526
        },
        {
          "duration": 0.1666666666666714,
          "durationTicks": 32,
          "midi": 40,
          "name": "E2",
          "ticks": 22800,
          "time": 118.75,
          "velocity": 0.48031496062992124
        },
        {
          "duration": 0.1666666666666714,
          "durationTicks": 32,
          "midi": 40,
          "name": "E2",
          "ticks": 22872,
          "time": 119.125,
          "velocity": 0.47244094488188976
        },
        {
          "duration": 0.3020833333333286,
          "durationTicks": 58,
          "midi": 40,
          "name": "E2",
          "ticks": 22944,
          "time": 119.5,
          "velocity": 0.5196850393700787
        },
        {
          "duration": 1.0052083333333286,
          "durationTicks": 193,
          "midi": 44,
          "name": "G#2",
          "ticks": 23040,
          "time": 120,
          "velocity": 0.3858267716535433
        },
        {
          "duration": 1.25,
          "durationTicks": 240,
          "midi": 42,
          "name": "F#2",
          "ticks": 23137,
          "time": 120.50520833333333,
          "velocity": 0.4251968503937008
        },
        {
          "duration": 1,
          "durationTicks": 192,
          "midi": 40,
          "name": "E2",
          "ticks": 23425,
          "time": 122.00520833333333,
          "velocity": 0.4645669291338583
        },
        {
          "duration": 0.9895833333333286,
          "durationTicks": 190,
          "midi": 38,
          "name": "D2",
          "ticks": 23619,
          "time": 123.015625,
          "velocity": 0.4645669291338583
        },
        {
          "duration": 1,
          "durationTicks": 192,
          "midi": 44,
          "name": "G#2",
          "ticks": 23809,
          "time": 124.00520833333333,
          "velocity": 0.3858267716535433
        },
        {
          "duration": 1.25,
          "durationTicks": 240,
          "midi": 42,
          "name": "F#2",
          "ticks": 23905,
          "time": 124.50520833333333,
          "velocity": 0.3858267716535433
        },
        {
          "duration": 1,
          "durationTicks": 192,
          "midi": 40,
          "name": "E2",
          "ticks": 24193,
          "time": 126.00520833333333,
          "velocity": 0.3937007874015748
        },
        {
          "duration": 0.8958333333333428,
          "durationTicks": 172,
          "midi": 38,
          "name": "D2",
          "ticks": 24385,
          "time": 127.00520833333333,
          "velocity": 0.49606299212598426
        },
        {
          "duration": 0.875,
          "durationTicks": 168,
          "midi": 48,
          "name": "C3",
          "ticks": 24577,
          "time": 128.00520833333334,
          "velocity": 0.4881889763779528
        },
        {
          "duration": 1.5,
          "durationTicks": 288,
          "midi": 46,
          "name": "A#2",
          "ticks": 24673,
          "time": 128.50520833333334,
          "velocity": 0.4330708661417323
        },
        {
          "duration": 0.5833333333333144,
          "durationTicks": 112,
          "midi": 48,
          "name": "C3",
          "ticks": 24961,
          "time": 130.00520833333334,
          "velocity": 0.5039370078740157
        },
        {
          "duration": 0.9322916666666572,
          "durationTicks": 179,
          "midi": 44,
          "name": "G#2",
          "ticks": 25153,
          "time": 131.00520833333334,
          "velocity": 0.3937007874015748
        },
        {
          "duration": 0.765625,
          "durationTicks": 147,
          "midi": 42,
          "name": "F#2",
          "ticks": 25345,
          "time": 132.00520833333334,
          "velocity": 0.4330708661417323
        },
        {
          "duration": 0.7708333333333144,
          "durationTicks": 148,
          "midi": 44,
          "name": "G#2",
          "ticks": 25537,
          "time": 133.00520833333334,
          "velocity": 0.3858267716535433
        },
        {
          "duration": 0.9947916666666572,
          "durationTicks": 191,
          "midi": 48,
          "name": "C3",
          "ticks": 25729,
          "time": 134.00520833333334,
          "velocity": 0.5196850393700787
        },
        {
          "duration": 0.9791666666666572,
          "durationTicks": 188,
          "midi": 42,
          "name": "F#2",
          "ticks": 25921,
          "time": 135.00520833333334,
          "velocity": 0.33858267716535434
        },
        {
          "duration": 0.5885416666666572,
          "durationTicks": 113,
          "midi": 46,
          "name": "A#2",
          "ticks": 26113,
          "time": 136.00520833333334,
          "velocity": 0.36220472440944884
        },
        {
          "duration": 1.4895833333333428,
          "durationTicks": 286,
          "midi": 44,
          "name": "G#2",
          "ticks": 26208,
          "time": 136.5,
          "velocity": 0.41732283464566927
        },
        {
          "duration": 1.9947916666666572,
          "durationTicks": 383,
          "midi": 42,
          "name": "F#2",
          "ticks": 26497,
          "time": 138.00520833333334,
          "velocity": 0.4330708661417323
        },
        {
          "duration": 0.5520833333333144,
          "durationTicks": 106,
          "midi": 46,
          "name": "A#2",
          "ticks": 26881,
          "time": 140.00520833333334,
          "velocity": 0.3779527559055118
        },
        {
          "duration": 1.6302083333333144,
          "durationTicks": 313,
          "midi": 44,
          "name": "G#2",
          "ticks": 26977,
          "time": 140.50520833333334,
          "velocity": 0.44881889763779526
        },
        {
          "duration": 1.9947916666666572,
          "durationTicks": 383,
          "midi": 42,
          "name": "F#2",
          "ticks": 27265,
          "time": 142.00520833333334,
          "velocity": 0.44881889763779526
        },
        {
          "duration": 0.5,
          "durationTicks": 96,
          "midi": 48,
          "name": "C3",
          "ticks": 27649,
          "time": 144.00520833333334,
          "velocity": 0.5039370078740157
        },
        {
          "duration": 1.578125,
          "durationTicks": 303,
          "midi": 46,
          "name": "A#2",
          "ticks": 27745,
          "time": 144.50520833333334,
          "velocity": 0.4094488188976378
        },
        {
          "duration": 0.6197916666666572,
          "durationTicks": 119,
          "midi": 48,
          "name": "C3",
          "ticks": 28033,
          "time": 146.00520833333334,
          "velocity": 0.48031496062992124
        },
        {
          "duration": 1.015625,
          "durationTicks": 195,
          "midi": 44,
          "name": "G#2",
          "ticks": 28222,
          "time": 146.98958333333334,
          "velocity": 0.4015748031496063
        },
        {
          "duration": 1.0989583333333144,
          "durationTicks": 211,
          "midi": 42,
          "name": "F#2",
          "ticks": 28417,
          "time": 148.00520833333334,
          "velocity": 0.44881889763779526
        },
        {
          "duration": 1,
          "durationTicks": 192,
          "midi": 52,
          "name": "E3",
          "ticks": 28800,
          "time": 150,
          "velocity": 0.3700787401574803
        },
        {
          "duration": 1,
          "durationTicks": 192,
          "midi": 50,
          "name": "D3",
          "ticks": 28992,
          "time": 151,
          "velocity": 0.5039370078740157
        },
        {
          "duration": 0.2135416666666572,
          "durationTicks": 41,
          "midi": 46,
          "name": "A#2",
          "ticks": 29184,
          "time": 152,
          "velocity": 0.47244094488188976
        },
        {
          "duration": 0.203125,
          "durationTicks": 39,
          "midi": 46,
          "name": "A#2",
          "ticks": 29250,
          "time": 152.34375,
          "velocity": 0.44881889763779526
        },
        {
          "duration": 0.1666666666666572,
          "durationTicks": 32,
          "midi": 42,
          "name": "F#2",
          "ticks": 29329,
          "time": 152.75520833333334,
          "velocity": 0.44881889763779526
        },
        {
          "duration": 0.1666666666666572,
          "durationTicks": 32,
          "midi": 42,
          "name": "F#2",
          "ticks": 29401,
          "time": 153.13020833333334,
          "velocity": 0.4251968503937008
        },
        {
          "duration": 0.1666666666666572,
          "durationTicks": 32,
          "midi": 42,
          "name": "F#2",
          "ticks": 29472,
          "time": 153.5,
          "velocity": 0.2283464566929134
        },
        {
          "duration": 0.1666666666666572,
          "durationTicks": 32,
          "midi": 46,
          "name": "A#2",
          "ticks": 29568,
          "time": 154,
          "velocity": 0.4409448818897638
        },
        {
          "duration": 0.2083333333333428,
          "durationTicks": 40,
          "midi": 46,
          "name": "A#2",
          "ticks": 29637,
          "time": 154.359375,
          "velocity": 0.44881889763779526
        },
        {
          "duration": 0.1666666666666572,
          "durationTicks": 32,
          "midi": 42,
          "name": "F#2",
          "ticks": 29712,
          "time": 154.75,
          "velocity": 0.44881889763779526
        },
        {
          "duration": 0.1666666666666572,
          "durationTicks": 32,
          "midi": 42,
          "name": "F#2",
          "ticks": 29784,
          "time": 155.125,
          "velocity": 0.3937007874015748
        },
        {
          "duration": 0.1666666666666572,
          "durationTicks": 32,
          "midi": 42,
          "name": "F#2",
          "ticks": 29856,
          "time": 155.5,
          "velocity": 0.4881889763779528
        },
        {
          "duration": 0.1666666666666572,
          "durationTicks": 32,
          "midi": 46,
          "name": "A#2",
          "ticks": 29952,
          "time": 156,
          "velocity": 0.4330708661417323
        },
        {
          "duration": 0.203125,
          "durationTicks": 39,
          "midi": 46,
          "name": "A#2",
          "ticks": 30025,
          "time": 156.38020833333334,
          "velocity": 0.4330708661417323
        },
        {
          "duration": 0.1770833333333428,
          "durationTicks": 34,
          "midi": 40,
          "name": "E2",
          "ticks": 30096,
          "time": 156.75,
          "velocity": 0.4409448818897638
        },
        {
          "duration": 0.1666666666666572,
          "durationTicks": 32,
          "midi": 40,
          "name": "E2",
          "ticks": 30168,
          "time": 157.125,
          "velocity": 0.48031496062992124
        },
        {
          "duration": 0.1666666666666572,
          "durationTicks": 32,
          "midi": 40,
          "name": "E2",
          "ticks": 30240,
          "time": 157.5,
          "velocity": 0.5511811023622047
        },
        {
          "duration": 0.1666666666666572,
          "durationTicks": 32,
          "midi": 46,
          "name": "A#2",
          "ticks": 30336,
          "time": 158,
          "velocity": 0.4330708661417323
        },
        {
          "duration": 0.1666666666666572,
          "durationTicks": 32,
          "midi": 46,
          "name": "A#2",
          "ticks": 30403,
          "time": 158.34895833333334,
          "velocity": 0.4409448818897638
        },
        {
          "duration": 0.1927083333333428,
          "durationTicks": 37,
          "midi": 40,
          "name": "E2",
          "ticks": 30480,
          "time": 158.75,
          "velocity": 0.5196850393700787
        },
        {
          "duration": 0.1666666666666572,
          "durationTicks": 32,
          "midi": 40,
          "name": "E2",
          "ticks": 30552,
          "time": 159.125,
          "velocity": 0.4409448818897638
        },
        {
          "duration": 0.1666666666666572,
          "durationTicks": 32,
          "midi": 40,
          "name": "E2",
          "ticks": 30624,
          "time": 159.5,
          "velocity": 0.5196850393700787
        },
        {
          "duration": 0.1666666666666572,
          "durationTicks": 32,
          "midi": 46,
          "name": "A#2",
          "ticks": 30720,
          "time": 160,
          "velocity": 0.4330708661417323
        },
        {
          "duration": 0.1666666666666572,
          "durationTicks": 32,
          "midi": 46,
          "name": "A#2",
          "ticks": 30787,
          "time": 160.34895833333334,
          "velocity": 0.4015748031496063
        },
        {
          "duration": 0.1666666666666572,
          "durationTicks": 32,
          "midi": 42,
          "name": "F#2",
          "ticks": 30864,
          "time": 160.75,
          "velocity": 0.4094488188976378
        },
        {
          "duration": 0.1666666666666572,
          "durationTicks": 32,
          "midi": 42,
          "name": "F#2",
          "ticks": 30936,
          "time": 161.125,
          "velocity": 0.3937007874015748
        },
        {
          "duration": 0.1666666666666572,
          "durationTicks": 32,
          "midi": 42,
          "name": "F#2",
          "ticks": 31000,
          "time": 161.45833333333334,
          "velocity": 0.4251968503937008
        },
        {
          "duration": 0.1666666666666572,
          "durationTicks": 32,
          "midi": 46,
          "name": "A#2",
          "ticks": 31104,
          "time": 162,
          "velocity": 0.44881889763779526
        },
        {
          "duration": 0.2083333333333428,
          "durationTicks": 40,
          "midi": 46,
          "name": "A#2",
          "ticks": 31176,
          "time": 162.375,
          "velocity": 0.44881889763779526
        },
        {
          "duration": 0.1822916666666572,
          "durationTicks": 35,
          "midi": 42,
          "name": "F#2",
          "ticks": 31249,
          "time": 162.75520833333334,
          "velocity": 0.41732283464566927
        },
        {
          "duration": 0.1875,
          "durationTicks": 36,
          "midi": 42,
          "name": "F#2",
          "ticks": 31320,
          "time": 163.125,
          "velocity": 0.4330708661417323
        },
        {
          "duration": 0.2552083333333428,
          "durationTicks": 49,
          "midi": 42,
          "name": "F#2",
          "ticks": 31392,
          "time": 163.5,
          "velocity": 0.44881889763779526
        },
        {
          "duration": 0.2447916666666572,
          "durationTicks": 47,
          "midi": 46,
          "name": "A#2",
          "ticks": 31488,
          "time": 164,
          "velocity": 0.4409448818897638
        },
        {
          "duration": 0.1875,
          "durationTicks": 36,
          "midi": 46,
          "name": "A#2",
          "ticks": 31560,
          "time": 164.375,
          "velocity": 0.4094488188976378
        },
        {
          "duration": 0.1770833333333428,
          "durationTicks": 34,
          "midi": 40,
          "name": "E2",
          "ticks": 31632,
          "time": 164.75,
          "velocity": 0.48031496062992124
        },
        {
          "duration": 0.1875,
          "durationTicks": 36,
          "midi": 40,
          "name": "E2",
          "ticks": 31704,
          "time": 165.125,
          "velocity": 0.5196850393700787
        },
        {
          "duration": 0.28125,
          "durationTicks": 54,
          "midi": 40,
          "name": "E2",
          "ticks": 31776,
          "time": 165.5,
          "velocity": 0.5433070866141733
        },
        {
          "duration": 0.1666666666666572,
          "durationTicks": 32,
          "midi": 46,
          "name": "A#2",
          "ticks": 31872,
          "time": 166,
          "velocity": 0.47244094488188976
        },
        {
          "duration": 0.2135416666666572,
          "durationTicks": 41,
          "midi": 46,
          "name": "A#2",
          "ticks": 31944,
          "time": 166.375,
          "velocity": 0.44881889763779526
        },
        {
          "duration": 0.1666666666666572,
          "durationTicks": 32,
          "midi": 40,
          "name": "E2",
          "ticks": 32016,
          "time": 166.75,
          "velocity": 0.48031496062992124
        },
        {
          "duration": 0.1666666666666572,
          "durationTicks": 32,
          "midi": 40,
          "name": "E2",
          "ticks": 32088,
          "time": 167.125,
          "velocity": 0.47244094488188976
        },
        {
          "duration": 0.3020833333333428,
          "durationTicks": 58,
          "midi": 40,
          "name": "E2",
          "ticks": 32160,
          "time": 167.5,
          "velocity": 0.5196850393700787
        },
        {
          "duration": 0.875,
          "durationTicks": 168,
          "midi": 40,
          "name": "E2",
          "ticks": 32256,
          "time": 168,
          "velocity": 0.3779527559055118
        },
        {
          "duration": 0.6302083333333428,
          "durationTicks": 121,
          "midi": 46,
          "name": "A#2",
          "ticks": 32448,
          "time": 169,
          "velocity": 0.3858267716535433
        },
        {
          "duration": 0.7447916666666572,
          "durationTicks": 143,
          "midi": 44,
          "name": "G#2",
          "ticks": 32544,
          "time": 169.5,
          "velocity": 0.3779527559055118
        },
        {
          "duration": 0.875,
          "durationTicks": 168,
          "midi": 40,
          "name": "E2",
          "ticks": 32640,
          "time": 170,
          "velocity": 0.3779527559055118
        },
        {
          "duration": 0.6302083333333428,
          "durationTicks": 121,
          "midi": 46,
          "name": "A#2",
          "ticks": 32832,
          "time": 171,
          "velocity": 0.3858267716535433
        },
        {
          "duration": 0.7447916666666572,
          "durationTicks": 143,
          "midi": 44,
          "name": "G#2",
          "ticks": 32928,
          "time": 171.5,
          "velocity": 0.3779527559055118
        },
        {
          "duration": 0.875,
          "durationTicks": 168,
          "midi": 40,
          "name": "E2",
          "ticks": 33024,
          "time": 172,
          "velocity": 0.3779527559055118
        },
        {
          "duration": 0.6302083333333428,
          "durationTicks": 121,
          "midi": 46,
          "name": "A#2",
          "ticks": 33216,
          "time": 173,
          "velocity": 0.3858267716535433
        },
        {
          "duration": 0.7447916666666572,
          "durationTicks": 143,
          "midi": 44,
          "name": "G#2",
          "ticks": 33312,
          "time": 173.5,
          "velocity": 0.3779527559055118
        },
        {
          "duration": 0.875,
          "durationTicks": 168,
          "midi": 40,
          "name": "E2",
          "ticks": 33408,
          "time": 174,
          "velocity": 0.3779527559055118
        },
        {
          "duration": 0.6302083333333428,
          "durationTicks": 121,
          "midi": 46,
          "name": "A#2",
          "ticks": 33600,
          "time": 175,
          "velocity": 0.3858267716535433
        },
        {
          "duration": 0.7447916666666572,
          "durationTicks": 143,
          "midi": 44,
          "name": "G#2",
          "ticks": 33696,
          "time": 175.5,
          "velocity": 0.3779527559055118
        },
        {
          "duration": 0.8697916666666572,
          "durationTicks": 167,
          "midi": 48,
          "name": "C3",
          "ticks": 33792,
          "time": 176,
          "velocity": 0.4881889763779528
        },
        {
          "duration": 1,
          "durationTicks": 192,
          "midi": 46,
          "name": "A#2",
          "ticks": 33983,
          "time": 176.99479166666666,
          "velocity": 0.4330708661417323
        },
        {
          "duration": 0.5833333333333428,
          "durationTicks": 112,
          "midi": 48,
          "name": "C3",
          "ticks": 34176,
          "time": 178,
          "velocity": 0.5039370078740157
        },
        {
          "duration": 1.0052083333333428,
          "durationTicks": 193,
          "midi": 44,
          "name": "G#2",
          "ticks": 34367,
          "time": 178.99479166666666,
          "velocity": 0.3937007874015748
        },
        {
          "duration": 1.25,
          "durationTicks": 240,
          "midi": 42,
          "name": "F#2",
          "ticks": 34560,
          "time": 180,
          "velocity": 0.4330708661417323
        },
        {
          "duration": 0.5,
          "durationTicks": 96,
          "midi": 48,
          "name": "C3",
          "ticks": 34944,
          "time": 182,
          "velocity": 0.5196850393700787
        },
        {
          "duration": 0.5,
          "durationTicks": 96,
          "midi": 46,
          "name": "A#2",
          "ticks": 35039,
          "time": 182.49479166666666,
          "velocity": 0.33858267716535434
        },
        {
          "duration": 1.0052083333333428,
          "durationTicks": 193,
          "midi": 42,
          "name": "F#2",
          "ticks": 35135,
          "time": 182.99479166666666,
          "velocity": 0.33858267716535434
        }
      ]
    }
  ]
}