export const julietRomeo = {
    "header": {
      "keySignatures": [],
      "meta": [],
      "name": "6-MIDI 2\u0000",
      "ppq": 96,
      "bpm": 122,
      "timeSignatures": [
        {
          "ticks": 0,
          "timeSignature": [
            4,
            4
          ],
          "measures": 0
        },
        {
          "ticks": 0,
          "timeSignature": [
            4,
            4
          ],
          "measures": 0
        }
      ]
    },
    "tracks": [
      {
        "channel": 0,
        "controlChanges": {},
        "pitchBends": [],
        "instrument": {
          "family": "piano",
          "name": "acoustic grand piano",
          "number": 0
        },
        "name": "6-MIDI 2\u0000",
        "notes": [
          {
            "duration": 0.21354166666666607,
            "durationTicks": 41,
            "midi": 46,
            "name": "A#2",
            "ticks": 1680,
            "time": 8.75,
            "velocity": 0.47244094488188976
          },
          {
            "duration": 0.203125,
            "durationTicks": 39,
            "midi": 46,
            "name": "A#2",
            "ticks": 1746,
            "time": 9.09375,
            "velocity": 0.44881889763779526
          },
          {
            "duration": 0.16666666666666607,
            "durationTicks": 32,
            "midi": 42,
            "name": "F#2",
            "ticks": 1825,
            "time": 9.505208333333334,
            "velocity": 0.44881889763779526
          },
          {
            "duration": 0.16666666666666607,
            "durationTicks": 32,
            "midi": 42,
            "name": "F#2",
            "ticks": 1897,
            "time": 9.880208333333334,
            "velocity": 0.4251968503937008
          },
          {
            "duration": 0.16666666666666607,
            "durationTicks": 32,
            "midi": 42,
            "name": "F#2",
            "ticks": 1968,
            "time": 10.25,
            "velocity": 0.2283464566929134
          },
          {
            "duration": 0.16666666666666607,
            "durationTicks": 32,
            "midi": 46,
            "name": "A#2",
            "ticks": 2064,
            "time": 10.75,
            "velocity": 0.4409448818897638
          },
          {
            "duration": 0.20833333333333393,
            "durationTicks": 40,
            "midi": 46,
            "name": "A#2",
            "ticks": 2133,
            "time": 11.109375,
            "velocity": 0.44881889763779526
          },
          {
            "duration": 0.16666666666666607,
            "durationTicks": 32,
            "midi": 42,
            "name": "F#2",
            "ticks": 2208,
            "time": 11.5,
            "velocity": 0.44881889763779526
          },
          {
            "duration": 0.16666666666666607,
            "durationTicks": 32,
            "midi": 42,
            "name": "F#2",
            "ticks": 2280,
            "time": 11.875,
            "velocity": 0.3937007874015748
          },
          {
            "duration": 0.16666666666666607,
            "durationTicks": 32,
            "midi": 42,
            "name": "F#2",
            "ticks": 2352,
            "time": 12.25,
            "velocity": 0.4881889763779528
          },
          {
            "duration": 0.16666666666666607,
            "durationTicks": 32,
            "midi": 46,
            "name": "A#2",
            "ticks": 2448,
            "time": 12.75,
            "velocity": 0.4330708661417323
          },
          {
            "duration": 0.203125,
            "durationTicks": 39,
            "midi": 46,
            "name": "A#2",
            "ticks": 2521,
            "time": 13.130208333333334,
            "velocity": 0.4330708661417323
          },
          {
            "duration": 0.17708333333333393,
            "durationTicks": 34,
            "midi": 40,
            "name": "E2",
            "ticks": 2592,
            "time": 13.5,
            "velocity": 0.4409448818897638
          },
          {
            "duration": 0.16666666666666607,
            "durationTicks": 32,
            "midi": 40,
            "name": "E2",
            "ticks": 2664,
            "time": 13.875,
            "velocity": 0.48031496062992124
          },
          {
            "duration": 0.16666666666666607,
            "durationTicks": 32,
            "midi": 40,
            "name": "E2",
            "ticks": 2736,
            "time": 14.25,
            "velocity": 0.5511811023622047
          },
          {
            "duration": 0.16666666666666607,
            "durationTicks": 32,
            "midi": 46,
            "name": "A#2",
            "ticks": 2832,
            "time": 14.75,
            "velocity": 0.4330708661417323
          },
          {
            "duration": 0.16666666666666607,
            "durationTicks": 32,
            "midi": 46,
            "name": "A#2",
            "ticks": 2899,
            "time": 15.098958333333334,
            "velocity": 0.4409448818897638
          },
          {
            "duration": 0.19270833333333393,
            "durationTicks": 37,
            "midi": 40,
            "name": "E2",
            "ticks": 2976,
            "time": 15.5,
            "velocity": 0.5196850393700787
          },
          {
            "duration": 0.16666666666666785,
            "durationTicks": 32,
            "midi": 40,
            "name": "E2",
            "ticks": 3048,
            "time": 15.875,
            "velocity": 0.4409448818897638
          },
          {
            "duration": 0.16666666666666785,
            "durationTicks": 32,
            "midi": 40,
            "name": "E2",
            "ticks": 3120,
            "time": 16.25,
            "velocity": 0.5196850393700787
          },
          {
            "duration": 0.16666666666666785,
            "durationTicks": 32,
            "midi": 46,
            "name": "A#2",
            "ticks": 3216,
            "time": 16.75,
            "velocity": 0.4330708661417323
          },
          {
            "duration": 0.16666666666666785,
            "durationTicks": 32,
            "midi": 46,
            "name": "A#2",
            "ticks": 3283,
            "time": 17.098958333333332,
            "velocity": 0.4015748031496063
          },
          {
            "duration": 0.16666666666666785,
            "durationTicks": 32,
            "midi": 42,
            "name": "F#2",
            "ticks": 3360,
            "time": 17.5,
            "velocity": 0.4094488188976378
          },
          {
            "duration": 0.16666666666666785,
            "durationTicks": 32,
            "midi": 42,
            "name": "F#2",
            "ticks": 3432,
            "time": 17.875,
            "velocity": 0.3937007874015748
          },
          {
            "duration": 0.16666666666666785,
            "durationTicks": 32,
            "midi": 42,
            "name": "F#2",
            "ticks": 3496,
            "time": 18.208333333333332,
            "velocity": 0.4251968503937008
          },
          {
            "duration": 0.16666666666666785,
            "durationTicks": 32,
            "midi": 46,
            "name": "A#2",
            "ticks": 3600,
            "time": 18.75,
            "velocity": 0.44881889763779526
          },
          {
            "duration": 0.21354166666666785,
            "durationTicks": 41,
            "midi": 46,
            "name": "A#2",
            "ticks": 3675,
            "time": 19.140625,
            "velocity": 0.44881889763779526
          },
          {
            "duration": 0.18229166666666785,
            "durationTicks": 35,
            "midi": 42,
            "name": "F#2",
            "ticks": 3745,
            "time": 19.505208333333332,
            "velocity": 0.41732283464566927
          },
          {
            "duration": 0.16666666666666785,
            "durationTicks": 32,
            "midi": 42,
            "name": "F#2",
            "ticks": 3825,
            "time": 19.921875,
            "velocity": 0.4330708661417323
          },
          {
            "duration": 0.26041666666666785,
            "durationTicks": 50,
            "midi": 42,
            "name": "F#2",
            "ticks": 3879,
            "time": 20.203125,
            "velocity": 0.44881889763779526
          },
          {
            "duration": 0.234375,
            "durationTicks": 45,
            "midi": 46,
            "name": "A#2",
            "ticks": 3984,
            "time": 20.75,
            "velocity": 0.4409448818897638
          },
          {
            "duration": 0.171875,
            "durationTicks": 33,
            "midi": 46,
            "name": "A#2",
            "ticks": 4080,
            "time": 21.25,
            "velocity": 0.4094488188976378
          },
          {
            "duration": 0.17708333333333215,
            "durationTicks": 34,
            "midi": 40,
            "name": "E2",
            "ticks": 4128,
            "time": 21.5,
            "velocity": 0.48031496062992124
          },
          {
            "duration": 0.21875,
            "durationTicks": 42,
            "midi": 40,
            "name": "E2",
            "ticks": 4200,
            "time": 21.875,
            "velocity": 0.5196850393700787
          },
          {
            "duration": 0.28125,
            "durationTicks": 54,
            "midi": 40,
            "name": "E2",
            "ticks": 4272,
            "time": 22.25,
            "velocity": 0.5433070866141733
          },
          {
            "duration": 0.22916666666666785,
            "durationTicks": 44,
            "midi": 46,
            "name": "A#2",
            "ticks": 4368,
            "time": 22.75,
            "velocity": 0.47244094488188976
          },
          {
            "duration": 0.21875,
            "durationTicks": 42,
            "midi": 46,
            "name": "A#2",
            "ticks": 4438,
            "time": 23.114583333333332,
            "velocity": 0.44881889763779526
          },
          {
            "duration": 0.16666666666666785,
            "durationTicks": 32,
            "midi": 40,
            "name": "E2",
            "ticks": 4513,
            "time": 23.505208333333332,
            "velocity": 0.48031496062992124
          },
          {
            "duration": 0.16666666666666785,
            "durationTicks": 32,
            "midi": 40,
            "name": "E2",
            "ticks": 4584,
            "time": 23.875,
            "velocity": 0.47244094488188976
          },
          {
            "duration": 0.30208333333333215,
            "durationTicks": 58,
            "midi": 40,
            "name": "E2",
            "ticks": 4656,
            "time": 24.25,
            "velocity": 0.5196850393700787
          },
          {
            "duration": 0.21354166666666785,
            "durationTicks": 41,
            "midi": 46,
            "name": "A#2",
            "ticks": 4752,
            "time": 24.75,
            "velocity": 0.47244094488188976
          },
          {
            "duration": 0.203125,
            "durationTicks": 39,
            "midi": 46,
            "name": "A#2",
            "ticks": 4818,
            "time": 25.09375,
            "velocity": 0.44881889763779526
          },
          {
            "duration": 0.16666666666666785,
            "durationTicks": 32,
            "midi": 42,
            "name": "F#2",
            "ticks": 4897,
            "time": 25.505208333333332,
            "velocity": 0.44881889763779526
          },
          {
            "duration": 0.16666666666666785,
            "durationTicks": 32,
            "midi": 42,
            "name": "F#2",
            "ticks": 4969,
            "time": 25.880208333333332,
            "velocity": 0.4251968503937008
          },
          {
            "duration": 0.16666666666666785,
            "durationTicks": 32,
            "midi": 42,
            "name": "F#2",
            "ticks": 5040,
            "time": 26.25,
            "velocity": 0.2283464566929134
          },
          {
            "duration": 0.16666666666666785,
            "durationTicks": 32,
            "midi": 46,
            "name": "A#2",
            "ticks": 5136,
            "time": 26.75,
            "velocity": 0.4409448818897638
          },
          {
            "duration": 0.20833333333333215,
            "durationTicks": 40,
            "midi": 46,
            "name": "A#2",
            "ticks": 5205,
            "time": 27.109375,
            "velocity": 0.44881889763779526
          },
          {
            "duration": 0.16666666666666785,
            "durationTicks": 32,
            "midi": 42,
            "name": "F#2",
            "ticks": 5280,
            "time": 27.5,
            "velocity": 0.44881889763779526
          },
          {
            "duration": 0.16666666666666785,
            "durationTicks": 32,
            "midi": 42,
            "name": "F#2",
            "ticks": 5352,
            "time": 27.875,
            "velocity": 0.3937007874015748
          },
          {
            "duration": 0.16666666666666785,
            "durationTicks": 32,
            "midi": 42,
            "name": "F#2",
            "ticks": 5424,
            "time": 28.25,
            "velocity": 0.4881889763779528
          },
          {
            "duration": 0.16666666666666785,
            "durationTicks": 32,
            "midi": 46,
            "name": "A#2",
            "ticks": 5520,
            "time": 28.75,
            "velocity": 0.4330708661417323
          },
          {
            "duration": 0.203125,
            "durationTicks": 39,
            "midi": 46,
            "name": "A#2",
            "ticks": 5593,
            "time": 29.130208333333332,
            "velocity": 0.4330708661417323
          },
          {
            "duration": 0.17708333333333215,
            "durationTicks": 34,
            "midi": 40,
            "name": "E2",
            "ticks": 5664,
            "time": 29.5,
            "velocity": 0.4409448818897638
          },
          {
            "duration": 0.16666666666666785,
            "durationTicks": 32,
            "midi": 40,
            "name": "E2",
            "ticks": 5736,
            "time": 29.875,
            "velocity": 0.48031496062992124
          },
          {
            "duration": 0.16666666666666785,
            "durationTicks": 32,
            "midi": 40,
            "name": "E2",
            "ticks": 5808,
            "time": 30.25,
            "velocity": 0.5511811023622047
          },
          {
            "duration": 0.16666666666666785,
            "durationTicks": 32,
            "midi": 46,
            "name": "A#2",
            "ticks": 5904,
            "time": 30.75,
            "velocity": 0.4330708661417323
          },
          {
            "duration": 0.16666666666666785,
            "durationTicks": 32,
            "midi": 46,
            "name": "A#2",
            "ticks": 5971,
            "time": 31.098958333333332,
            "velocity": 0.4409448818897638
          },
          {
            "duration": 0.19270833333333215,
            "durationTicks": 37,
            "midi": 40,
            "name": "E2",
            "ticks": 6048,
            "time": 31.5,
            "velocity": 0.5196850393700787
          },
          {
            "duration": 0.1666666666666643,
            "durationTicks": 32,
            "midi": 40,
            "name": "E2",
            "ticks": 6120,
            "time": 31.875,
            "velocity": 0.4409448818897638
          },
          {
            "duration": 0.1666666666666643,
            "durationTicks": 32,
            "midi": 40,
            "name": "E2",
            "ticks": 6192,
            "time": 32.25,
            "velocity": 0.5196850393700787
          },
          {
            "duration": 0.1666666666666643,
            "durationTicks": 32,
            "midi": 46,
            "name": "A#2",
            "ticks": 6288,
            "time": 32.75,
            "velocity": 0.4330708661417323
          },
          {
            "duration": 0.1666666666666643,
            "durationTicks": 32,
            "midi": 46,
            "name": "A#2",
            "ticks": 6355,
            "time": 33.098958333333336,
            "velocity": 0.4015748031496063
          },
          {
            "duration": 0.1666666666666643,
            "durationTicks": 32,
            "midi": 42,
            "name": "F#2",
            "ticks": 6432,
            "time": 33.5,
            "velocity": 0.4094488188976378
          },
          {
            "duration": 0.1666666666666643,
            "durationTicks": 32,
            "midi": 42,
            "name": "F#2",
            "ticks": 6504,
            "time": 33.875,
            "velocity": 0.3937007874015748
          },
          {
            "duration": 0.1666666666666643,
            "durationTicks": 32,
            "midi": 42,
            "name": "F#2",
            "ticks": 6568,
            "time": 34.208333333333336,
            "velocity": 0.4251968503937008
          },
          {
            "duration": 0.1666666666666643,
            "durationTicks": 32,
            "midi": 46,
            "name": "A#2",
            "ticks": 6672,
            "time": 34.75,
            "velocity": 0.44881889763779526
          },
          {
            "duration": 0.2135416666666643,
            "durationTicks": 41,
            "midi": 46,
            "name": "A#2",
            "ticks": 6747,
            "time": 35.140625,
            "velocity": 0.44881889763779526
          },
          {
            "duration": 0.1822916666666643,
            "durationTicks": 35,
            "midi": 42,
            "name": "F#2",
            "ticks": 6817,
            "time": 35.505208333333336,
            "velocity": 0.41732283464566927
          },
          {
            "duration": 0.1666666666666643,
            "durationTicks": 32,
            "midi": 42,
            "name": "F#2",
            "ticks": 6897,
            "time": 35.921875,
            "velocity": 0.4330708661417323
          },
          {
            "duration": 0.2604166666666643,
            "durationTicks": 50,
            "midi": 42,
            "name": "F#2",
            "ticks": 6951,
            "time": 36.203125,
            "velocity": 0.44881889763779526
          },
          {
            "duration": 0.234375,
            "durationTicks": 45,
            "midi": 46,
            "name": "A#2",
            "ticks": 7056,
            "time": 36.75,
            "velocity": 0.4409448818897638
          },
          {
            "duration": 0.171875,
            "durationTicks": 33,
            "midi": 46,
            "name": "A#2",
            "ticks": 7152,
            "time": 37.25,
            "velocity": 0.4094488188976378
          },
          {
            "duration": 0.1770833333333357,
            "durationTicks": 34,
            "midi": 40,
            "name": "E2",
            "ticks": 7200,
            "time": 37.5,
            "velocity": 0.48031496062992124
          },
          {
            "duration": 0.21875,
            "durationTicks": 42,
            "midi": 40,
            "name": "E2",
            "ticks": 7272,
            "time": 37.875,
            "velocity": 0.5196850393700787
          },
          {
            "duration": 0.28125,
            "durationTicks": 54,
            "midi": 40,
            "name": "E2",
            "ticks": 7344,
            "time": 38.25,
            "velocity": 0.5433070866141733
          },
          {
            "duration": 0.2291666666666643,
            "durationTicks": 44,
            "midi": 46,
            "name": "A#2",
            "ticks": 7440,
            "time": 38.75,
            "velocity": 0.47244094488188976
          },
          {
            "duration": 0.21875,
            "durationTicks": 42,
            "midi": 46,
            "name": "A#2",
            "ticks": 7510,
            "time": 39.114583333333336,
            "velocity": 0.44881889763779526
          },
          {
            "duration": 0.1666666666666643,
            "durationTicks": 32,
            "midi": 40,
            "name": "E2",
            "ticks": 7585,
            "time": 39.505208333333336,
            "velocity": 0.48031496062992124
          },
          {
            "duration": 0.1666666666666643,
            "durationTicks": 32,
            "midi": 40,
            "name": "E2",
            "ticks": 7656,
            "time": 39.875,
            "velocity": 0.47244094488188976
          },
          {
            "duration": 0.3020833333333357,
            "durationTicks": 58,
            "midi": 40,
            "name": "E2",
            "ticks": 7728,
            "time": 40.25,
            "velocity": 0.5196850393700787
          },
          {
            "duration": 0.2135416666666643,
            "durationTicks": 41,
            "midi": 46,
            "name": "A#2",
            "ticks": 7824,
            "time": 40.75,
            "velocity": 0.47244094488188976
          },
          {
            "duration": 0.203125,
            "durationTicks": 39,
            "midi": 46,
            "name": "A#2",
            "ticks": 7890,
            "time": 41.09375,
            "velocity": 0.44881889763779526
          },
          {
            "duration": 0.1666666666666643,
            "durationTicks": 32,
            "midi": 42,
            "name": "F#2",
            "ticks": 7969,
            "time": 41.505208333333336,
            "velocity": 0.44881889763779526
          },
          {
            "duration": 0.1666666666666643,
            "durationTicks": 32,
            "midi": 42,
            "name": "F#2",
            "ticks": 8041,
            "time": 41.880208333333336,
            "velocity": 0.4251968503937008
          },
          {
            "duration": 0.1666666666666643,
            "durationTicks": 32,
            "midi": 42,
            "name": "F#2",
            "ticks": 8112,
            "time": 42.25,
            "velocity": 0.2283464566929134
          },
          {
            "duration": 0.1666666666666643,
            "durationTicks": 32,
            "midi": 46,
            "name": "A#2",
            "ticks": 8208,
            "time": 42.75,
            "velocity": 0.4409448818897638
          },
          {
            "duration": 0.2083333333333357,
            "durationTicks": 40,
            "midi": 46,
            "name": "A#2",
            "ticks": 8277,
            "time": 43.109375,
            "velocity": 0.44881889763779526
          },
          {
            "duration": 0.1666666666666643,
            "durationTicks": 32,
            "midi": 42,
            "name": "F#2",
            "ticks": 8352,
            "time": 43.5,
            "velocity": 0.44881889763779526
          },
          {
            "duration": 0.1666666666666643,
            "durationTicks": 32,
            "midi": 42,
            "name": "F#2",
            "ticks": 8424,
            "time": 43.875,
            "velocity": 0.3937007874015748
          },
          {
            "duration": 0.1666666666666643,
            "durationTicks": 32,
            "midi": 42,
            "name": "F#2",
            "ticks": 8496,
            "time": 44.25,
            "velocity": 0.4881889763779528
          },
          {
            "duration": 0.1666666666666643,
            "durationTicks": 32,
            "midi": 46,
            "name": "A#2",
            "ticks": 8592,
            "time": 44.75,
            "velocity": 0.4330708661417323
          },
          {
            "duration": 0.203125,
            "durationTicks": 39,
            "midi": 46,
            "name": "A#2",
            "ticks": 8665,
            "time": 45.130208333333336,
            "velocity": 0.4330708661417323
          },
          {
            "duration": 0.1770833333333357,
            "durationTicks": 34,
            "midi": 40,
            "name": "E2",
            "ticks": 8736,
            "time": 45.5,
            "velocity": 0.4409448818897638
          },
          {
            "duration": 0.1666666666666643,
            "durationTicks": 32,
            "midi": 40,
            "name": "E2",
            "ticks": 8808,
            "time": 45.875,
            "velocity": 0.48031496062992124
          },
          {
            "duration": 0.1666666666666643,
            "durationTicks": 32,
            "midi": 40,
            "name": "E2",
            "ticks": 8880,
            "time": 46.25,
            "velocity": 0.5511811023622047
          },
          {
            "duration": 0.1666666666666643,
            "durationTicks": 32,
            "midi": 46,
            "name": "A#2",
            "ticks": 8976,
            "time": 46.75,
            "velocity": 0.4330708661417323
          },
          {
            "duration": 0.1666666666666643,
            "durationTicks": 32,
            "midi": 46,
            "name": "A#2",
            "ticks": 9043,
            "time": 47.098958333333336,
            "velocity": 0.4409448818897638
          },
          {
            "duration": 0.1927083333333357,
            "durationTicks": 37,
            "midi": 40,
            "name": "E2",
            "ticks": 9120,
            "time": 47.5,
            "velocity": 0.5196850393700787
          },
          {
            "duration": 0.1666666666666643,
            "durationTicks": 32,
            "midi": 40,
            "name": "E2",
            "ticks": 9192,
            "time": 47.875,
            "velocity": 0.4409448818897638
          },
          {
            "duration": 0.1666666666666643,
            "durationTicks": 32,
            "midi": 40,
            "name": "E2",
            "ticks": 9264,
            "time": 48.25,
            "velocity": 0.5196850393700787
          },
          {
            "duration": 0.1666666666666643,
            "durationTicks": 32,
            "midi": 46,
            "name": "A#2",
            "ticks": 9360,
            "time": 48.75,
            "velocity": 0.4330708661417323
          },
          {
            "duration": 0.1666666666666643,
            "durationTicks": 32,
            "midi": 46,
            "name": "A#2",
            "ticks": 9427,
            "time": 49.098958333333336,
            "velocity": 0.4015748031496063
          },
          {
            "duration": 0.1666666666666643,
            "durationTicks": 32,
            "midi": 42,
            "name": "F#2",
            "ticks": 9504,
            "time": 49.5,
            "velocity": 0.4094488188976378
          },
          {
            "duration": 0.1666666666666643,
            "durationTicks": 32,
            "midi": 42,
            "name": "F#2",
            "ticks": 9576,
            "time": 49.875,
            "velocity": 0.3937007874015748
          },
          {
            "duration": 0.1666666666666643,
            "durationTicks": 32,
            "midi": 42,
            "name": "F#2",
            "ticks": 9640,
            "time": 50.208333333333336,
            "velocity": 0.4251968503937008
          },
          {
            "duration": 0.1666666666666643,
            "durationTicks": 32,
            "midi": 46,
            "name": "A#2",
            "ticks": 9744,
            "time": 50.75,
            "velocity": 0.44881889763779526
          },
          {
            "duration": 0.2135416666666643,
            "durationTicks": 41,
            "midi": 46,
            "name": "A#2",
            "ticks": 9819,
            "time": 51.140625,
            "velocity": 0.44881889763779526
          },
          {
            "duration": 0.1822916666666643,
            "durationTicks": 35,
            "midi": 42,
            "name": "F#2",
            "ticks": 9889,
            "time": 51.505208333333336,
            "velocity": 0.41732283464566927
          },
          {
            "duration": 0.1666666666666643,
            "durationTicks": 32,
            "midi": 42,
            "name": "F#2",
            "ticks": 9969,
            "time": 51.921875,
            "velocity": 0.4330708661417323
          },
          {
            "duration": 0.2604166666666643,
            "durationTicks": 50,
            "midi": 42,
            "name": "F#2",
            "ticks": 10023,
            "time": 52.203125,
            "velocity": 0.44881889763779526
          },
          {
            "duration": 0.234375,
            "durationTicks": 45,
            "midi": 46,
            "name": "A#2",
            "ticks": 10128,
            "time": 52.75,
            "velocity": 0.4409448818897638
          },
          {
            "duration": 0.171875,
            "durationTicks": 33,
            "midi": 46,
            "name": "A#2",
            "ticks": 10224,
            "time": 53.25,
            "velocity": 0.4094488188976378
          },
          {
            "duration": 0.1770833333333357,
            "durationTicks": 34,
            "midi": 40,
            "name": "E2",
            "ticks": 10272,
            "time": 53.5,
            "velocity": 0.48031496062992124
          },
          {
            "duration": 0.21875,
            "durationTicks": 42,
            "midi": 40,
            "name": "E2",
            "ticks": 10344,
            "time": 53.875,
            "velocity": 0.5196850393700787
          },
          {
            "duration": 0.28125,
            "durationTicks": 54,
            "midi": 40,
            "name": "E2",
            "ticks": 10416,
            "time": 54.25,
            "velocity": 0.5433070866141733
          },
          {
            "duration": 0.2291666666666643,
            "durationTicks": 44,
            "midi": 46,
            "name": "A#2",
            "ticks": 10512,
            "time": 54.75,
            "velocity": 0.47244094488188976
          },
          {
            "duration": 0.21875,
            "durationTicks": 42,
            "midi": 46,
            "name": "A#2",
            "ticks": 10582,
            "time": 55.114583333333336,
            "velocity": 0.44881889763779526
          },
          {
            "duration": 0.1666666666666643,
            "durationTicks": 32,
            "midi": 40,
            "name": "E2",
            "ticks": 10657,
            "time": 55.505208333333336,
            "velocity": 0.48031496062992124
          },
          {
            "duration": 0.1666666666666643,
            "durationTicks": 32,
            "midi": 40,
            "name": "E2",
            "ticks": 10728,
            "time": 55.875,
            "velocity": 0.47244094488188976
          },
          {
            "duration": 0.3020833333333357,
            "durationTicks": 58,
            "midi": 40,
            "name": "E2",
            "ticks": 10800,
            "time": 56.25,
            "velocity": 0.5196850393700787
          },
          {
            "duration": 0.2135416666666643,
            "durationTicks": 41,
            "midi": 46,
            "name": "A#2",
            "ticks": 10896,
            "time": 56.75,
            "velocity": 0.47244094488188976
          },
          {
            "duration": 0.203125,
            "durationTicks": 39,
            "midi": 46,
            "name": "A#2",
            "ticks": 10962,
            "time": 57.09375,
            "velocity": 0.44881889763779526
          },
          {
            "duration": 0.1666666666666643,
            "durationTicks": 32,
            "midi": 42,
            "name": "F#2",
            "ticks": 11041,
            "time": 57.505208333333336,
            "velocity": 0.44881889763779526
          },
          {
            "duration": 0.1666666666666643,
            "durationTicks": 32,
            "midi": 42,
            "name": "F#2",
            "ticks": 11113,
            "time": 57.880208333333336,
            "velocity": 0.4251968503937008
          },
          {
            "duration": 0.1666666666666643,
            "durationTicks": 32,
            "midi": 42,
            "name": "F#2",
            "ticks": 11184,
            "time": 58.25,
            "velocity": 0.2283464566929134
          },
          {
            "duration": 0.1666666666666643,
            "durationTicks": 32,
            "midi": 46,
            "name": "A#2",
            "ticks": 11280,
            "time": 58.75,
            "velocity": 0.4409448818897638
          },
          {
            "duration": 0.2083333333333357,
            "durationTicks": 40,
            "midi": 46,
            "name": "A#2",
            "ticks": 11349,
            "time": 59.109375,
            "velocity": 0.44881889763779526
          },
          {
            "duration": 0.1666666666666643,
            "durationTicks": 32,
            "midi": 42,
            "name": "F#2",
            "ticks": 11424,
            "time": 59.5,
            "velocity": 0.44881889763779526
          },
          {
            "duration": 0.1666666666666643,
            "durationTicks": 32,
            "midi": 42,
            "name": "F#2",
            "ticks": 11496,
            "time": 59.875,
            "velocity": 0.3937007874015748
          },
          {
            "duration": 0.1666666666666643,
            "durationTicks": 32,
            "midi": 42,
            "name": "F#2",
            "ticks": 11568,
            "time": 60.25,
            "velocity": 0.4881889763779528
          },
          {
            "duration": 0.1666666666666643,
            "durationTicks": 32,
            "midi": 46,
            "name": "A#2",
            "ticks": 11664,
            "time": 60.75,
            "velocity": 0.4330708661417323
          },
          {
            "duration": 0.203125,
            "durationTicks": 39,
            "midi": 46,
            "name": "A#2",
            "ticks": 11737,
            "time": 61.130208333333336,
            "velocity": 0.4330708661417323
          },
          {
            "duration": 0.1770833333333357,
            "durationTicks": 34,
            "midi": 40,
            "name": "E2",
            "ticks": 11808,
            "time": 61.5,
            "velocity": 0.4409448818897638
          },
          {
            "duration": 0.1666666666666643,
            "durationTicks": 32,
            "midi": 40,
            "name": "E2",
            "ticks": 11880,
            "time": 61.875,
            "velocity": 0.48031496062992124
          },
          {
            "duration": 0.1666666666666643,
            "durationTicks": 32,
            "midi": 40,
            "name": "E2",
            "ticks": 11952,
            "time": 62.25,
            "velocity": 0.5511811023622047
          },
          {
            "duration": 0.1666666666666643,
            "durationTicks": 32,
            "midi": 46,
            "name": "A#2",
            "ticks": 12048,
            "time": 62.75,
            "velocity": 0.4330708661417323
          },
          {
            "duration": 0.1666666666666643,
            "durationTicks": 32,
            "midi": 46,
            "name": "A#2",
            "ticks": 12115,
            "time": 63.098958333333336,
            "velocity": 0.4409448818897638
          },
          {
            "duration": 0.1927083333333357,
            "durationTicks": 37,
            "midi": 40,
            "name": "E2",
            "ticks": 12192,
            "time": 63.5,
            "velocity": 0.5196850393700787
          },
          {
            "duration": 0.1666666666666714,
            "durationTicks": 32,
            "midi": 40,
            "name": "E2",
            "ticks": 12264,
            "time": 63.875,
            "velocity": 0.4409448818897638
          },
          {
            "duration": 0.1666666666666714,
            "durationTicks": 32,
            "midi": 40,
            "name": "E2",
            "ticks": 12336,
            "time": 64.25,
            "velocity": 0.5196850393700787
          },
          {
            "duration": 0.1666666666666714,
            "durationTicks": 32,
            "midi": 46,
            "name": "A#2",
            "ticks": 12432,
            "time": 64.75,
            "velocity": 0.4330708661417323
          },
          {
            "duration": 0.1666666666666714,
            "durationTicks": 32,
            "midi": 46,
            "name": "A#2",
            "ticks": 12499,
            "time": 65.09895833333333,
            "velocity": 0.4015748031496063
          },
          {
            "duration": 0.1666666666666714,
            "durationTicks": 32,
            "midi": 42,
            "name": "F#2",
            "ticks": 12576,
            "time": 65.5,
            "velocity": 0.4094488188976378
          },
          {
            "duration": 0.1666666666666714,
            "durationTicks": 32,
            "midi": 42,
            "name": "F#2",
            "ticks": 12648,
            "time": 65.875,
            "velocity": 0.3937007874015748
          },
          {
            "duration": 0.1666666666666714,
            "durationTicks": 32,
            "midi": 42,
            "name": "F#2",
            "ticks": 12712,
            "time": 66.20833333333333,
            "velocity": 0.4251968503937008
          },
          {
            "duration": 0.1666666666666714,
            "durationTicks": 32,
            "midi": 46,
            "name": "A#2",
            "ticks": 12816,
            "time": 66.75,
            "velocity": 0.44881889763779526
          },
          {
            "duration": 0.2135416666666714,
            "durationTicks": 41,
            "midi": 46,
            "name": "A#2",
            "ticks": 12891,
            "time": 67.140625,
            "velocity": 0.44881889763779526
          },
          {
            "duration": 0.1822916666666714,
            "durationTicks": 35,
            "midi": 42,
            "name": "F#2",
            "ticks": 12961,
            "time": 67.50520833333333,
            "velocity": 0.41732283464566927
          },
          {
            "duration": 0.1666666666666714,
            "durationTicks": 32,
            "midi": 42,
            "name": "F#2",
            "ticks": 13041,
            "time": 67.921875,
            "velocity": 0.4330708661417323
          },
          {
            "duration": 0.2604166666666714,
            "durationTicks": 50,
            "midi": 42,
            "name": "F#2",
            "ticks": 13095,
            "time": 68.203125,
            "velocity": 0.44881889763779526
          },
          {
            "duration": 0.234375,
            "durationTicks": 45,
            "midi": 46,
            "name": "A#2",
            "ticks": 13200,
            "time": 68.75,
            "velocity": 0.4409448818897638
          },
          {
            "duration": 0.171875,
            "durationTicks": 33,
            "midi": 46,
            "name": "A#2",
            "ticks": 13296,
            "time": 69.25,
            "velocity": 0.4094488188976378
          },
          {
            "duration": 0.1770833333333286,
            "durationTicks": 34,
            "midi": 40,
            "name": "E2",
            "ticks": 13344,
            "time": 69.5,
            "velocity": 0.48031496062992124
          },
          {
            "duration": 0.21875,
            "durationTicks": 42,
            "midi": 40,
            "name": "E2",
            "ticks": 13416,
            "time": 69.875,
            "velocity": 0.5196850393700787
          },
          {
            "duration": 0.28125,
            "durationTicks": 54,
            "midi": 40,
            "name": "E2",
            "ticks": 13488,
            "time": 70.25,
            "velocity": 0.5433070866141733
          },
          {
            "duration": 0.2291666666666714,
            "durationTicks": 44,
            "midi": 46,
            "name": "A#2",
            "ticks": 13584,
            "time": 70.75,
            "velocity": 0.47244094488188976
          },
          {
            "duration": 0.21875,
            "durationTicks": 42,
            "midi": 46,
            "name": "A#2",
            "ticks": 13654,
            "time": 71.11458333333333,
            "velocity": 0.44881889763779526
          },
          {
            "duration": 0.1666666666666714,
            "durationTicks": 32,
            "midi": 40,
            "name": "E2",
            "ticks": 13729,
            "time": 71.50520833333333,
            "velocity": 0.48031496062992124
          },
          {
            "duration": 0.1666666666666714,
            "durationTicks": 32,
            "midi": 40,
            "name": "E2",
            "ticks": 13800,
            "time": 71.875,
            "velocity": 0.47244094488188976
          },
          {
            "duration": 0.3020833333333286,
            "durationTicks": 58,
            "midi": 40,
            "name": "E2",
            "ticks": 13872,
            "time": 72.25,
            "velocity": 0.5196850393700787
          },
          {
            "duration": 0.2135416666666714,
            "durationTicks": 41,
            "midi": 46,
            "name": "A#2",
            "ticks": 13968,
            "time": 72.75,
            "velocity": 0.47244094488188976
          },
          {
            "duration": 0.203125,
            "durationTicks": 39,
            "midi": 46,
            "name": "A#2",
            "ticks": 14034,
            "time": 73.09375,
            "velocity": 0.44881889763779526
          },
          {
            "duration": 0.1666666666666714,
            "durationTicks": 32,
            "midi": 42,
            "name": "F#2",
            "ticks": 14113,
            "time": 73.50520833333333,
            "velocity": 0.44881889763779526
          },
          {
            "duration": 0.1666666666666714,
            "durationTicks": 32,
            "midi": 42,
            "name": "F#2",
            "ticks": 14185,
            "time": 73.88020833333333,
            "velocity": 0.4251968503937008
          },
          {
            "duration": 0.1666666666666714,
            "durationTicks": 32,
            "midi": 42,
            "name": "F#2",
            "ticks": 14256,
            "time": 74.25,
            "velocity": 0.2283464566929134
          },
          {
            "duration": 0.1666666666666714,
            "durationTicks": 32,
            "midi": 46,
            "name": "A#2",
            "ticks": 14352,
            "time": 74.75,
            "velocity": 0.4409448818897638
          },
          {
            "duration": 0.2083333333333286,
            "durationTicks": 40,
            "midi": 46,
            "name": "A#2",
            "ticks": 14421,
            "time": 75.109375,
            "velocity": 0.44881889763779526
          },
          {
            "duration": 0.1666666666666714,
            "durationTicks": 32,
            "midi": 42,
            "name": "F#2",
            "ticks": 14496,
            "time": 75.5,
            "velocity": 0.44881889763779526
          },
          {
            "duration": 0.1666666666666714,
            "durationTicks": 32,
            "midi": 42,
            "name": "F#2",
            "ticks": 14568,
            "time": 75.875,
            "velocity": 0.3937007874015748
          },
          {
            "duration": 0.1666666666666714,
            "durationTicks": 32,
            "midi": 42,
            "name": "F#2",
            "ticks": 14640,
            "time": 76.25,
            "velocity": 0.4881889763779528
          },
          {
            "duration": 0.1666666666666714,
            "durationTicks": 32,
            "midi": 46,
            "name": "A#2",
            "ticks": 14736,
            "time": 76.75,
            "velocity": 0.4330708661417323
          },
          {
            "duration": 0.203125,
            "durationTicks": 39,
            "midi": 46,
            "name": "A#2",
            "ticks": 14809,
            "time": 77.13020833333333,
            "velocity": 0.4330708661417323
          },
          {
            "duration": 0.1770833333333286,
            "durationTicks": 34,
            "midi": 40,
            "name": "E2",
            "ticks": 14880,
            "time": 77.5,
            "velocity": 0.4409448818897638
          },
          {
            "duration": 0.1666666666666714,
            "durationTicks": 32,
            "midi": 40,
            "name": "E2",
            "ticks": 14952,
            "time": 77.875,
            "velocity": 0.48031496062992124
          },
          {
            "duration": 0.1666666666666714,
            "durationTicks": 32,
            "midi": 40,
            "name": "E2",
            "ticks": 15024,
            "time": 78.25,
            "velocity": 0.5511811023622047
          },
          {
            "duration": 0.1666666666666714,
            "durationTicks": 32,
            "midi": 46,
            "name": "A#2",
            "ticks": 15120,
            "time": 78.75,
            "velocity": 0.4330708661417323
          },
          {
            "duration": 0.1666666666666714,
            "durationTicks": 32,
            "midi": 46,
            "name": "A#2",
            "ticks": 15187,
            "time": 79.09895833333333,
            "velocity": 0.4409448818897638
          },
          {
            "duration": 0.1927083333333286,
            "durationTicks": 37,
            "midi": 40,
            "name": "E2",
            "ticks": 15264,
            "time": 79.5,
            "velocity": 0.5196850393700787
          },
          {
            "duration": 0.1666666666666714,
            "durationTicks": 32,
            "midi": 40,
            "name": "E2",
            "ticks": 15336,
            "time": 79.875,
            "velocity": 0.4409448818897638
          },
          {
            "duration": 0.1666666666666714,
            "durationTicks": 32,
            "midi": 40,
            "name": "E2",
            "ticks": 15408,
            "time": 80.25,
            "velocity": 0.5196850393700787
          },
          {
            "duration": 0.1666666666666714,
            "durationTicks": 32,
            "midi": 46,
            "name": "A#2",
            "ticks": 15504,
            "time": 80.75,
            "velocity": 0.4330708661417323
          },
          {
            "duration": 0.1666666666666714,
            "durationTicks": 32,
            "midi": 46,
            "name": "A#2",
            "ticks": 15571,
            "time": 81.09895833333333,
            "velocity": 0.4015748031496063
          },
          {
            "duration": 0.1666666666666714,
            "durationTicks": 32,
            "midi": 42,
            "name": "F#2",
            "ticks": 15648,
            "time": 81.5,
            "velocity": 0.4094488188976378
          },
          {
            "duration": 0.1666666666666714,
            "durationTicks": 32,
            "midi": 42,
            "name": "F#2",
            "ticks": 15720,
            "time": 81.875,
            "velocity": 0.3937007874015748
          },
          {
            "duration": 0.1666666666666714,
            "durationTicks": 32,
            "midi": 42,
            "name": "F#2",
            "ticks": 15784,
            "time": 82.20833333333333,
            "velocity": 0.4251968503937008
          },
          {
            "duration": 0.1666666666666714,
            "durationTicks": 32,
            "midi": 46,
            "name": "A#2",
            "ticks": 15888,
            "time": 82.75,
            "velocity": 0.44881889763779526
          },
          {
            "duration": 0.2135416666666714,
            "durationTicks": 41,
            "midi": 46,
            "name": "A#2",
            "ticks": 15963,
            "time": 83.140625,
            "velocity": 0.44881889763779526
          },
          {
            "duration": 0.1822916666666714,
            "durationTicks": 35,
            "midi": 42,
            "name": "F#2",
            "ticks": 16033,
            "time": 83.50520833333333,
            "velocity": 0.41732283464566927
          },
          {
            "duration": 0.1666666666666714,
            "durationTicks": 32,
            "midi": 42,
            "name": "F#2",
            "ticks": 16113,
            "time": 83.921875,
            "velocity": 0.4330708661417323
          },
          {
            "duration": 0.2604166666666714,
            "durationTicks": 50,
            "midi": 42,
            "name": "F#2",
            "ticks": 16167,
            "time": 84.203125,
            "velocity": 0.44881889763779526
          },
          {
            "duration": 0.234375,
            "durationTicks": 45,
            "midi": 46,
            "name": "A#2",
            "ticks": 16272,
            "time": 84.75,
            "velocity": 0.4409448818897638
          },
          {
            "duration": 0.171875,
            "durationTicks": 33,
            "midi": 46,
            "name": "A#2",
            "ticks": 16368,
            "time": 85.25,
            "velocity": 0.4094488188976378
          },
          {
            "duration": 0.1770833333333286,
            "durationTicks": 34,
            "midi": 40,
            "name": "E2",
            "ticks": 16416,
            "time": 85.5,
            "velocity": 0.48031496062992124
          },
          {
            "duration": 0.21875,
            "durationTicks": 42,
            "midi": 40,
            "name": "E2",
            "ticks": 16488,
            "time": 85.875,
            "velocity": 0.5196850393700787
          },
          {
            "duration": 0.28125,
            "durationTicks": 54,
            "midi": 40,
            "name": "E2",
            "ticks": 16560,
            "time": 86.25,
            "velocity": 0.5433070866141733
          },
          {
            "duration": 0.2291666666666714,
            "durationTicks": 44,
            "midi": 46,
            "name": "A#2",
            "ticks": 16656,
            "time": 86.75,
            "velocity": 0.47244094488188976
          },
          {
            "duration": 0.21875,
            "durationTicks": 42,
            "midi": 46,
            "name": "A#2",
            "ticks": 16726,
            "time": 87.11458333333333,
            "velocity": 0.44881889763779526
          },
          {
            "duration": 0.1666666666666714,
            "durationTicks": 32,
            "midi": 40,
            "name": "E2",
            "ticks": 16801,
            "time": 87.50520833333333,
            "velocity": 0.48031496062992124
          },
          {
            "duration": 0.1666666666666714,
            "durationTicks": 32,
            "midi": 40,
            "name": "E2",
            "ticks": 16872,
            "time": 87.875,
            "velocity": 0.47244094488188976
          },
          {
            "duration": 0.3020833333333286,
            "durationTicks": 58,
            "midi": 40,
            "name": "E2",
            "ticks": 16944,
            "time": 88.25,
            "velocity": 0.5196850393700787
          },
          {
            "duration": 0.2135416666666714,
            "durationTicks": 41,
            "midi": 46,
            "name": "A#2",
            "ticks": 17040,
            "time": 88.75,
            "velocity": 0.47244094488188976
          },
          {
            "duration": 0.203125,
            "durationTicks": 39,
            "midi": 46,
            "name": "A#2",
            "ticks": 17106,
            "time": 89.09375,
            "velocity": 0.44881889763779526
          },
          {
            "duration": 0.1666666666666714,
            "durationTicks": 32,
            "midi": 42,
            "name": "F#2",
            "ticks": 17185,
            "time": 89.50520833333333,
            "velocity": 0.44881889763779526
          },
          {
            "duration": 0.1666666666666714,
            "durationTicks": 32,
            "midi": 42,
            "name": "F#2",
            "ticks": 17257,
            "time": 89.88020833333333,
            "velocity": 0.4251968503937008
          },
          {
            "duration": 0.1666666666666714,
            "durationTicks": 32,
            "midi": 42,
            "name": "F#2",
            "ticks": 17328,
            "time": 90.25,
            "velocity": 0.2283464566929134
          },
          {
            "duration": 0.1666666666666714,
            "durationTicks": 32,
            "midi": 46,
            "name": "A#2",
            "ticks": 17424,
            "time": 90.75,
            "velocity": 0.4409448818897638
          },
          {
            "duration": 0.2083333333333286,
            "durationTicks": 40,
            "midi": 46,
            "name": "A#2",
            "ticks": 17493,
            "time": 91.109375,
            "velocity": 0.44881889763779526
          },
          {
            "duration": 0.1666666666666714,
            "durationTicks": 32,
            "midi": 42,
            "name": "F#2",
            "ticks": 17568,
            "time": 91.5,
            "velocity": 0.44881889763779526
          },
          {
            "duration": 0.1666666666666714,
            "durationTicks": 32,
            "midi": 42,
            "name": "F#2",
            "ticks": 17640,
            "time": 91.875,
            "velocity": 0.3937007874015748
          },
          {
            "duration": 0.1666666666666714,
            "durationTicks": 32,
            "midi": 42,
            "name": "F#2",
            "ticks": 17712,
            "time": 92.25,
            "velocity": 0.4881889763779528
          },
          {
            "duration": 0.1666666666666714,
            "durationTicks": 32,
            "midi": 46,
            "name": "A#2",
            "ticks": 17808,
            "time": 92.75,
            "velocity": 0.4330708661417323
          },
          {
            "duration": 0.203125,
            "durationTicks": 39,
            "midi": 46,
            "name": "A#2",
            "ticks": 17881,
            "time": 93.13020833333333,
            "velocity": 0.4330708661417323
          },
          {
            "duration": 0.1770833333333286,
            "durationTicks": 34,
            "midi": 40,
            "name": "E2",
            "ticks": 17952,
            "time": 93.5,
            "velocity": 0.4409448818897638
          },
          {
            "duration": 0.1666666666666714,
            "durationTicks": 32,
            "midi": 40,
            "name": "E2",
            "ticks": 18024,
            "time": 93.875,
            "velocity": 0.48031496062992124
          },
          {
            "duration": 0.1666666666666714,
            "durationTicks": 32,
            "midi": 40,
            "name": "E2",
            "ticks": 18096,
            "time": 94.25,
            "velocity": 0.5511811023622047
          },
          {
            "duration": 0.1666666666666714,
            "durationTicks": 32,
            "midi": 46,
            "name": "A#2",
            "ticks": 18192,
            "time": 94.75,
            "velocity": 0.4330708661417323
          },
          {
            "duration": 0.1666666666666714,
            "durationTicks": 32,
            "midi": 46,
            "name": "A#2",
            "ticks": 18259,
            "time": 95.09895833333333,
            "velocity": 0.4409448818897638
          },
          {
            "duration": 0.1927083333333286,
            "durationTicks": 37,
            "midi": 40,
            "name": "E2",
            "ticks": 18336,
            "time": 95.5,
            "velocity": 0.5196850393700787
          },
          {
            "duration": 0.1666666666666714,
            "durationTicks": 32,
            "midi": 40,
            "name": "E2",
            "ticks": 18408,
            "time": 95.875,
            "velocity": 0.4409448818897638
          },
          {
            "duration": 0.1666666666666714,
            "durationTicks": 32,
            "midi": 40,
            "name": "E2",
            "ticks": 18480,
            "time": 96.25,
            "velocity": 0.5196850393700787
          },
          {
            "duration": 0.1666666666666714,
            "durationTicks": 32,
            "midi": 46,
            "name": "A#2",
            "ticks": 18576,
            "time": 96.75,
            "velocity": 0.4330708661417323
          },
          {
            "duration": 0.1666666666666714,
            "durationTicks": 32,
            "midi": 46,
            "name": "A#2",
            "ticks": 18643,
            "time": 97.09895833333333,
            "velocity": 0.4015748031496063
          },
          {
            "duration": 0.1666666666666714,
            "durationTicks": 32,
            "midi": 42,
            "name": "F#2",
            "ticks": 18720,
            "time": 97.5,
            "velocity": 0.4094488188976378
          },
          {
            "duration": 0.1666666666666714,
            "durationTicks": 32,
            "midi": 42,
            "name": "F#2",
            "ticks": 18792,
            "time": 97.875,
            "velocity": 0.3937007874015748
          },
          {
            "duration": 0.1666666666666714,
            "durationTicks": 32,
            "midi": 42,
            "name": "F#2",
            "ticks": 18856,
            "time": 98.20833333333333,
            "velocity": 0.4251968503937008
          },
          {
            "duration": 0.1666666666666714,
            "durationTicks": 32,
            "midi": 46,
            "name": "A#2",
            "ticks": 18960,
            "time": 98.75,
            "velocity": 0.44881889763779526
          },
          {
            "duration": 0.2135416666666714,
            "durationTicks": 41,
            "midi": 46,
            "name": "A#2",
            "ticks": 19035,
            "time": 99.140625,
            "velocity": 0.44881889763779526
          },
          {
            "duration": 0.1822916666666714,
            "durationTicks": 35,
            "midi": 42,
            "name": "F#2",
            "ticks": 19105,
            "time": 99.50520833333333,
            "velocity": 0.41732283464566927
          },
          {
            "duration": 0.1666666666666714,
            "durationTicks": 32,
            "midi": 42,
            "name": "F#2",
            "ticks": 19185,
            "time": 99.921875,
            "velocity": 0.4330708661417323
          },
          {
            "duration": 0.2604166666666714,
            "durationTicks": 50,
            "midi": 42,
            "name": "F#2",
            "ticks": 19239,
            "time": 100.203125,
            "velocity": 0.44881889763779526
          },
          {
            "duration": 0.234375,
            "durationTicks": 45,
            "midi": 46,
            "name": "A#2",
            "ticks": 19344,
            "time": 100.75,
            "velocity": 0.4409448818897638
          },
          {
            "duration": 0.171875,
            "durationTicks": 33,
            "midi": 46,
            "name": "A#2",
            "ticks": 19440,
            "time": 101.25,
            "velocity": 0.4094488188976378
          },
          {
            "duration": 0.1770833333333286,
            "durationTicks": 34,
            "midi": 40,
            "name": "E2",
            "ticks": 19488,
            "time": 101.5,
            "velocity": 0.48031496062992124
          },
          {
            "duration": 0.21875,
            "durationTicks": 42,
            "midi": 40,
            "name": "E2",
            "ticks": 19560,
            "time": 101.875,
            "velocity": 0.5196850393700787
          },
          {
            "duration": 0.28125,
            "durationTicks": 54,
            "midi": 40,
            "name": "E2",
            "ticks": 19632,
            "time": 102.25,
            "velocity": 0.5433070866141733
          },
          {
            "duration": 0.2291666666666714,
            "durationTicks": 44,
            "midi": 46,
            "name": "A#2",
            "ticks": 19728,
            "time": 102.75,
            "velocity": 0.47244094488188976
          },
          {
            "duration": 0.21875,
            "durationTicks": 42,
            "midi": 46,
            "name": "A#2",
            "ticks": 19798,
            "time": 103.11458333333333,
            "velocity": 0.44881889763779526
          },
          {
            "duration": 0.1666666666666714,
            "durationTicks": 32,
            "midi": 40,
            "name": "E2",
            "ticks": 19873,
            "time": 103.50520833333333,
            "velocity": 0.48031496062992124
          },
          {
            "duration": 0.1666666666666714,
            "durationTicks": 32,
            "midi": 40,
            "name": "E2",
            "ticks": 19944,
            "time": 103.875,
            "velocity": 0.47244094488188976
          },
          {
            "duration": 0.3020833333333286,
            "durationTicks": 58,
            "midi": 40,
            "name": "E2",
            "ticks": 20016,
            "time": 104.25,
            "velocity": 0.5196850393700787
          },
          {
            "duration": 0.2135416666666714,
            "durationTicks": 41,
            "midi": 46,
            "name": "A#2",
            "ticks": 20112,
            "time": 104.75,
            "velocity": 0.47244094488188976
          },
          {
            "duration": 0.203125,
            "durationTicks": 39,
            "midi": 46,
            "name": "A#2",
            "ticks": 20178,
            "time": 105.09375,
            "velocity": 0.44881889763779526
          },
          {
            "duration": 0.1666666666666714,
            "durationTicks": 32,
            "midi": 42,
            "name": "F#2",
            "ticks": 20257,
            "time": 105.50520833333333,
            "velocity": 0.44881889763779526
          },
          {
            "duration": 0.1666666666666714,
            "durationTicks": 32,
            "midi": 42,
            "name": "F#2",
            "ticks": 20329,
            "time": 105.88020833333333,
            "velocity": 0.4251968503937008
          },
          {
            "duration": 0.1666666666666714,
            "durationTicks": 32,
            "midi": 42,
            "name": "F#2",
            "ticks": 20400,
            "time": 106.25,
            "velocity": 0.2283464566929134
          },
          {
            "duration": 0.1666666666666714,
            "durationTicks": 32,
            "midi": 46,
            "name": "A#2",
            "ticks": 20496,
            "time": 106.75,
            "velocity": 0.4409448818897638
          },
          {
            "duration": 0.2083333333333286,
            "durationTicks": 40,
            "midi": 46,
            "name": "A#2",
            "ticks": 20565,
            "time": 107.109375,
            "velocity": 0.44881889763779526
          },
          {
            "duration": 0.1666666666666714,
            "durationTicks": 32,
            "midi": 42,
            "name": "F#2",
            "ticks": 20640,
            "time": 107.5,
            "velocity": 0.44881889763779526
          },
          {
            "duration": 0.1666666666666714,
            "durationTicks": 32,
            "midi": 42,
            "name": "F#2",
            "ticks": 20712,
            "time": 107.875,
            "velocity": 0.3937007874015748
          },
          {
            "duration": 0.1666666666666714,
            "durationTicks": 32,
            "midi": 42,
            "name": "F#2",
            "ticks": 20784,
            "time": 108.25,
            "velocity": 0.4881889763779528
          },
          {
            "duration": 0.1666666666666714,
            "durationTicks": 32,
            "midi": 46,
            "name": "A#2",
            "ticks": 20880,
            "time": 108.75,
            "velocity": 0.4330708661417323
          },
          {
            "duration": 0.203125,
            "durationTicks": 39,
            "midi": 46,
            "name": "A#2",
            "ticks": 20953,
            "time": 109.13020833333333,
            "velocity": 0.4330708661417323
          },
          {
            "duration": 0.1770833333333286,
            "durationTicks": 34,
            "midi": 40,
            "name": "E2",
            "ticks": 21024,
            "time": 109.5,
            "velocity": 0.4409448818897638
          },
          {
            "duration": 0.1666666666666714,
            "durationTicks": 32,
            "midi": 40,
            "name": "E2",
            "ticks": 21096,
            "time": 109.875,
            "velocity": 0.48031496062992124
          },
          {
            "duration": 0.1666666666666714,
            "durationTicks": 32,
            "midi": 40,
            "name": "E2",
            "ticks": 21168,
            "time": 110.25,
            "velocity": 0.5511811023622047
          },
          {
            "duration": 0.1666666666666714,
            "durationTicks": 32,
            "midi": 46,
            "name": "A#2",
            "ticks": 21264,
            "time": 110.75,
            "velocity": 0.4330708661417323
          },
          {
            "duration": 0.1666666666666714,
            "durationTicks": 32,
            "midi": 46,
            "name": "A#2",
            "ticks": 21331,
            "time": 111.09895833333333,
            "velocity": 0.4409448818897638
          },
          {
            "duration": 0.1927083333333286,
            "durationTicks": 37,
            "midi": 40,
            "name": "E2",
            "ticks": 21408,
            "time": 111.5,
            "velocity": 0.5196850393700787
          },
          {
            "duration": 0.1666666666666714,
            "durationTicks": 32,
            "midi": 40,
            "name": "E2",
            "ticks": 21480,
            "time": 111.875,
            "velocity": 0.4409448818897638
          },
          {
            "duration": 0.1666666666666714,
            "durationTicks": 32,
            "midi": 40,
            "name": "E2",
            "ticks": 21552,
            "time": 112.25,
            "velocity": 0.5196850393700787
          },
          {
            "duration": 0.1666666666666714,
            "durationTicks": 32,
            "midi": 46,
            "name": "A#2",
            "ticks": 21648,
            "time": 112.75,
            "velocity": 0.4330708661417323
          },
          {
            "duration": 0.1666666666666714,
            "durationTicks": 32,
            "midi": 46,
            "name": "A#2",
            "ticks": 21715,
            "time": 113.09895833333333,
            "velocity": 0.4015748031496063
          },
          {
            "duration": 0.1666666666666714,
            "durationTicks": 32,
            "midi": 42,
            "name": "F#2",
            "ticks": 21792,
            "time": 113.5,
            "velocity": 0.4094488188976378
          },
          {
            "duration": 0.1666666666666714,
            "durationTicks": 32,
            "midi": 42,
            "name": "F#2",
            "ticks": 21864,
            "time": 113.875,
            "velocity": 0.3937007874015748
          },
          {
            "duration": 0.1666666666666714,
            "durationTicks": 32,
            "midi": 42,
            "name": "F#2",
            "ticks": 21928,
            "time": 114.20833333333333,
            "velocity": 0.4251968503937008
          },
          {
            "duration": 0.1666666666666714,
            "durationTicks": 32,
            "midi": 46,
            "name": "A#2",
            "ticks": 22032,
            "time": 114.75,
            "velocity": 0.44881889763779526
          },
          {
            "duration": 0.2135416666666714,
            "durationTicks": 41,
            "midi": 46,
            "name": "A#2",
            "ticks": 22107,
            "time": 115.140625,
            "velocity": 0.44881889763779526
          },
          {
            "duration": 0.1822916666666714,
            "durationTicks": 35,
            "midi": 42,
            "name": "F#2",
            "ticks": 22177,
            "time": 115.50520833333333,
            "velocity": 0.41732283464566927
          },
          {
            "duration": 0.1666666666666714,
            "durationTicks": 32,
            "midi": 42,
            "name": "F#2",
            "ticks": 22257,
            "time": 115.921875,
            "velocity": 0.4330708661417323
          },
          {
            "duration": 0.2604166666666714,
            "durationTicks": 50,
            "midi": 42,
            "name": "F#2",
            "ticks": 22311,
            "time": 116.203125,
            "velocity": 0.44881889763779526
          },
          {
            "duration": 0.234375,
            "durationTicks": 45,
            "midi": 46,
            "name": "A#2",
            "ticks": 22416,
            "time": 116.75,
            "velocity": 0.4409448818897638
          },
          {
            "duration": 0.171875,
            "durationTicks": 33,
            "midi": 46,
            "name": "A#2",
            "ticks": 22512,
            "time": 117.25,
            "velocity": 0.4094488188976378
          },
          {
            "duration": 0.1770833333333286,
            "durationTicks": 34,
            "midi": 40,
            "name": "E2",
            "ticks": 22560,
            "time": 117.5,
            "velocity": 0.48031496062992124
          },
          {
            "duration": 0.21875,
            "durationTicks": 42,
            "midi": 40,
            "name": "E2",
            "ticks": 22632,
            "time": 117.875,
            "velocity": 0.5196850393700787
          },
          {
            "duration": 0.28125,
            "durationTicks": 54,
            "midi": 40,
            "name": "E2",
            "ticks": 22704,
            "time": 118.25,
            "velocity": 0.5433070866141733
          },
          {
            "duration": 0.2291666666666714,
            "durationTicks": 44,
            "midi": 46,
            "name": "A#2",
            "ticks": 22800,
            "time": 118.75,
            "velocity": 0.47244094488188976
          },
          {
            "duration": 0.21875,
            "durationTicks": 42,
            "midi": 46,
            "name": "A#2",
            "ticks": 22870,
            "time": 119.11458333333333,
            "velocity": 0.44881889763779526
          },
          {
            "duration": 0.1666666666666714,
            "durationTicks": 32,
            "midi": 40,
            "name": "E2",
            "ticks": 22945,
            "time": 119.50520833333333,
            "velocity": 0.48031496062992124
          },
          {
            "duration": 0.1666666666666714,
            "durationTicks": 32,
            "midi": 40,
            "name": "E2",
            "ticks": 23016,
            "time": 119.875,
            "velocity": 0.47244094488188976
          },
          {
            "duration": 0.3020833333333286,
            "durationTicks": 58,
            "midi": 40,
            "name": "E2",
            "ticks": 23088,
            "time": 120.25,
            "velocity": 0.5196850393700787
          },
          {
            "duration": 0.2135416666666714,
            "durationTicks": 41,
            "midi": 46,
            "name": "A#2",
            "ticks": 23184,
            "time": 120.75,
            "velocity": 0.47244094488188976
          },
          {
            "duration": 0.203125,
            "durationTicks": 39,
            "midi": 46,
            "name": "A#2",
            "ticks": 23250,
            "time": 121.09375,
            "velocity": 0.44881889763779526
          },
          {
            "duration": 0.1666666666666714,
            "durationTicks": 32,
            "midi": 42,
            "name": "F#2",
            "ticks": 23329,
            "time": 121.50520833333333,
            "velocity": 0.44881889763779526
          },
          {
            "duration": 0.1666666666666714,
            "durationTicks": 32,
            "midi": 42,
            "name": "F#2",
            "ticks": 23401,
            "time": 121.88020833333333,
            "velocity": 0.4251968503937008
          },
          {
            "duration": 0.1666666666666714,
            "durationTicks": 32,
            "midi": 42,
            "name": "F#2",
            "ticks": 23472,
            "time": 122.25,
            "velocity": 0.2283464566929134
          },
          {
            "duration": 0.1666666666666714,
            "durationTicks": 32,
            "midi": 46,
            "name": "A#2",
            "ticks": 23568,
            "time": 122.75,
            "velocity": 0.4409448818897638
          },
          {
            "duration": 0.2083333333333286,
            "durationTicks": 40,
            "midi": 46,
            "name": "A#2",
            "ticks": 23637,
            "time": 123.109375,
            "velocity": 0.44881889763779526
          },
          {
            "duration": 0.1666666666666714,
            "durationTicks": 32,
            "midi": 42,
            "name": "F#2",
            "ticks": 23712,
            "time": 123.5,
            "velocity": 0.44881889763779526
          },
          {
            "duration": 0.1666666666666714,
            "durationTicks": 32,
            "midi": 42,
            "name": "F#2",
            "ticks": 23784,
            "time": 123.875,
            "velocity": 0.3937007874015748
          },
          {
            "duration": 0.1666666666666714,
            "durationTicks": 32,
            "midi": 42,
            "name": "F#2",
            "ticks": 23856,
            "time": 124.25,
            "velocity": 0.4881889763779528
          },
          {
            "duration": 0.1666666666666714,
            "durationTicks": 32,
            "midi": 46,
            "name": "A#2",
            "ticks": 23952,
            "time": 124.75,
            "velocity": 0.4330708661417323
          },
          {
            "duration": 0.203125,
            "durationTicks": 39,
            "midi": 46,
            "name": "A#2",
            "ticks": 24025,
            "time": 125.13020833333333,
            "velocity": 0.4330708661417323
          },
          {
            "duration": 0.1770833333333286,
            "durationTicks": 34,
            "midi": 40,
            "name": "E2",
            "ticks": 24096,
            "time": 125.5,
            "velocity": 0.4409448818897638
          },
          {
            "duration": 0.1666666666666714,
            "durationTicks": 32,
            "midi": 40,
            "name": "E2",
            "ticks": 24168,
            "time": 125.875,
            "velocity": 0.48031496062992124
          },
          {
            "duration": 0.1666666666666714,
            "durationTicks": 32,
            "midi": 40,
            "name": "E2",
            "ticks": 24240,
            "time": 126.25,
            "velocity": 0.5511811023622047
          },
          {
            "duration": 0.1666666666666714,
            "durationTicks": 32,
            "midi": 46,
            "name": "A#2",
            "ticks": 24336,
            "time": 126.75,
            "velocity": 0.4330708661417323
          },
          {
            "duration": 0.1666666666666714,
            "durationTicks": 32,
            "midi": 46,
            "name": "A#2",
            "ticks": 24403,
            "time": 127.09895833333333,
            "velocity": 0.4409448818897638
          },
          {
            "duration": 0.1927083333333286,
            "durationTicks": 37,
            "midi": 40,
            "name": "E2",
            "ticks": 24480,
            "time": 127.5,
            "velocity": 0.5196850393700787
          },
          {
            "duration": 0.1666666666666572,
            "durationTicks": 32,
            "midi": 40,
            "name": "E2",
            "ticks": 24552,
            "time": 127.875,
            "velocity": 0.4409448818897638
          },
          {
            "duration": 0.1666666666666572,
            "durationTicks": 32,
            "midi": 40,
            "name": "E2",
            "ticks": 24624,
            "time": 128.25,
            "velocity": 0.5196850393700787
          },
          {
            "duration": 0.1666666666666572,
            "durationTicks": 32,
            "midi": 46,
            "name": "A#2",
            "ticks": 24720,
            "time": 128.75,
            "velocity": 0.4330708661417323
          },
          {
            "duration": 0.1666666666666572,
            "durationTicks": 32,
            "midi": 46,
            "name": "A#2",
            "ticks": 24787,
            "time": 129.09895833333334,
            "velocity": 0.4015748031496063
          },
          {
            "duration": 0.1666666666666572,
            "durationTicks": 32,
            "midi": 42,
            "name": "F#2",
            "ticks": 24864,
            "time": 129.5,
            "velocity": 0.4094488188976378
          },
          {
            "duration": 0.1666666666666572,
            "durationTicks": 32,
            "midi": 42,
            "name": "F#2",
            "ticks": 24936,
            "time": 129.875,
            "velocity": 0.3937007874015748
          },
          {
            "duration": 0.1666666666666572,
            "durationTicks": 32,
            "midi": 42,
            "name": "F#2",
            "ticks": 25000,
            "time": 130.20833333333334,
            "velocity": 0.4251968503937008
          },
          {
            "duration": 0.1666666666666572,
            "durationTicks": 32,
            "midi": 46,
            "name": "A#2",
            "ticks": 25104,
            "time": 130.75,
            "velocity": 0.44881889763779526
          },
          {
            "duration": 0.2135416666666572,
            "durationTicks": 41,
            "midi": 46,
            "name": "A#2",
            "ticks": 25179,
            "time": 131.140625,
            "velocity": 0.44881889763779526
          },
          {
            "duration": 0.1822916666666572,
            "durationTicks": 35,
            "midi": 42,
            "name": "F#2",
            "ticks": 25249,
            "time": 131.50520833333334,
            "velocity": 0.41732283464566927
          },
          {
            "duration": 0.1666666666666572,
            "durationTicks": 32,
            "midi": 42,
            "name": "F#2",
            "ticks": 25329,
            "time": 131.921875,
            "velocity": 0.4330708661417323
          },
          {
            "duration": 0.2604166666666572,
            "durationTicks": 50,
            "midi": 42,
            "name": "F#2",
            "ticks": 25383,
            "time": 132.203125,
            "velocity": 0.44881889763779526
          },
          {
            "duration": 0.234375,
            "durationTicks": 45,
            "midi": 46,
            "name": "A#2",
            "ticks": 25488,
            "time": 132.75,
            "velocity": 0.4409448818897638
          },
          {
            "duration": 0.171875,
            "durationTicks": 33,
            "midi": 46,
            "name": "A#2",
            "ticks": 25584,
            "time": 133.25,
            "velocity": 0.4094488188976378
          },
          {
            "duration": 0.1770833333333428,
            "durationTicks": 34,
            "midi": 40,
            "name": "E2",
            "ticks": 25632,
            "time": 133.5,
            "velocity": 0.48031496062992124
          },
          {
            "duration": 0.21875,
            "durationTicks": 42,
            "midi": 40,
            "name": "E2",
            "ticks": 25704,
            "time": 133.875,
            "velocity": 0.5196850393700787
          },
          {
            "duration": 0.28125,
            "durationTicks": 54,
            "midi": 40,
            "name": "E2",
            "ticks": 25776,
            "time": 134.25,
            "velocity": 0.5433070866141733
          },
          {
            "duration": 0.2291666666666572,
            "durationTicks": 44,
            "midi": 46,
            "name": "A#2",
            "ticks": 25872,
            "time": 134.75,
            "velocity": 0.47244094488188976
          },
          {
            "duration": 0.21875,
            "durationTicks": 42,
            "midi": 46,
            "name": "A#2",
            "ticks": 25942,
            "time": 135.11458333333334,
            "velocity": 0.44881889763779526
          },
          {
            "duration": 0.1666666666666572,
            "durationTicks": 32,
            "midi": 40,
            "name": "E2",
            "ticks": 26017,
            "time": 135.50520833333334,
            "velocity": 0.48031496062992124
          },
          {
            "duration": 0.1666666666666572,
            "durationTicks": 32,
            "midi": 40,
            "name": "E2",
            "ticks": 26088,
            "time": 135.875,
            "velocity": 0.47244094488188976
          },
          {
            "duration": 0.3020833333333428,
            "durationTicks": 58,
            "midi": 40,
            "name": "E2",
            "ticks": 26160,
            "time": 136.25,
            "velocity": 0.5196850393700787
          },
          {
            "duration": 0.2135416666666572,
            "durationTicks": 41,
            "midi": 46,
            "name": "A#2",
            "ticks": 26256,
            "time": 136.75,
            "velocity": 0.47244094488188976
          },
          {
            "duration": 0.203125,
            "durationTicks": 39,
            "midi": 46,
            "name": "A#2",
            "ticks": 26322,
            "time": 137.09375,
            "velocity": 0.44881889763779526
          },
          {
            "duration": 0.1666666666666572,
            "durationTicks": 32,
            "midi": 42,
            "name": "F#2",
            "ticks": 26401,
            "time": 137.50520833333334,
            "velocity": 0.44881889763779526
          },
          {
            "duration": 0.1666666666666572,
            "durationTicks": 32,
            "midi": 42,
            "name": "F#2",
            "ticks": 26473,
            "time": 137.88020833333334,
            "velocity": 0.4251968503937008
          },
          {
            "duration": 0.1666666666666572,
            "durationTicks": 32,
            "midi": 42,
            "name": "F#2",
            "ticks": 26544,
            "time": 138.25,
            "velocity": 0.2283464566929134
          },
          {
            "duration": 0.1666666666666572,
            "durationTicks": 32,
            "midi": 46,
            "name": "A#2",
            "ticks": 26640,
            "time": 138.75,
            "velocity": 0.4409448818897638
          },
          {
            "duration": 0.2083333333333428,
            "durationTicks": 40,
            "midi": 46,
            "name": "A#2",
            "ticks": 26709,
            "time": 139.109375,
            "velocity": 0.44881889763779526
          },
          {
            "duration": 0.1666666666666572,
            "durationTicks": 32,
            "midi": 42,
            "name": "F#2",
            "ticks": 26784,
            "time": 139.5,
            "velocity": 0.44881889763779526
          },
          {
            "duration": 0.1666666666666572,
            "durationTicks": 32,
            "midi": 42,
            "name": "F#2",
            "ticks": 26856,
            "time": 139.875,
            "velocity": 0.3937007874015748
          },
          {
            "duration": 0.1666666666666572,
            "durationTicks": 32,
            "midi": 42,
            "name": "F#2",
            "ticks": 26928,
            "time": 140.25,
            "velocity": 0.4881889763779528
          },
          {
            "duration": 0.1666666666666572,
            "durationTicks": 32,
            "midi": 46,
            "name": "A#2",
            "ticks": 27024,
            "time": 140.75,
            "velocity": 0.4330708661417323
          },
          {
            "duration": 0.203125,
            "durationTicks": 39,
            "midi": 46,
            "name": "A#2",
            "ticks": 27097,
            "time": 141.13020833333334,
            "velocity": 0.4330708661417323
          },
          {
            "duration": 0.1770833333333428,
            "durationTicks": 34,
            "midi": 40,
            "name": "E2",
            "ticks": 27168,
            "time": 141.5,
            "velocity": 0.4409448818897638
          },
          {
            "duration": 0.1666666666666572,
            "durationTicks": 32,
            "midi": 40,
            "name": "E2",
            "ticks": 27240,
            "time": 141.875,
            "velocity": 0.48031496062992124
          },
          {
            "duration": 0.1666666666666572,
            "durationTicks": 32,
            "midi": 40,
            "name": "E2",
            "ticks": 27312,
            "time": 142.25,
            "velocity": 0.5511811023622047
          },
          {
            "duration": 0.1666666666666572,
            "durationTicks": 32,
            "midi": 46,
            "name": "A#2",
            "ticks": 27408,
            "time": 142.75,
            "velocity": 0.4330708661417323
          },
          {
            "duration": 0.1666666666666572,
            "durationTicks": 32,
            "midi": 46,
            "name": "A#2",
            "ticks": 27475,
            "time": 143.09895833333334,
            "velocity": 0.4409448818897638
          },
          {
            "duration": 0.1927083333333428,
            "durationTicks": 37,
            "midi": 40,
            "name": "E2",
            "ticks": 27552,
            "time": 143.5,
            "velocity": 0.5196850393700787
          },
          {
            "duration": 0.1666666666666572,
            "durationTicks": 32,
            "midi": 40,
            "name": "E2",
            "ticks": 27624,
            "time": 143.875,
            "velocity": 0.4409448818897638
          },
          {
            "duration": 0.1666666666666572,
            "durationTicks": 32,
            "midi": 40,
            "name": "E2",
            "ticks": 27696,
            "time": 144.25,
            "velocity": 0.5196850393700787
          },
          {
            "duration": 0.1666666666666572,
            "durationTicks": 32,
            "midi": 46,
            "name": "A#2",
            "ticks": 27792,
            "time": 144.75,
            "velocity": 0.4330708661417323
          },
          {
            "duration": 0.1666666666666572,
            "durationTicks": 32,
            "midi": 46,
            "name": "A#2",
            "ticks": 27859,
            "time": 145.09895833333334,
            "velocity": 0.4015748031496063
          },
          {
            "duration": 0.1666666666666572,
            "durationTicks": 32,
            "midi": 42,
            "name": "F#2",
            "ticks": 27936,
            "time": 145.5,
            "velocity": 0.4094488188976378
          },
          {
            "duration": 0.1666666666666572,
            "durationTicks": 32,
            "midi": 42,
            "name": "F#2",
            "ticks": 28008,
            "time": 145.875,
            "velocity": 0.3937007874015748
          },
          {
            "duration": 0.1666666666666572,
            "durationTicks": 32,
            "midi": 42,
            "name": "F#2",
            "ticks": 28072,
            "time": 146.20833333333334,
            "velocity": 0.4251968503937008
          },
          {
            "duration": 0.1666666666666572,
            "durationTicks": 32,
            "midi": 46,
            "name": "A#2",
            "ticks": 28176,
            "time": 146.75,
            "velocity": 0.44881889763779526
          },
          {
            "duration": 0.2135416666666572,
            "durationTicks": 41,
            "midi": 46,
            "name": "A#2",
            "ticks": 28251,
            "time": 147.140625,
            "velocity": 0.44881889763779526
          },
          {
            "duration": 0.1822916666666572,
            "durationTicks": 35,
            "midi": 42,
            "name": "F#2",
            "ticks": 28321,
            "time": 147.50520833333334,
            "velocity": 0.41732283464566927
          },
          {
            "duration": 0.1666666666666572,
            "durationTicks": 32,
            "midi": 42,
            "name": "F#2",
            "ticks": 28401,
            "time": 147.921875,
            "velocity": 0.4330708661417323
          },
          {
            "duration": 0.2604166666666572,
            "durationTicks": 50,
            "midi": 42,
            "name": "F#2",
            "ticks": 28455,
            "time": 148.203125,
            "velocity": 0.44881889763779526
          },
          {
            "duration": 0.234375,
            "durationTicks": 45,
            "midi": 46,
            "name": "A#2",
            "ticks": 28560,
            "time": 148.75,
            "velocity": 0.4409448818897638
          },
          {
            "duration": 0.171875,
            "durationTicks": 33,
            "midi": 46,
            "name": "A#2",
            "ticks": 28656,
            "time": 149.25,
            "velocity": 0.4094488188976378
          },
          {
            "duration": 0.1770833333333428,
            "durationTicks": 34,
            "midi": 40,
            "name": "E2",
            "ticks": 28704,
            "time": 149.5,
            "velocity": 0.48031496062992124
          },
          {
            "duration": 0.21875,
            "durationTicks": 42,
            "midi": 40,
            "name": "E2",
            "ticks": 28776,
            "time": 149.875,
            "velocity": 0.5196850393700787
          },
          {
            "duration": 0.28125,
            "durationTicks": 54,
            "midi": 40,
            "name": "E2",
            "ticks": 28848,
            "time": 150.25,
            "velocity": 0.5433070866141733
          },
          {
            "duration": 0.2291666666666572,
            "durationTicks": 44,
            "midi": 46,
            "name": "A#2",
            "ticks": 28944,
            "time": 150.75,
            "velocity": 0.47244094488188976
          },
          {
            "duration": 0.21875,
            "durationTicks": 42,
            "midi": 46,
            "name": "A#2",
            "ticks": 29014,
            "time": 151.11458333333334,
            "velocity": 0.44881889763779526
          },
          {
            "duration": 0.1666666666666572,
            "durationTicks": 32,
            "midi": 40,
            "name": "E2",
            "ticks": 29089,
            "time": 151.50520833333334,
            "velocity": 0.48031496062992124
          },
          {
            "duration": 0.1666666666666572,
            "durationTicks": 32,
            "midi": 40,
            "name": "E2",
            "ticks": 29160,
            "time": 151.875,
            "velocity": 0.47244094488188976
          },
          {
            "duration": 0.3020833333333428,
            "durationTicks": 58,
            "midi": 40,
            "name": "E2",
            "ticks": 29232,
            "time": 152.25,
            "velocity": 0.5196850393700787
          },
          {
            "duration": 0.2135416666666572,
            "durationTicks": 41,
            "midi": 46,
            "name": "A#2",
            "ticks": 29328,
            "time": 152.75,
            "velocity": 0.47244094488188976
          },
          {
            "duration": 0.203125,
            "durationTicks": 39,
            "midi": 46,
            "name": "A#2",
            "ticks": 29394,
            "time": 153.09375,
            "velocity": 0.44881889763779526
          },
          {
            "duration": 0.1666666666666572,
            "durationTicks": 32,
            "midi": 42,
            "name": "F#2",
            "ticks": 29473,
            "time": 153.50520833333334,
            "velocity": 0.44881889763779526
          },
          {
            "duration": 0.1666666666666572,
            "durationTicks": 32,
            "midi": 42,
            "name": "F#2",
            "ticks": 29545,
            "time": 153.88020833333334,
            "velocity": 0.4251968503937008
          },
          {
            "duration": 0.1666666666666572,
            "durationTicks": 32,
            "midi": 42,
            "name": "F#2",
            "ticks": 29616,
            "time": 154.25,
            "velocity": 0.2283464566929134
          },
          {
            "duration": 0.1666666666666572,
            "durationTicks": 32,
            "midi": 46,
            "name": "A#2",
            "ticks": 29712,
            "time": 154.75,
            "velocity": 0.4409448818897638
          },
          {
            "duration": 0.2083333333333428,
            "durationTicks": 40,
            "midi": 46,
            "name": "A#2",
            "ticks": 29781,
            "time": 155.109375,
            "velocity": 0.44881889763779526
          },
          {
            "duration": 0.1666666666666572,
            "durationTicks": 32,
            "midi": 42,
            "name": "F#2",
            "ticks": 29856,
            "time": 155.5,
            "velocity": 0.44881889763779526
          },
          {
            "duration": 0.1666666666666572,
            "durationTicks": 32,
            "midi": 42,
            "name": "F#2",
            "ticks": 29928,
            "time": 155.875,
            "velocity": 0.3937007874015748
          },
          {
            "duration": 0.1666666666666572,
            "durationTicks": 32,
            "midi": 42,
            "name": "F#2",
            "ticks": 30000,
            "time": 156.25,
            "velocity": 0.4881889763779528
          },
          {
            "duration": 0.1666666666666572,
            "durationTicks": 32,
            "midi": 46,
            "name": "A#2",
            "ticks": 30096,
            "time": 156.75,
            "velocity": 0.4330708661417323
          },
          {
            "duration": 0.203125,
            "durationTicks": 39,
            "midi": 46,
            "name": "A#2",
            "ticks": 30169,
            "time": 157.13020833333334,
            "velocity": 0.4330708661417323
          },
          {
            "duration": 0.1770833333333428,
            "durationTicks": 34,
            "midi": 40,
            "name": "E2",
            "ticks": 30240,
            "time": 157.5,
            "velocity": 0.4409448818897638
          },
          {
            "duration": 0.1666666666666572,
            "durationTicks": 32,
            "midi": 40,
            "name": "E2",
            "ticks": 30312,
            "time": 157.875,
            "velocity": 0.48031496062992124
          },
          {
            "duration": 0.1666666666666572,
            "durationTicks": 32,
            "midi": 40,
            "name": "E2",
            "ticks": 30384,
            "time": 158.25,
            "velocity": 0.5511811023622047
          },
          {
            "duration": 0.1666666666666572,
            "durationTicks": 32,
            "midi": 46,
            "name": "A#2",
            "ticks": 30480,
            "time": 158.75,
            "velocity": 0.4330708661417323
          },
          {
            "duration": 0.1666666666666572,
            "durationTicks": 32,
            "midi": 46,
            "name": "A#2",
            "ticks": 30547,
            "time": 159.09895833333334,
            "velocity": 0.4409448818897638
          },
          {
            "duration": 0.1927083333333428,
            "durationTicks": 37,
            "midi": 40,
            "name": "E2",
            "ticks": 30624,
            "time": 159.5,
            "velocity": 0.5196850393700787
          },
          {
            "duration": 0.1666666666666572,
            "durationTicks": 32,
            "midi": 40,
            "name": "E2",
            "ticks": 30696,
            "time": 159.875,
            "velocity": 0.4409448818897638
          },
          {
            "duration": 0.1666666666666572,
            "durationTicks": 32,
            "midi": 40,
            "name": "E2",
            "ticks": 30768,
            "time": 160.25,
            "velocity": 0.5196850393700787
          },
          {
            "duration": 0.1666666666666572,
            "durationTicks": 32,
            "midi": 46,
            "name": "A#2",
            "ticks": 30864,
            "time": 160.75,
            "velocity": 0.4330708661417323
          },
          {
            "duration": 0.1666666666666572,
            "durationTicks": 32,
            "midi": 46,
            "name": "A#2",
            "ticks": 30931,
            "time": 161.09895833333334,
            "velocity": 0.4015748031496063
          },
          {
            "duration": 0.1666666666666572,
            "durationTicks": 32,
            "midi": 42,
            "name": "F#2",
            "ticks": 31008,
            "time": 161.5,
            "velocity": 0.4094488188976378
          },
          {
            "duration": 0.1666666666666572,
            "durationTicks": 32,
            "midi": 42,
            "name": "F#2",
            "ticks": 31080,
            "time": 161.875,
            "velocity": 0.3937007874015748
          },
          {
            "duration": 0.1666666666666572,
            "durationTicks": 32,
            "midi": 42,
            "name": "F#2",
            "ticks": 31144,
            "time": 162.20833333333334,
            "velocity": 0.4251968503937008
          },
          {
            "duration": 0.1666666666666572,
            "durationTicks": 32,
            "midi": 46,
            "name": "A#2",
            "ticks": 31248,
            "time": 162.75,
            "velocity": 0.44881889763779526
          },
          {
            "duration": 0.2135416666666572,
            "durationTicks": 41,
            "midi": 46,
            "name": "A#2",
            "ticks": 31323,
            "time": 163.140625,
            "velocity": 0.44881889763779526
          },
          {
            "duration": 0.1822916666666572,
            "durationTicks": 35,
            "midi": 42,
            "name": "F#2",
            "ticks": 31393,
            "time": 163.50520833333334,
            "velocity": 0.41732283464566927
          },
          {
            "duration": 0.1666666666666572,
            "durationTicks": 32,
            "midi": 42,
            "name": "F#2",
            "ticks": 31473,
            "time": 163.921875,
            "velocity": 0.4330708661417323
          },
          {
            "duration": 0.2604166666666572,
            "durationTicks": 50,
            "midi": 42,
            "name": "F#2",
            "ticks": 31527,
            "time": 164.203125,
            "velocity": 0.44881889763779526
          },
          {
            "duration": 0.234375,
            "durationTicks": 45,
            "midi": 46,
            "name": "A#2",
            "ticks": 31632,
            "time": 164.75,
            "velocity": 0.4409448818897638
          },
          {
            "duration": 0.171875,
            "durationTicks": 33,
            "midi": 46,
            "name": "A#2",
            "ticks": 31728,
            "time": 165.25,
            "velocity": 0.4094488188976378
          },
          {
            "duration": 0.1770833333333428,
            "durationTicks": 34,
            "midi": 40,
            "name": "E2",
            "ticks": 31776,
            "time": 165.5,
            "velocity": 0.48031496062992124
          },
          {
            "duration": 0.21875,
            "durationTicks": 42,
            "midi": 40,
            "name": "E2",
            "ticks": 31848,
            "time": 165.875,
            "velocity": 0.5196850393700787
          },
          {
            "duration": 0.28125,
            "durationTicks": 54,
            "midi": 40,
            "name": "E2",
            "ticks": 31920,
            "time": 166.25,
            "velocity": 0.5433070866141733
          },
          {
            "duration": 0.2291666666666572,
            "durationTicks": 44,
            "midi": 46,
            "name": "A#2",
            "ticks": 32016,
            "time": 166.75,
            "velocity": 0.47244094488188976
          },
          {
            "duration": 0.21875,
            "durationTicks": 42,
            "midi": 46,
            "name": "A#2",
            "ticks": 32086,
            "time": 167.11458333333334,
            "velocity": 0.44881889763779526
          },
          {
            "duration": 0.1666666666666572,
            "durationTicks": 32,
            "midi": 40,
            "name": "E2",
            "ticks": 32161,
            "time": 167.50520833333334,
            "velocity": 0.48031496062992124
          },
          {
            "duration": 0.1666666666666572,
            "durationTicks": 32,
            "midi": 40,
            "name": "E2",
            "ticks": 32232,
            "time": 167.875,
            "velocity": 0.47244094488188976
          },
          {
            "duration": 0.3020833333333428,
            "durationTicks": 58,
            "midi": 40,
            "name": "E2",
            "ticks": 32304,
            "time": 168.25,
            "velocity": 0.5196850393700787
          },
          {
            "duration": 0.2135416666666572,
            "durationTicks": 41,
            "midi": 46,
            "name": "A#2",
            "ticks": 32400,
            "time": 168.75,
            "velocity": 0.47244094488188976
          },
          {
            "duration": 0.203125,
            "durationTicks": 39,
            "midi": 46,
            "name": "A#2",
            "ticks": 32466,
            "time": 169.09375,
            "velocity": 0.44881889763779526
          },
          {
            "duration": 0.1666666666666572,
            "durationTicks": 32,
            "midi": 42,
            "name": "F#2",
            "ticks": 32545,
            "time": 169.50520833333334,
            "velocity": 0.44881889763779526
          },
          {
            "duration": 0.1666666666666572,
            "durationTicks": 32,
            "midi": 42,
            "name": "F#2",
            "ticks": 32617,
            "time": 169.88020833333334,
            "velocity": 0.4251968503937008
          },
          {
            "duration": 0.1666666666666572,
            "durationTicks": 32,
            "midi": 42,
            "name": "F#2",
            "ticks": 32688,
            "time": 170.25,
            "velocity": 0.2283464566929134
          },
          {
            "duration": 0.1666666666666572,
            "durationTicks": 32,
            "midi": 46,
            "name": "A#2",
            "ticks": 32784,
            "time": 170.75,
            "velocity": 0.4409448818897638
          },
          {
            "duration": 0.2083333333333428,
            "durationTicks": 40,
            "midi": 46,
            "name": "A#2",
            "ticks": 32853,
            "time": 171.109375,
            "velocity": 0.44881889763779526
          },
          {
            "duration": 0.1666666666666572,
            "durationTicks": 32,
            "midi": 42,
            "name": "F#2",
            "ticks": 32928,
            "time": 171.5,
            "velocity": 0.44881889763779526
          },
          {
            "duration": 0.1666666666666572,
            "durationTicks": 32,
            "midi": 42,
            "name": "F#2",
            "ticks": 33000,
            "time": 171.875,
            "velocity": 0.3937007874015748
          },
          {
            "duration": 0.1666666666666572,
            "durationTicks": 32,
            "midi": 42,
            "name": "F#2",
            "ticks": 33072,
            "time": 172.25,
            "velocity": 0.4881889763779528
          },
          {
            "duration": 0.1666666666666572,
            "durationTicks": 32,
            "midi": 46,
            "name": "A#2",
            "ticks": 33168,
            "time": 172.75,
            "velocity": 0.4330708661417323
          },
          {
            "duration": 0.203125,
            "durationTicks": 39,
            "midi": 46,
            "name": "A#2",
            "ticks": 33241,
            "time": 173.13020833333334,
            "velocity": 0.4330708661417323
          },
          {
            "duration": 0.1770833333333428,
            "durationTicks": 34,
            "midi": 40,
            "name": "E2",
            "ticks": 33312,
            "time": 173.5,
            "velocity": 0.4409448818897638
          },
          {
            "duration": 0.1666666666666572,
            "durationTicks": 32,
            "midi": 40,
            "name": "E2",
            "ticks": 33384,
            "time": 173.875,
            "velocity": 0.48031496062992124
          },
          {
            "duration": 0.1666666666666572,
            "durationTicks": 32,
            "midi": 40,
            "name": "E2",
            "ticks": 33456,
            "time": 174.25,
            "velocity": 0.5511811023622047
          },
          {
            "duration": 0.1666666666666572,
            "durationTicks": 32,
            "midi": 46,
            "name": "A#2",
            "ticks": 33552,
            "time": 174.75,
            "velocity": 0.4330708661417323
          },
          {
            "duration": 0.1666666666666572,
            "durationTicks": 32,
            "midi": 46,
            "name": "A#2",
            "ticks": 33619,
            "time": 175.09895833333334,
            "velocity": 0.4409448818897638
          },
          {
            "duration": 0.1927083333333428,
            "durationTicks": 37,
            "midi": 40,
            "name": "E2",
            "ticks": 33696,
            "time": 175.5,
            "velocity": 0.5196850393700787
          },
          {
            "duration": 0.1666666666666572,
            "durationTicks": 32,
            "midi": 40,
            "name": "E2",
            "ticks": 33768,
            "time": 175.875,
            "velocity": 0.4409448818897638
          },
          {
            "duration": 0.1666666666666572,
            "durationTicks": 32,
            "midi": 40,
            "name": "E2",
            "ticks": 33840,
            "time": 176.25,
            "velocity": 0.5196850393700787
          },
          {
            "duration": 0.1666666666666572,
            "durationTicks": 32,
            "midi": 46,
            "name": "A#2",
            "ticks": 33936,
            "time": 176.75,
            "velocity": 0.4330708661417323
          },
          {
            "duration": 0.1666666666666572,
            "durationTicks": 32,
            "midi": 46,
            "name": "A#2",
            "ticks": 34003,
            "time": 177.09895833333334,
            "velocity": 0.4015748031496063
          },
          {
            "duration": 0.1666666666666572,
            "durationTicks": 32,
            "midi": 42,
            "name": "F#2",
            "ticks": 34080,
            "time": 177.5,
            "velocity": 0.4094488188976378
          },
          {
            "duration": 0.1666666666666572,
            "durationTicks": 32,
            "midi": 42,
            "name": "F#2",
            "ticks": 34152,
            "time": 177.875,
            "velocity": 0.3937007874015748
          },
          {
            "duration": 0.1666666666666572,
            "durationTicks": 32,
            "midi": 42,
            "name": "F#2",
            "ticks": 34216,
            "time": 178.20833333333334,
            "velocity": 0.4251968503937008
          },
          {
            "duration": 0.1666666666666572,
            "durationTicks": 32,
            "midi": 46,
            "name": "A#2",
            "ticks": 34320,
            "time": 178.75,
            "velocity": 0.44881889763779526
          },
          {
            "duration": 0.2135416666666572,
            "durationTicks": 41,
            "midi": 46,
            "name": "A#2",
            "ticks": 34395,
            "time": 179.140625,
            "velocity": 0.44881889763779526
          },
          {
            "duration": 0.1822916666666572,
            "durationTicks": 35,
            "midi": 42,
            "name": "F#2",
            "ticks": 34465,
            "time": 179.50520833333334,
            "velocity": 0.41732283464566927
          },
          {
            "duration": 0.1666666666666572,
            "durationTicks": 32,
            "midi": 42,
            "name": "F#2",
            "ticks": 34545,
            "time": 179.921875,
            "velocity": 0.4330708661417323
          },
          {
            "duration": 0.2604166666666572,
            "durationTicks": 50,
            "midi": 42,
            "name": "F#2",
            "ticks": 34599,
            "time": 180.203125,
            "velocity": 0.44881889763779526
          },
          {
            "duration": 0.234375,
            "durationTicks": 45,
            "midi": 46,
            "name": "A#2",
            "ticks": 34704,
            "time": 180.75,
            "velocity": 0.4409448818897638
          },
          {
            "duration": 0.171875,
            "durationTicks": 33,
            "midi": 46,
            "name": "A#2",
            "ticks": 34800,
            "time": 181.25,
            "velocity": 0.4094488188976378
          },
          {
            "duration": 0.1770833333333428,
            "durationTicks": 34,
            "midi": 40,
            "name": "E2",
            "ticks": 34848,
            "time": 181.5,
            "velocity": 0.48031496062992124
          },
          {
            "duration": 0.21875,
            "durationTicks": 42,
            "midi": 40,
            "name": "E2",
            "ticks": 34920,
            "time": 181.875,
            "velocity": 0.5196850393700787
          },
          {
            "duration": 0.28125,
            "durationTicks": 54,
            "midi": 40,
            "name": "E2",
            "ticks": 34992,
            "time": 182.25,
            "velocity": 0.5433070866141733
          },
          {
            "duration": 0.2291666666666572,
            "durationTicks": 44,
            "midi": 46,
            "name": "A#2",
            "ticks": 35088,
            "time": 182.75,
            "velocity": 0.47244094488188976
          },
          {
            "duration": 0.21875,
            "durationTicks": 42,
            "midi": 46,
            "name": "A#2",
            "ticks": 35158,
            "time": 183.11458333333334,
            "velocity": 0.44881889763779526
          },
          {
            "duration": 0.1666666666666572,
            "durationTicks": 32,
            "midi": 40,
            "name": "E2",
            "ticks": 35233,
            "time": 183.50520833333334,
            "velocity": 0.48031496062992124
          },
          {
            "duration": 0.1666666666666572,
            "durationTicks": 32,
            "midi": 40,
            "name": "E2",
            "ticks": 35304,
            "time": 183.875,
            "velocity": 0.47244094488188976
          },
          {
            "duration": 0.3020833333333428,
            "durationTicks": 58,
            "midi": 40,
            "name": "E2",
            "ticks": 35376,
            "time": 184.25,
            "velocity": 0.5196850393700787
          }
        ]
      }
    ]
  }